%TF.GenerationSoftware,KiCad,Pcbnew,9.0.6*%
%TF.CreationDate,2025-12-14T16:55:08-06:00*%
%TF.ProjectId,PCB,5043422e-6b69-4636-9164-5f7063625858,rev?*%
%TF.SameCoordinates,Original*%
%TF.FileFunction,Legend,Bot*%
%TF.FilePolarity,Positive*%
%FSLAX46Y46*%
G04 Gerber Fmt 4.6, Leading zero omitted, Abs format (unit mm)*
G04 Created by KiCad (PCBNEW 9.0.6) date 2025-12-14 16:55:08*
%MOMM*%
%LPD*%
G01*
G04 APERTURE LIST*
%ADD10C,0.200000*%
%ADD11C,0.000000*%
G04 APERTURE END LIST*
D10*
X131610400Y-102941755D02*
X131562780Y-103036993D01*
X131562780Y-103036993D02*
X131562780Y-103227469D01*
X131562780Y-103227469D02*
X131610400Y-103322707D01*
X131610400Y-103322707D02*
X131658019Y-103370326D01*
X131658019Y-103370326D02*
X131753257Y-103417945D01*
X131753257Y-103417945D02*
X132038971Y-103417945D01*
X132038971Y-103417945D02*
X132134209Y-103370326D01*
X132134209Y-103370326D02*
X132181828Y-103322707D01*
X132181828Y-103322707D02*
X132229447Y-103227469D01*
X132229447Y-103227469D02*
X132229447Y-103036993D01*
X132229447Y-103036993D02*
X132181828Y-102941755D01*
X131562780Y-102513183D02*
X132562780Y-102513183D01*
X131562780Y-102084612D02*
X132086590Y-102084612D01*
X132086590Y-102084612D02*
X132181828Y-102132231D01*
X132181828Y-102132231D02*
X132229447Y-102227469D01*
X132229447Y-102227469D02*
X132229447Y-102370326D01*
X132229447Y-102370326D02*
X132181828Y-102465564D01*
X132181828Y-102465564D02*
X132134209Y-102513183D01*
X131562780Y-101179850D02*
X132086590Y-101179850D01*
X132086590Y-101179850D02*
X132181828Y-101227469D01*
X132181828Y-101227469D02*
X132229447Y-101322707D01*
X132229447Y-101322707D02*
X132229447Y-101513183D01*
X132229447Y-101513183D02*
X132181828Y-101608421D01*
X131610400Y-101179850D02*
X131562780Y-101275088D01*
X131562780Y-101275088D02*
X131562780Y-101513183D01*
X131562780Y-101513183D02*
X131610400Y-101608421D01*
X131610400Y-101608421D02*
X131705638Y-101656040D01*
X131705638Y-101656040D02*
X131800876Y-101656040D01*
X131800876Y-101656040D02*
X131896114Y-101608421D01*
X131896114Y-101608421D02*
X131943733Y-101513183D01*
X131943733Y-101513183D02*
X131943733Y-101275088D01*
X131943733Y-101275088D02*
X131991352Y-101179850D01*
X131562780Y-100703659D02*
X132562780Y-100703659D01*
X131943733Y-100608421D02*
X131562780Y-100322707D01*
X132229447Y-100322707D02*
X131848495Y-100703659D01*
X131562780Y-99894135D02*
X132229447Y-99894135D01*
X132038971Y-99894135D02*
X132134209Y-99846516D01*
X132134209Y-99846516D02*
X132181828Y-99798897D01*
X132181828Y-99798897D02*
X132229447Y-99703659D01*
X132229447Y-99703659D02*
X132229447Y-99608421D01*
X131562780Y-99275087D02*
X132229447Y-99275087D01*
X132562780Y-99275087D02*
X132515161Y-99322706D01*
X132515161Y-99322706D02*
X132467542Y-99275087D01*
X132467542Y-99275087D02*
X132515161Y-99227468D01*
X132515161Y-99227468D02*
X132562780Y-99275087D01*
X132562780Y-99275087D02*
X132467542Y-99275087D01*
X131610400Y-98846516D02*
X131562780Y-98751278D01*
X131562780Y-98751278D02*
X131562780Y-98560802D01*
X131562780Y-98560802D02*
X131610400Y-98465564D01*
X131610400Y-98465564D02*
X131705638Y-98417945D01*
X131705638Y-98417945D02*
X131753257Y-98417945D01*
X131753257Y-98417945D02*
X131848495Y-98465564D01*
X131848495Y-98465564D02*
X131896114Y-98560802D01*
X131896114Y-98560802D02*
X131896114Y-98703659D01*
X131896114Y-98703659D02*
X131943733Y-98798897D01*
X131943733Y-98798897D02*
X132038971Y-98846516D01*
X132038971Y-98846516D02*
X132086590Y-98846516D01*
X132086590Y-98846516D02*
X132181828Y-98798897D01*
X132181828Y-98798897D02*
X132229447Y-98703659D01*
X132229447Y-98703659D02*
X132229447Y-98560802D01*
X132229447Y-98560802D02*
X132181828Y-98465564D01*
X131562780Y-97989373D02*
X132562780Y-97989373D01*
X131562780Y-97560802D02*
X132086590Y-97560802D01*
X132086590Y-97560802D02*
X132181828Y-97608421D01*
X132181828Y-97608421D02*
X132229447Y-97703659D01*
X132229447Y-97703659D02*
X132229447Y-97846516D01*
X132229447Y-97846516D02*
X132181828Y-97941754D01*
X132181828Y-97941754D02*
X132134209Y-97989373D01*
X132038971Y-96465564D02*
X132086590Y-96513183D01*
X132086590Y-96513183D02*
X132134209Y-96608421D01*
X132134209Y-96608421D02*
X132134209Y-96703659D01*
X132134209Y-96703659D02*
X132086590Y-96798897D01*
X132086590Y-96798897D02*
X132038971Y-96846516D01*
X132038971Y-96846516D02*
X131943733Y-96894135D01*
X131943733Y-96894135D02*
X131848495Y-96894135D01*
X131848495Y-96894135D02*
X131753257Y-96846516D01*
X131753257Y-96846516D02*
X131705638Y-96798897D01*
X131705638Y-96798897D02*
X131658019Y-96703659D01*
X131658019Y-96703659D02*
X131658019Y-96608421D01*
X131658019Y-96608421D02*
X131705638Y-96513183D01*
X131705638Y-96513183D02*
X131753257Y-96465564D01*
X132134209Y-96465564D02*
X131753257Y-96465564D01*
X131753257Y-96465564D02*
X131705638Y-96417945D01*
X131705638Y-96417945D02*
X131705638Y-96370326D01*
X131705638Y-96370326D02*
X131753257Y-96275087D01*
X131753257Y-96275087D02*
X131848495Y-96227468D01*
X131848495Y-96227468D02*
X132086590Y-96227468D01*
X132086590Y-96227468D02*
X132229447Y-96322707D01*
X132229447Y-96322707D02*
X132324685Y-96465564D01*
X132324685Y-96465564D02*
X132372304Y-96656040D01*
X132372304Y-96656040D02*
X132324685Y-96846516D01*
X132324685Y-96846516D02*
X132229447Y-96989373D01*
X132229447Y-96989373D02*
X132086590Y-97084611D01*
X132086590Y-97084611D02*
X131896114Y-97132230D01*
X131896114Y-97132230D02*
X131705638Y-97084611D01*
X131705638Y-97084611D02*
X131562780Y-96989373D01*
X131562780Y-96989373D02*
X131467542Y-96846516D01*
X131467542Y-96846516D02*
X131419923Y-96656040D01*
X131419923Y-96656040D02*
X131467542Y-96465564D01*
X131467542Y-96465564D02*
X131562780Y-96322707D01*
X131562780Y-95656040D02*
X131610400Y-95751278D01*
X131610400Y-95751278D02*
X131658019Y-95798897D01*
X131658019Y-95798897D02*
X131753257Y-95846516D01*
X131753257Y-95846516D02*
X132038971Y-95846516D01*
X132038971Y-95846516D02*
X132134209Y-95798897D01*
X132134209Y-95798897D02*
X132181828Y-95751278D01*
X132181828Y-95751278D02*
X132229447Y-95656040D01*
X132229447Y-95656040D02*
X132229447Y-95513183D01*
X132229447Y-95513183D02*
X132181828Y-95417945D01*
X132181828Y-95417945D02*
X132134209Y-95370326D01*
X132134209Y-95370326D02*
X132038971Y-95322707D01*
X132038971Y-95322707D02*
X131753257Y-95322707D01*
X131753257Y-95322707D02*
X131658019Y-95370326D01*
X131658019Y-95370326D02*
X131610400Y-95417945D01*
X131610400Y-95417945D02*
X131562780Y-95513183D01*
X131562780Y-95513183D02*
X131562780Y-95656040D01*
X132229447Y-94465564D02*
X131562780Y-94465564D01*
X132229447Y-94894135D02*
X131705638Y-94894135D01*
X131705638Y-94894135D02*
X131610400Y-94846516D01*
X131610400Y-94846516D02*
X131562780Y-94751278D01*
X131562780Y-94751278D02*
X131562780Y-94608421D01*
X131562780Y-94608421D02*
X131610400Y-94513183D01*
X131610400Y-94513183D02*
X131658019Y-94465564D01*
X132229447Y-94132230D02*
X132229447Y-93751278D01*
X132562780Y-93989373D02*
X131705638Y-93989373D01*
X131705638Y-93989373D02*
X131610400Y-93941754D01*
X131610400Y-93941754D02*
X131562780Y-93846516D01*
X131562780Y-93846516D02*
X131562780Y-93751278D01*
X131562780Y-93275087D02*
X131610400Y-93370325D01*
X131610400Y-93370325D02*
X131705638Y-93417944D01*
X131705638Y-93417944D02*
X132562780Y-93417944D01*
X131562780Y-92751277D02*
X131610400Y-92846515D01*
X131610400Y-92846515D02*
X131658019Y-92894134D01*
X131658019Y-92894134D02*
X131753257Y-92941753D01*
X131753257Y-92941753D02*
X132038971Y-92941753D01*
X132038971Y-92941753D02*
X132134209Y-92894134D01*
X132134209Y-92894134D02*
X132181828Y-92846515D01*
X132181828Y-92846515D02*
X132229447Y-92751277D01*
X132229447Y-92751277D02*
X132229447Y-92608420D01*
X132229447Y-92608420D02*
X132181828Y-92513182D01*
X132181828Y-92513182D02*
X132134209Y-92465563D01*
X132134209Y-92465563D02*
X132038971Y-92417944D01*
X132038971Y-92417944D02*
X131753257Y-92417944D01*
X131753257Y-92417944D02*
X131658019Y-92465563D01*
X131658019Y-92465563D02*
X131610400Y-92513182D01*
X131610400Y-92513182D02*
X131562780Y-92608420D01*
X131562780Y-92608420D02*
X131562780Y-92751277D01*
X131562780Y-91846515D02*
X131610400Y-91941753D01*
X131610400Y-91941753D02*
X131658019Y-91989372D01*
X131658019Y-91989372D02*
X131753257Y-92036991D01*
X131753257Y-92036991D02*
X132038971Y-92036991D01*
X132038971Y-92036991D02*
X132134209Y-91989372D01*
X132134209Y-91989372D02*
X132181828Y-91941753D01*
X132181828Y-91941753D02*
X132229447Y-91846515D01*
X132229447Y-91846515D02*
X132229447Y-91703658D01*
X132229447Y-91703658D02*
X132181828Y-91608420D01*
X132181828Y-91608420D02*
X132134209Y-91560801D01*
X132134209Y-91560801D02*
X132038971Y-91513182D01*
X132038971Y-91513182D02*
X131753257Y-91513182D01*
X131753257Y-91513182D02*
X131658019Y-91560801D01*
X131658019Y-91560801D02*
X131610400Y-91608420D01*
X131610400Y-91608420D02*
X131562780Y-91703658D01*
X131562780Y-91703658D02*
X131562780Y-91846515D01*
X131562780Y-91084610D02*
X132562780Y-91084610D01*
X131943733Y-90989372D02*
X131562780Y-90703658D01*
X132229447Y-90703658D02*
X131848495Y-91084610D01*
X131658019Y-90275086D02*
X131610400Y-90227467D01*
X131610400Y-90227467D02*
X131562780Y-90275086D01*
X131562780Y-90275086D02*
X131610400Y-90322705D01*
X131610400Y-90322705D02*
X131658019Y-90275086D01*
X131658019Y-90275086D02*
X131562780Y-90275086D01*
X131610400Y-89370325D02*
X131562780Y-89465563D01*
X131562780Y-89465563D02*
X131562780Y-89656039D01*
X131562780Y-89656039D02*
X131610400Y-89751277D01*
X131610400Y-89751277D02*
X131658019Y-89798896D01*
X131658019Y-89798896D02*
X131753257Y-89846515D01*
X131753257Y-89846515D02*
X132038971Y-89846515D01*
X132038971Y-89846515D02*
X132134209Y-89798896D01*
X132134209Y-89798896D02*
X132181828Y-89751277D01*
X132181828Y-89751277D02*
X132229447Y-89656039D01*
X132229447Y-89656039D02*
X132229447Y-89465563D01*
X132229447Y-89465563D02*
X132181828Y-89370325D01*
X131562780Y-88798896D02*
X131610400Y-88894134D01*
X131610400Y-88894134D02*
X131658019Y-88941753D01*
X131658019Y-88941753D02*
X131753257Y-88989372D01*
X131753257Y-88989372D02*
X132038971Y-88989372D01*
X132038971Y-88989372D02*
X132134209Y-88941753D01*
X132134209Y-88941753D02*
X132181828Y-88894134D01*
X132181828Y-88894134D02*
X132229447Y-88798896D01*
X132229447Y-88798896D02*
X132229447Y-88656039D01*
X132229447Y-88656039D02*
X132181828Y-88560801D01*
X132181828Y-88560801D02*
X132134209Y-88513182D01*
X132134209Y-88513182D02*
X132038971Y-88465563D01*
X132038971Y-88465563D02*
X131753257Y-88465563D01*
X131753257Y-88465563D02*
X131658019Y-88513182D01*
X131658019Y-88513182D02*
X131610400Y-88560801D01*
X131610400Y-88560801D02*
X131562780Y-88656039D01*
X131562780Y-88656039D02*
X131562780Y-88798896D01*
X131562780Y-88036991D02*
X132229447Y-88036991D01*
X132134209Y-88036991D02*
X132181828Y-87989372D01*
X132181828Y-87989372D02*
X132229447Y-87894134D01*
X132229447Y-87894134D02*
X132229447Y-87751277D01*
X132229447Y-87751277D02*
X132181828Y-87656039D01*
X132181828Y-87656039D02*
X132086590Y-87608420D01*
X132086590Y-87608420D02*
X131562780Y-87608420D01*
X132086590Y-87608420D02*
X132181828Y-87560801D01*
X132181828Y-87560801D02*
X132229447Y-87465563D01*
X132229447Y-87465563D02*
X132229447Y-87322706D01*
X132229447Y-87322706D02*
X132181828Y-87227467D01*
X132181828Y-87227467D02*
X132086590Y-87179848D01*
X132086590Y-87179848D02*
X131562780Y-87179848D01*
D11*
%TO.C,G\u002A\u002A\u002A*%
G36*
X134475252Y-81823659D02*
G01*
X134598242Y-81841081D01*
X134680185Y-81876149D01*
X134747178Y-81932507D01*
X134752070Y-81937355D01*
X134837352Y-82004908D01*
X134872586Y-81999980D01*
X134897671Y-81951222D01*
X134992680Y-81877773D01*
X135027814Y-81862127D01*
X135180972Y-81856593D01*
X135303096Y-81936202D01*
X135352964Y-82078042D01*
X135352897Y-82085008D01*
X135306679Y-82244541D01*
X135198359Y-82339081D01*
X135062589Y-82352771D01*
X134934022Y-82269754D01*
X134917060Y-82250024D01*
X134851725Y-82211888D01*
X134772262Y-82269754D01*
X134737522Y-82290332D01*
X134592024Y-82325410D01*
X134374538Y-82349193D01*
X134116953Y-82361321D01*
X133851155Y-82361435D01*
X133609033Y-82349175D01*
X133422474Y-82324181D01*
X133323366Y-82286094D01*
X133302464Y-82262125D01*
X133254998Y-82109826D01*
X133309995Y-81937820D01*
X133364424Y-81895544D01*
X133485194Y-81863533D01*
X133688990Y-81841821D01*
X133994306Y-81827424D01*
X134001736Y-81827184D01*
X134285115Y-81820241D01*
X134475252Y-81823659D01*
G37*
G36*
X134328837Y-109261415D02*
G01*
X134525100Y-109270312D01*
X134647482Y-109289795D01*
X134719340Y-109323631D01*
X134764029Y-109375589D01*
X134805976Y-109438892D01*
X134852371Y-109456764D01*
X134918061Y-109375589D01*
X134937560Y-109350376D01*
X135067517Y-109267240D01*
X135203085Y-109279710D01*
X135309741Y-109374779D01*
X135352964Y-109539443D01*
X135350070Y-109576227D01*
X135280015Y-109705837D01*
X135147145Y-109767970D01*
X134992680Y-109739711D01*
X134919438Y-109688412D01*
X134872586Y-109617504D01*
X134872584Y-109617171D01*
X134837078Y-109611985D01*
X134752491Y-109679664D01*
X134712369Y-109715180D01*
X134629975Y-109758892D01*
X134507602Y-109784577D01*
X134318573Y-109796709D01*
X134036213Y-109799759D01*
X133759242Y-109795870D01*
X133551900Y-109780898D01*
X133421495Y-109751759D01*
X133345669Y-109705399D01*
X133291601Y-109632475D01*
X133251309Y-109507243D01*
X133251857Y-109484695D01*
X133276395Y-109388854D01*
X133350194Y-109323913D01*
X133490880Y-109284358D01*
X133716081Y-109264670D01*
X134043424Y-109259333D01*
X134328837Y-109261415D01*
G37*
G36*
X134782515Y-91575409D02*
G01*
X134799521Y-92291200D01*
X134800441Y-92331640D01*
X134803366Y-92651530D01*
X134794981Y-92868663D01*
X134774084Y-92998346D01*
X134739473Y-93055883D01*
X134700163Y-93070613D01*
X134551292Y-93092201D01*
X134334238Y-93104089D01*
X134080349Y-93106749D01*
X133820970Y-93100654D01*
X133587448Y-93086276D01*
X133411131Y-93064087D01*
X133323366Y-93034558D01*
X133303435Y-93011812D01*
X133254837Y-92860009D01*
X133307504Y-92690460D01*
X133332056Y-92668590D01*
X133457693Y-92622666D01*
X133646603Y-92587779D01*
X133859020Y-92568295D01*
X134055179Y-92568579D01*
X134195315Y-92592997D01*
X134211832Y-92599332D01*
X134291268Y-92623135D01*
X134331676Y-92599421D01*
X134346247Y-92503997D01*
X134348173Y-92312671D01*
X134348173Y-91999106D01*
X134102233Y-92016864D01*
X134078314Y-92018518D01*
X133929598Y-92018095D01*
X133855693Y-91978011D01*
X133817308Y-91879294D01*
X133806017Y-91825568D01*
X133813551Y-91686860D01*
X133899396Y-91601040D01*
X134076185Y-91560581D01*
X134356550Y-91557956D01*
X134782515Y-91575409D01*
G37*
G36*
X134799521Y-102499238D02*
G01*
X134800441Y-102539678D01*
X134803366Y-102859568D01*
X134794981Y-103076701D01*
X134774084Y-103206384D01*
X134739473Y-103263921D01*
X134700163Y-103278651D01*
X134551292Y-103300238D01*
X134334238Y-103312127D01*
X134080349Y-103314787D01*
X133820970Y-103308692D01*
X133587448Y-103294314D01*
X133411131Y-103272124D01*
X133323366Y-103242596D01*
X133303435Y-103219850D01*
X133254837Y-103068047D01*
X133307504Y-102898498D01*
X133332056Y-102876628D01*
X133457693Y-102830704D01*
X133646603Y-102795817D01*
X133859020Y-102776333D01*
X134055179Y-102776617D01*
X134195315Y-102801035D01*
X134207467Y-102805698D01*
X134289382Y-102831064D01*
X134331091Y-102809300D01*
X134346164Y-102716084D01*
X134348173Y-102527096D01*
X134348173Y-102219918D01*
X133851509Y-102211848D01*
X133627836Y-102204912D01*
X133450238Y-102186790D01*
X133345602Y-102153096D01*
X133288373Y-102098695D01*
X133254002Y-102017345D01*
X133288184Y-101888529D01*
X133289216Y-101886910D01*
X133333624Y-101841964D01*
X133412315Y-101812032D01*
X133546730Y-101794226D01*
X133758309Y-101785660D01*
X134068492Y-101783447D01*
X134782515Y-101783447D01*
X134799521Y-102499238D01*
G37*
G36*
X134348133Y-83979432D02*
G01*
X134536527Y-83986107D01*
X134665646Y-84018283D01*
X134746648Y-84094869D01*
X134790693Y-84234772D01*
X134808937Y-84456903D01*
X134812538Y-84780169D01*
X134812169Y-84872125D01*
X134801961Y-85205493D01*
X134777972Y-85425301D01*
X134740482Y-85528648D01*
X134706698Y-85547000D01*
X134565067Y-85576024D01*
X134351584Y-85594500D01*
X134098162Y-85602426D01*
X133836716Y-85599805D01*
X133599158Y-85586634D01*
X133417404Y-85562915D01*
X133323366Y-85528648D01*
X133315778Y-85520644D01*
X133255892Y-85382298D01*
X133275161Y-85230737D01*
X133367456Y-85122439D01*
X133398973Y-85108834D01*
X133557076Y-85076059D01*
X133764206Y-85062486D01*
X133978398Y-85067652D01*
X134157685Y-85091090D01*
X134260103Y-85132336D01*
X134289859Y-85161731D01*
X134319379Y-85176890D01*
X134334560Y-85136936D01*
X134340963Y-85020216D01*
X134344149Y-84805078D01*
X134348132Y-84489830D01*
X134156980Y-84509684D01*
X133974799Y-84498540D01*
X133839061Y-84407985D01*
X133791734Y-84240802D01*
X133794088Y-84208714D01*
X133871089Y-84082455D01*
X134054242Y-84005465D01*
X134340017Y-83979428D01*
X134348133Y-83979432D01*
G37*
G36*
X133631999Y-82689152D02*
G01*
X133740868Y-82804677D01*
X133776976Y-82919333D01*
X133777250Y-83029854D01*
X133751660Y-83111536D01*
X133765980Y-83178823D01*
X133856936Y-83208301D01*
X134046120Y-83214826D01*
X134360552Y-83214826D01*
X134342653Y-83007079D01*
X134340271Y-82962415D01*
X134376734Y-82779045D01*
X134488375Y-82683189D01*
X134666069Y-82683961D01*
X134687695Y-82689635D01*
X134774425Y-82730478D01*
X134806836Y-82812549D01*
X134803224Y-82974622D01*
X134785053Y-83226299D01*
X135036729Y-83208127D01*
X135070745Y-83205814D01*
X135216937Y-83206937D01*
X135289501Y-83247067D01*
X135327160Y-83344368D01*
X135329634Y-83354269D01*
X135353366Y-83471348D01*
X135347481Y-83556297D01*
X135296900Y-83614261D01*
X135186546Y-83650387D01*
X135001339Y-83669820D01*
X134726201Y-83677706D01*
X134346054Y-83679191D01*
X134270876Y-83679091D01*
X133873058Y-83673905D01*
X133587112Y-83660506D01*
X133406171Y-83638411D01*
X133323366Y-83607135D01*
X133300668Y-83569174D01*
X133267675Y-83423760D01*
X133253449Y-83223918D01*
X133257988Y-83012910D01*
X133281294Y-82833998D01*
X133323366Y-82730444D01*
X133333997Y-82720415D01*
X133479736Y-82658107D01*
X133631999Y-82689152D01*
G37*
G36*
X134358519Y-97133411D02*
G01*
X134577408Y-97154375D01*
X134712790Y-97210017D01*
X134784081Y-97316768D01*
X134810697Y-97491057D01*
X134812054Y-97749315D01*
X134808962Y-97949942D01*
X134807375Y-98155614D01*
X134811583Y-98272886D01*
X134824147Y-98320598D01*
X134847631Y-98317586D01*
X134884595Y-98282690D01*
X134944953Y-98243152D01*
X135082751Y-98210633D01*
X135166883Y-98221618D01*
X135302565Y-98313913D01*
X135352964Y-98480846D01*
X135350635Y-98535797D01*
X135327044Y-98618980D01*
X135264653Y-98677670D01*
X135147216Y-98716045D01*
X134958483Y-98738283D01*
X134682206Y-98748561D01*
X134302136Y-98751059D01*
X134297026Y-98751058D01*
X133889577Y-98746716D01*
X133595636Y-98733564D01*
X133408975Y-98711146D01*
X133323366Y-98679002D01*
X133315778Y-98670999D01*
X133255892Y-98532652D01*
X133275161Y-98381092D01*
X133367456Y-98272793D01*
X133398973Y-98259189D01*
X133557076Y-98226413D01*
X133764206Y-98212841D01*
X133978398Y-98218006D01*
X134157685Y-98241445D01*
X134260103Y-98282690D01*
X134288488Y-98310790D01*
X134318762Y-98327463D01*
X134334343Y-98289271D01*
X134340916Y-98174478D01*
X134344169Y-97961350D01*
X134348173Y-97652019D01*
X133870081Y-97664657D01*
X133704537Y-97666031D01*
X133463721Y-97646456D01*
X133320481Y-97591582D01*
X133261628Y-97494401D01*
X133273970Y-97347903D01*
X133313751Y-97257854D01*
X133395009Y-97194666D01*
X133536781Y-97155942D01*
X133758827Y-97136361D01*
X134080907Y-97130602D01*
X134358519Y-97133411D01*
G37*
G36*
X133628169Y-99071773D02*
G01*
X133710967Y-99143959D01*
X133726411Y-99179456D01*
X133768854Y-99203656D01*
X133852127Y-99141054D01*
X133857399Y-99136419D01*
X133958168Y-99084133D01*
X134119445Y-99061237D01*
X134370122Y-99063402D01*
X134782515Y-99081319D01*
X134799521Y-99797110D01*
X134800441Y-99837550D01*
X134803366Y-100157440D01*
X134794981Y-100374574D01*
X134774084Y-100504256D01*
X134739473Y-100561793D01*
X134700163Y-100576523D01*
X134551292Y-100598111D01*
X134334238Y-100609999D01*
X134080349Y-100612659D01*
X133820970Y-100606565D01*
X133765265Y-100603135D01*
X133587448Y-100592186D01*
X133411131Y-100569997D01*
X133323366Y-100540468D01*
X133316102Y-100531353D01*
X133280505Y-100408744D01*
X133258708Y-100173633D01*
X133257794Y-100131433D01*
X133694884Y-100131433D01*
X133765265Y-100150536D01*
X133906453Y-100115795D01*
X134050119Y-100084546D01*
X134188199Y-100096176D01*
X134208401Y-100103931D01*
X134290209Y-100128609D01*
X134331592Y-100105114D01*
X134346323Y-100009473D01*
X134348173Y-99817714D01*
X134348173Y-99503282D01*
X134121812Y-99522784D01*
X133945191Y-99516572D01*
X133844513Y-99461921D01*
X133824734Y-99448126D01*
X133801381Y-99514360D01*
X133792654Y-99684794D01*
X133788690Y-99791501D01*
X133766217Y-99957299D01*
X133730686Y-100049081D01*
X133715103Y-100065998D01*
X133694884Y-100131433D01*
X133257794Y-100131433D01*
X133251309Y-99831910D01*
X133251519Y-99767540D01*
X133261369Y-99443250D01*
X133285518Y-99226557D01*
X133323366Y-99123352D01*
X133358512Y-99095748D01*
X133492318Y-99054726D01*
X133628169Y-99071773D01*
G37*
G36*
X134019113Y-107408424D02*
G01*
X134175252Y-107439059D01*
X134249806Y-107486395D01*
X134259731Y-107510242D01*
X134300187Y-107542902D01*
X134375565Y-107483135D01*
X134470983Y-107428672D01*
X134624934Y-107409619D01*
X134782515Y-107427891D01*
X134799521Y-108143682D01*
X134800441Y-108184122D01*
X134803366Y-108504012D01*
X134794981Y-108721146D01*
X134774084Y-108850828D01*
X134739473Y-108908366D01*
X134700246Y-108926331D01*
X134543272Y-108955176D01*
X134337658Y-108961457D01*
X134286115Y-108957997D01*
X134125369Y-108947205D01*
X133948372Y-108914453D01*
X133848633Y-108865232D01*
X133825642Y-108838350D01*
X133768500Y-108802303D01*
X133745690Y-108830841D01*
X133718202Y-108865232D01*
X133710209Y-108877737D01*
X133599752Y-108946165D01*
X133451284Y-108950344D01*
X133323366Y-108887040D01*
X133316102Y-108877925D01*
X133280505Y-108755316D01*
X133258708Y-108520205D01*
X133256813Y-108432674D01*
X134237234Y-108432674D01*
X134266984Y-108505572D01*
X134286115Y-108513597D01*
X134359014Y-108483847D01*
X134367039Y-108464716D01*
X134337289Y-108391817D01*
X134318158Y-108383792D01*
X134245259Y-108413543D01*
X134237234Y-108432674D01*
X133256813Y-108432674D01*
X133251309Y-108178482D01*
X133251519Y-108114113D01*
X133258258Y-107892248D01*
X133696808Y-107892248D01*
X133726559Y-107965147D01*
X133745690Y-107973172D01*
X133818588Y-107943422D01*
X133826613Y-107924291D01*
X133796863Y-107851392D01*
X133777732Y-107843367D01*
X133704833Y-107873117D01*
X133696808Y-107892248D01*
X133258258Y-107892248D01*
X133261369Y-107789822D01*
X133285518Y-107573129D01*
X133323366Y-107469924D01*
X133327401Y-107466199D01*
X133435533Y-107423377D01*
X133611819Y-107399917D01*
X133818824Y-107395155D01*
X134019113Y-107408424D01*
G37*
G36*
X134245477Y-105478950D02*
G01*
X134479840Y-105495714D01*
X134658067Y-105523398D01*
X134748382Y-105561474D01*
X134782309Y-105653775D01*
X134804485Y-105853063D01*
X134807291Y-106133440D01*
X134806035Y-106201357D01*
X134807635Y-106421748D01*
X134817511Y-106584645D01*
X134834071Y-106658801D01*
X134849026Y-106668228D01*
X134872586Y-106627261D01*
X134872770Y-106623453D01*
X134927349Y-106574340D01*
X135045868Y-106559096D01*
X135179873Y-106577483D01*
X135280907Y-106629262D01*
X135288495Y-106637266D01*
X135348381Y-106775612D01*
X135329112Y-106927173D01*
X135236817Y-107035471D01*
X135220873Y-107041746D01*
X135092528Y-107063726D01*
X134876102Y-107081464D01*
X134596931Y-107093315D01*
X134280349Y-107097631D01*
X134260792Y-107097626D01*
X133916547Y-107094985D01*
X133672152Y-107086171D01*
X133508367Y-107069242D01*
X133405953Y-107042256D01*
X133345669Y-107003271D01*
X133291794Y-106929849D01*
X133251309Y-106800458D01*
X133251684Y-106783978D01*
X133288157Y-106670601D01*
X133395226Y-106599826D01*
X133588514Y-106565774D01*
X133883649Y-106562568D01*
X134343835Y-106576004D01*
X134354314Y-106261441D01*
X134354839Y-106141238D01*
X134342742Y-105989517D01*
X134318453Y-105918237D01*
X134303373Y-105912395D01*
X134272113Y-105953189D01*
X134254024Y-105974431D01*
X134147794Y-106001414D01*
X133976137Y-106015213D01*
X133773461Y-106016137D01*
X133574170Y-106004492D01*
X133412669Y-105980585D01*
X133323366Y-105944723D01*
X133315778Y-105936720D01*
X133255892Y-105798373D01*
X133275161Y-105646813D01*
X133367456Y-105538514D01*
X133382191Y-105531661D01*
X133523335Y-105499461D01*
X133735448Y-105480295D01*
X133986754Y-105473634D01*
X134245477Y-105478950D01*
G37*
G36*
X134100565Y-85913926D02*
G01*
X134782515Y-85930964D01*
X134799362Y-86664939D01*
X134816209Y-87398913D01*
X134654124Y-87439594D01*
X134652367Y-87440033D01*
X134503941Y-87444313D01*
X134388685Y-87352637D01*
X134322347Y-87275134D01*
X134318326Y-87274056D01*
X134281860Y-87264279D01*
X134254319Y-87343585D01*
X134227216Y-87402424D01*
X134161610Y-87440549D01*
X134031581Y-87457998D01*
X133809366Y-87462170D01*
X133745690Y-87459846D01*
X133609787Y-87454885D01*
X133422578Y-87429406D01*
X133323366Y-87390113D01*
X133301964Y-87350646D01*
X133271686Y-87203487D01*
X133253500Y-86986962D01*
X133252221Y-86935747D01*
X133696808Y-86935747D01*
X133726559Y-87008646D01*
X133745690Y-87016671D01*
X133818588Y-86986920D01*
X133826613Y-86967789D01*
X133800753Y-86904423D01*
X133796863Y-86894891D01*
X133777732Y-86886866D01*
X133704833Y-86916616D01*
X133696808Y-86935747D01*
X133252221Y-86935747D01*
X133247149Y-86732569D01*
X133252376Y-86471809D01*
X133256885Y-86407609D01*
X133696397Y-86407609D01*
X133747360Y-86488588D01*
X133800753Y-86515466D01*
X133893462Y-86471494D01*
X133896003Y-86468710D01*
X133918983Y-86418624D01*
X134195438Y-86418624D01*
X134239838Y-86518205D01*
X134274456Y-86563669D01*
X134318326Y-86587052D01*
X134349177Y-86502872D01*
X134359716Y-86426568D01*
X134338668Y-86355317D01*
X134319206Y-86348748D01*
X134229329Y-86370650D01*
X134195438Y-86418624D01*
X133918983Y-86418624D01*
X133926380Y-86402503D01*
X133848486Y-86363059D01*
X133743408Y-86358367D01*
X133696397Y-86407609D01*
X133256885Y-86407609D01*
X133268925Y-86236180D01*
X133296540Y-86057181D01*
X133334963Y-85966314D01*
X133347979Y-85957896D01*
X133482948Y-85926518D01*
X133734473Y-85911816D01*
X134100565Y-85913926D01*
G37*
G36*
X134241670Y-103615956D02*
G01*
X134477299Y-103632505D01*
X134656298Y-103660119D01*
X134747165Y-103698542D01*
X134755583Y-103711559D01*
X134786961Y-103846527D01*
X134801663Y-104098053D01*
X134799553Y-104464145D01*
X134782515Y-105146094D01*
X134605334Y-105166258D01*
X134480915Y-105162160D01*
X134357235Y-105089434D01*
X134339716Y-105066063D01*
X134310976Y-105043064D01*
X134287951Y-105024638D01*
X134251075Y-105084282D01*
X134249677Y-105087427D01*
X134168999Y-105135402D01*
X134008874Y-105166362D01*
X133806774Y-105179507D01*
X133745690Y-105177890D01*
X133600174Y-105174038D01*
X133426546Y-105149155D01*
X133323366Y-105104061D01*
X133316102Y-105094947D01*
X133280505Y-104972337D01*
X133258708Y-104737226D01*
X133256813Y-104649695D01*
X133696808Y-104649695D01*
X133726559Y-104722594D01*
X133745690Y-104730619D01*
X133818588Y-104700868D01*
X133826613Y-104681737D01*
X133808065Y-104636288D01*
X133796863Y-104608839D01*
X133777732Y-104600814D01*
X133704833Y-104630564D01*
X133696808Y-104649695D01*
X133256813Y-104649695D01*
X133251309Y-104395503D01*
X133251519Y-104331134D01*
X133257728Y-104126716D01*
X133702275Y-104126716D01*
X133757026Y-104211474D01*
X133808065Y-104241691D01*
X133875798Y-104225081D01*
X133881194Y-104183912D01*
X133874019Y-104172805D01*
X134207860Y-104172805D01*
X134241985Y-104257042D01*
X134244769Y-104259583D01*
X134310976Y-104289960D01*
X134350420Y-104212066D01*
X134359262Y-104140184D01*
X134333327Y-104065964D01*
X134302854Y-104055007D01*
X134236173Y-104088677D01*
X134207860Y-104172805D01*
X133874019Y-104172805D01*
X133826443Y-104099155D01*
X133775404Y-104068938D01*
X133707671Y-104085547D01*
X133702275Y-104126716D01*
X133257728Y-104126716D01*
X133261369Y-104006844D01*
X133285518Y-103790151D01*
X133323366Y-103686945D01*
X133362833Y-103665544D01*
X133509992Y-103635266D01*
X133726517Y-103617080D01*
X133980910Y-103610729D01*
X134241670Y-103615956D01*
G37*
G36*
X134233094Y-89626778D02*
G01*
X134468344Y-89639845D01*
X134648191Y-89662972D01*
X134740482Y-89695929D01*
X134750238Y-89709152D01*
X134784663Y-89839406D01*
X134805523Y-90085459D01*
X134812538Y-90444407D01*
X134812467Y-90522840D01*
X134809585Y-90794662D01*
X134799804Y-90974218D01*
X134779460Y-91084090D01*
X134744894Y-91146857D01*
X134692444Y-91185102D01*
X134640816Y-91203991D01*
X134502865Y-91202449D01*
X134383217Y-91149731D01*
X134332160Y-91062894D01*
X134332158Y-91062561D01*
X134304865Y-91058574D01*
X134296653Y-91057375D01*
X134212065Y-91125054D01*
X134170522Y-91156934D01*
X133997604Y-91220510D01*
X133791734Y-91246061D01*
X133774238Y-91248232D01*
X133548248Y-91236818D01*
X133367456Y-91182989D01*
X133355687Y-91176348D01*
X133308906Y-91134652D01*
X133278530Y-91061864D01*
X133261106Y-90935740D01*
X133253183Y-90734037D01*
X133252790Y-90671156D01*
X133731687Y-90671156D01*
X133739036Y-90715894D01*
X133791734Y-90764771D01*
X133805981Y-90763153D01*
X133851782Y-90708267D01*
X133849491Y-90691420D01*
X133811244Y-90640584D01*
X133791734Y-90614652D01*
X133760798Y-90609003D01*
X133731687Y-90671156D01*
X133252790Y-90671156D01*
X133251309Y-90434510D01*
X133251367Y-90364936D01*
X133253438Y-90160754D01*
X133731687Y-90160754D01*
X133746022Y-90210883D01*
X133811244Y-90258939D01*
X133876024Y-90233700D01*
X133880832Y-90224733D01*
X133877825Y-90204502D01*
X134188685Y-90204502D01*
X134237612Y-90280677D01*
X134304865Y-90312295D01*
X134357140Y-90245860D01*
X134370532Y-90186260D01*
X134349140Y-90099230D01*
X134312105Y-90087665D01*
X134229613Y-90134046D01*
X134188685Y-90204502D01*
X133877825Y-90204502D01*
X133868748Y-90143421D01*
X133781727Y-90104250D01*
X133771976Y-90105335D01*
X133731687Y-90160754D01*
X133253438Y-90160754D01*
X133254186Y-90086998D01*
X133263753Y-89902382D01*
X133283519Y-89788845D01*
X133316936Y-89724143D01*
X133367456Y-89686032D01*
X133381144Y-89679761D01*
X133516466Y-89650264D01*
X133725001Y-89631756D01*
X133974595Y-89624005D01*
X134233094Y-89626778D01*
G37*
G36*
X134233094Y-95271223D02*
G01*
X134468344Y-95284289D01*
X134648191Y-95307416D01*
X134740482Y-95340373D01*
X134750238Y-95353596D01*
X134784663Y-95483851D01*
X134805523Y-95729903D01*
X134812538Y-96088852D01*
X134812467Y-96167285D01*
X134809585Y-96439106D01*
X134799804Y-96618663D01*
X134779460Y-96728534D01*
X134744894Y-96791302D01*
X134692444Y-96829546D01*
X134640816Y-96848436D01*
X134502865Y-96846893D01*
X134383217Y-96794175D01*
X134332160Y-96707339D01*
X134332158Y-96707005D01*
X134304865Y-96703018D01*
X134296653Y-96701819D01*
X134212065Y-96769499D01*
X134170522Y-96801378D01*
X133997604Y-96864955D01*
X133791734Y-96890505D01*
X133774238Y-96892676D01*
X133548248Y-96881263D01*
X133367456Y-96827433D01*
X133355687Y-96820792D01*
X133308906Y-96779096D01*
X133278530Y-96706308D01*
X133261106Y-96580184D01*
X133253183Y-96378481D01*
X133252790Y-96315600D01*
X133731687Y-96315600D01*
X133739036Y-96360339D01*
X133791734Y-96409215D01*
X133805981Y-96407598D01*
X133851782Y-96352712D01*
X133849491Y-96335865D01*
X133811244Y-96285029D01*
X133791734Y-96259097D01*
X133760798Y-96253448D01*
X133731687Y-96315600D01*
X133252790Y-96315600D01*
X133251309Y-96078955D01*
X133251367Y-96009381D01*
X133253438Y-95805198D01*
X133731687Y-95805198D01*
X133746022Y-95855328D01*
X133811244Y-95903384D01*
X133876024Y-95878144D01*
X133880832Y-95869178D01*
X133877825Y-95848947D01*
X134188685Y-95848947D01*
X134237612Y-95925121D01*
X134304865Y-95956739D01*
X134357140Y-95890305D01*
X134370532Y-95830705D01*
X134349140Y-95743674D01*
X134312105Y-95732110D01*
X134229613Y-95778490D01*
X134188685Y-95848947D01*
X133877825Y-95848947D01*
X133868748Y-95787866D01*
X133781727Y-95748695D01*
X133771976Y-95749779D01*
X133731687Y-95805198D01*
X133253438Y-95805198D01*
X133254186Y-95731443D01*
X133263753Y-95546827D01*
X133283519Y-95433290D01*
X133316936Y-95368587D01*
X133367456Y-95330477D01*
X133381144Y-95324205D01*
X133516466Y-95294709D01*
X133725001Y-95276201D01*
X133974595Y-95268449D01*
X134233094Y-95271223D01*
G37*
G36*
X134227131Y-87763306D02*
G01*
X134464689Y-87776477D01*
X134646443Y-87800196D01*
X134740482Y-87834463D01*
X134773522Y-87907969D01*
X134801950Y-88080181D01*
X134812538Y-88311858D01*
X134811671Y-88412158D01*
X134799056Y-88605566D01*
X134766432Y-88718258D01*
X134707456Y-88778401D01*
X134693081Y-88787442D01*
X134678759Y-88818788D01*
X134759023Y-88835675D01*
X134946501Y-88841432D01*
X135107910Y-88844814D01*
X135233470Y-88862817D01*
X135296196Y-88908026D01*
X135328272Y-88993241D01*
X135330210Y-89000995D01*
X135353728Y-89117046D01*
X135347689Y-89201318D01*
X135297006Y-89258887D01*
X135186589Y-89294828D01*
X135001350Y-89314216D01*
X134726202Y-89322127D01*
X134346054Y-89323636D01*
X134270876Y-89323536D01*
X133884218Y-89318495D01*
X133873058Y-89318349D01*
X133587112Y-89304950D01*
X133406171Y-89282855D01*
X133323366Y-89251579D01*
X133316102Y-89242464D01*
X133280505Y-89119855D01*
X133258708Y-88884744D01*
X133257473Y-88827694D01*
X133691655Y-88827694D01*
X133743464Y-88854102D01*
X133884218Y-88861222D01*
X134129180Y-88852596D01*
X134235995Y-88846377D01*
X134399242Y-88829334D01*
X134459984Y-88805695D01*
X134430446Y-88772199D01*
X134428181Y-88770911D01*
X134350684Y-88673523D01*
X134333772Y-88492648D01*
X134339459Y-88330000D01*
X134333999Y-88219365D01*
X134309401Y-88192879D01*
X134260103Y-88230775D01*
X134197869Y-88269100D01*
X134055670Y-88299425D01*
X133910909Y-88290809D01*
X133821153Y-88241805D01*
X133804148Y-88222911D01*
X133722306Y-88218559D01*
X133696032Y-88245591D01*
X133726455Y-88321619D01*
X133768190Y-88399661D01*
X133791734Y-88543021D01*
X133777438Y-88657434D01*
X133730686Y-88760192D01*
X133713527Y-88778461D01*
X133691655Y-88827694D01*
X133257473Y-88827694D01*
X133251309Y-88543021D01*
X133251519Y-88478652D01*
X133261369Y-88154361D01*
X133285518Y-87937668D01*
X133323366Y-87834463D01*
X133357149Y-87816110D01*
X133498780Y-87787087D01*
X133712263Y-87768611D01*
X133965685Y-87760684D01*
X134227131Y-87763306D01*
G37*
G36*
X133962009Y-93412785D02*
G01*
X134146134Y-93439211D01*
X134243579Y-93491997D01*
X134272113Y-93576754D01*
X134273218Y-93600523D01*
X134298080Y-93621041D01*
X134365589Y-93540306D01*
X134455680Y-93450485D01*
X134601934Y-93410709D01*
X134740482Y-93478908D01*
X134773522Y-93552413D01*
X134801950Y-93724625D01*
X134812538Y-93956302D01*
X134811671Y-94056603D01*
X134799056Y-94250011D01*
X134766432Y-94362702D01*
X134707456Y-94422845D01*
X134693081Y-94431887D01*
X134678759Y-94463233D01*
X134759023Y-94480119D01*
X134946501Y-94485876D01*
X135107910Y-94489259D01*
X135233470Y-94507261D01*
X135296196Y-94552471D01*
X135328272Y-94637686D01*
X135330210Y-94645439D01*
X135353728Y-94761490D01*
X135347689Y-94845762D01*
X135297006Y-94903331D01*
X135186589Y-94939272D01*
X135001350Y-94958660D01*
X134726202Y-94966571D01*
X134346054Y-94968080D01*
X134286115Y-94968000D01*
X134270876Y-94967980D01*
X133873058Y-94962794D01*
X133587112Y-94949395D01*
X133406171Y-94927299D01*
X133323366Y-94896023D01*
X133289307Y-94856077D01*
X133246272Y-94719765D01*
X133298552Y-94598218D01*
X133428021Y-94516049D01*
X133616555Y-94497871D01*
X133807706Y-94517726D01*
X133806745Y-94441657D01*
X134237234Y-94441657D01*
X134266984Y-94514556D01*
X134286115Y-94522581D01*
X134359014Y-94492831D01*
X134367039Y-94473700D01*
X134337289Y-94400801D01*
X134318158Y-94392776D01*
X134286115Y-94405853D01*
X134245259Y-94422526D01*
X134237234Y-94441657D01*
X133806745Y-94441657D01*
X133803724Y-94202477D01*
X133801953Y-94082520D01*
X133798703Y-93926565D01*
X133797724Y-93901232D01*
X134237234Y-93901232D01*
X134266984Y-93974130D01*
X134286115Y-93982155D01*
X134359014Y-93952405D01*
X134367039Y-93933274D01*
X134337289Y-93860375D01*
X134318158Y-93852350D01*
X134245259Y-93882101D01*
X134237234Y-93901232D01*
X133797724Y-93901232D01*
X133795738Y-93849853D01*
X133776662Y-93842026D01*
X133702443Y-93886582D01*
X133652542Y-93917253D01*
X133501739Y-93931772D01*
X133359805Y-93865400D01*
X133275542Y-93735417D01*
X133262512Y-93607055D01*
X133321657Y-93491248D01*
X133475665Y-93426804D01*
X133734129Y-93406851D01*
X133962009Y-93412785D01*
G37*
G36*
X130217706Y-97757829D02*
G01*
X130217706Y-97966026D01*
X124180001Y-97966026D01*
X118142296Y-97966026D01*
X118142296Y-97757829D01*
X118142296Y-97549632D01*
X124180001Y-97549632D01*
X130217706Y-97549632D01*
X130217706Y-97757829D01*
G37*
G36*
X129332870Y-99787747D02*
G01*
X129332870Y-101271148D01*
X128487071Y-101271148D01*
X127641271Y-101271148D01*
X127641271Y-100516435D01*
X127641271Y-99761722D01*
X124037259Y-99761722D01*
X120433246Y-99761722D01*
X120426347Y-100522942D01*
X120419448Y-101284161D01*
X119580155Y-101291027D01*
X118740862Y-101297894D01*
X118740862Y-99801120D01*
X118740862Y-98304345D01*
X124036866Y-98304345D01*
X129332870Y-98304345D01*
X129332870Y-99787747D01*
G37*
G36*
X127184899Y-93289966D02*
G01*
X127248867Y-93316549D01*
X127339941Y-93357507D01*
X127447499Y-93408187D01*
X127506556Y-93437144D01*
X127861531Y-93638107D01*
X128177386Y-93867673D01*
X128456567Y-94128733D01*
X128701518Y-94424178D01*
X128914686Y-94756900D01*
X129098517Y-95129790D01*
X129255455Y-95545739D01*
X129303911Y-95710669D01*
X129357718Y-95934052D01*
X129407245Y-96179935D01*
X129450093Y-96433931D01*
X129483865Y-96681650D01*
X129506164Y-96908705D01*
X129514591Y-97100708D01*
X129515042Y-97211312D01*
X128634025Y-97211312D01*
X127753007Y-97211312D01*
X127736581Y-97016991D01*
X127724446Y-96896157D01*
X127662372Y-96537848D01*
X127563321Y-96215138D01*
X127425930Y-95925930D01*
X127248837Y-95668128D01*
X127030679Y-95439636D01*
X126770093Y-95238357D01*
X126465716Y-95062195D01*
X126416959Y-95036838D01*
X126322450Y-94981919D01*
X126256242Y-94934939D01*
X126228007Y-94902402D01*
X126222037Y-94876633D01*
X126212938Y-94820171D01*
X126213073Y-94818410D01*
X126228855Y-94782263D01*
X126267960Y-94709868D01*
X126326550Y-94607456D01*
X126400789Y-94481259D01*
X126486841Y-94337509D01*
X126580868Y-94182439D01*
X126679035Y-94022279D01*
X126777504Y-93863262D01*
X126872438Y-93711620D01*
X126960002Y-93573585D01*
X127036359Y-93455388D01*
X127097671Y-93363262D01*
X127140102Y-93303438D01*
X127159817Y-93282148D01*
X127184899Y-93289966D01*
G37*
G36*
X121777973Y-93167490D02*
G01*
X121805375Y-93219059D01*
X121852055Y-93307742D01*
X121915150Y-93428074D01*
X121991796Y-93574593D01*
X122079130Y-93741833D01*
X122174288Y-93924332D01*
X122225028Y-94021999D01*
X122335842Y-94238030D01*
X122423005Y-94412683D01*
X122487852Y-94548815D01*
X122531716Y-94649285D01*
X122555931Y-94716950D01*
X122561832Y-94754667D01*
X122560926Y-94761529D01*
X122551745Y-94792419D01*
X122528645Y-94817743D01*
X122482634Y-94842606D01*
X122404722Y-94872114D01*
X122285918Y-94911375D01*
X122207785Y-94937487D01*
X121864681Y-95077990D01*
X121564575Y-95247429D01*
X121306466Y-95447016D01*
X121089353Y-95677964D01*
X120912233Y-95941487D01*
X120774105Y-96238797D01*
X120673967Y-96571108D01*
X120610818Y-96939631D01*
X120579237Y-97211312D01*
X119695070Y-97211312D01*
X118810903Y-97211312D01*
X118827065Y-96892430D01*
X118848259Y-96638521D01*
X118886411Y-96358937D01*
X118937956Y-96076234D01*
X118999540Y-95808765D01*
X119067810Y-95574885D01*
X119127197Y-95409118D01*
X119304791Y-95014209D01*
X119522268Y-94652576D01*
X119779780Y-94324063D01*
X120077477Y-94028509D01*
X120415511Y-93765759D01*
X120794034Y-93535653D01*
X121213198Y-93338034D01*
X121216570Y-93336643D01*
X121339476Y-93288099D01*
X121463416Y-93242676D01*
X121578506Y-93203585D01*
X121674864Y-93174041D01*
X121742604Y-93157256D01*
X121771843Y-93156442D01*
X121777973Y-93167490D01*
G37*
%TD*%
M02*
