%TF.GenerationSoftware,KiCad,Pcbnew,9.0.6*%
%TF.CreationDate,2025-12-14T17:15:15-06:00*%
%TF.ProjectId,PCB,5043422e-6b69-4636-9164-5f7063625858,rev?*%
%TF.SameCoordinates,Original*%
%TF.FileFunction,Copper,L3,Inr*%
%TF.FilePolarity,Positive*%
%FSLAX46Y46*%
G04 Gerber Fmt 4.6, Leading zero omitted, Abs format (unit mm)*
G04 Created by KiCad (PCBNEW 9.0.6) date 2025-12-14 17:15:15*
%MOMM*%
%LPD*%
G01*
G04 APERTURE LIST*
%TA.AperFunction,ComponentPad*%
%ADD10R,1.700000X1.700000*%
%TD*%
%TA.AperFunction,ComponentPad*%
%ADD11C,1.700000*%
%TD*%
%TA.AperFunction,HeatsinkPad*%
%ADD12O,1.000000X2.100000*%
%TD*%
%TA.AperFunction,HeatsinkPad*%
%ADD13O,1.000000X1.800000*%
%TD*%
%TA.AperFunction,ViaPad*%
%ADD14C,0.604799*%
%TD*%
%TA.AperFunction,Conductor*%
%ADD15C,0.152400*%
%TD*%
%TA.AperFunction,Conductor*%
%ADD16C,0.381000*%
%TD*%
%TA.AperFunction,Conductor*%
%ADD17C,0.228600*%
%TD*%
%TA.AperFunction,Conductor*%
%ADD18C,0.254000*%
%TD*%
G04 APERTURE END LIST*
D10*
%TO.N,/3V3*%
%TO.C,J1*%
X115010000Y-66110000D03*
D11*
%TO.N,/GPIO0*%
X115010000Y-68650000D03*
%TO.N,/GPIO1*%
X115010000Y-71190000D03*
%TO.N,/GPIO2*%
X115010000Y-73730000D03*
%TO.N,/GPIO3*%
X115010000Y-76270000D03*
%TO.N,/GPIO4*%
X115010000Y-78810000D03*
%TO.N,/GPIO5*%
X115010000Y-81350000D03*
%TO.N,/GPIO6*%
X115010000Y-83890000D03*
%TO.N,/GPIO7*%
X115010000Y-86430000D03*
%TO.N,/GPIO8*%
X115010000Y-88970000D03*
%TO.N,/GPIO9*%
X115010000Y-91510000D03*
%TO.N,/GPIO10*%
X115010000Y-94050000D03*
%TO.N,/GPIO11*%
X115010000Y-96590000D03*
%TO.N,/GPIO12*%
X115010000Y-99130000D03*
%TO.N,/GPIO13*%
X115010000Y-101670000D03*
%TO.N,/GPIO14*%
X115010000Y-104210000D03*
%TO.N,/GPIO15*%
X115010000Y-106750000D03*
%TO.N,/GPIO16*%
X115010000Y-109290000D03*
%TO.N,/I2C_SCL*%
X115010000Y-111830000D03*
%TO.N,/I2C_SDA*%
X115010000Y-114370000D03*
%TO.N,/5VUSB*%
X115010000Y-116910000D03*
%TO.N,GND*%
X115010000Y-119450000D03*
%TD*%
D12*
%TO.N,GND*%
%TO.C,JUSB1*%
X122040000Y-120700000D03*
D13*
X122040000Y-124880000D03*
D12*
X130680000Y-120700000D03*
D13*
X130680000Y-124880000D03*
%TD*%
D10*
%TO.N,GND*%
%TO.C,J3*%
X137870000Y-66110000D03*
D11*
%TO.N,/ESP32_EN*%
X137870000Y-68650000D03*
%TO.N,/GPIO46*%
X137870000Y-71190000D03*
%TO.N,/GPIO45*%
X137870000Y-73730000D03*
%TO.N,/RXD*%
X137870000Y-76270000D03*
%TO.N,/TXD*%
X137870000Y-78810000D03*
%TO.N,/GPIO42*%
X137870000Y-81350000D03*
%TO.N,/GPIO41*%
X137870000Y-83890000D03*
%TO.N,/GPIO40*%
X137870000Y-86430000D03*
%TO.N,/GPIO39*%
X137870000Y-88970000D03*
%TO.N,/GPIO38*%
X137870000Y-91510000D03*
%TO.N,/GPIO37*%
X137870000Y-94050000D03*
%TO.N,/GPIO36*%
X137870000Y-96590000D03*
%TO.N,/GPIO35*%
X137870000Y-99130000D03*
%TO.N,/GPIO34*%
X137870000Y-101670000D03*
%TO.N,/GPIO33*%
X137870000Y-104210000D03*
%TO.N,/GPIO26*%
X137870000Y-106750000D03*
%TO.N,/GPIO21*%
X137870000Y-109290000D03*
%TO.N,unconnected-(J3-Pin_19-Pad19)*%
X137870000Y-111830000D03*
%TO.N,unconnected-(J3-Pin_20-Pad20)*%
X137870000Y-114370000D03*
%TO.N,/GPIO48*%
X137870000Y-116910000D03*
%TO.N,/GPIO47*%
X137870000Y-119450000D03*
%TD*%
D14*
%TO.N,GND*%
X131699000Y-125222000D03*
X131826000Y-69215000D03*
X125494838Y-115834299D03*
X129413000Y-82423000D03*
X127635000Y-66675000D03*
X127635000Y-75819000D03*
X123698000Y-113665000D03*
X129286000Y-66675000D03*
X130980094Y-66589335D03*
X131826000Y-66548000D03*
X122682000Y-72644000D03*
X120142000Y-66675000D03*
X131826000Y-85471000D03*
X121031000Y-66675000D03*
X133985000Y-90932000D03*
X117729000Y-65659000D03*
X117221000Y-113665000D03*
X124968000Y-66675000D03*
X122555000Y-66675000D03*
X125158500Y-90614500D03*
X121500000Y-92840000D03*
X120269000Y-67564000D03*
X127508000Y-69596000D03*
X121385600Y-96292401D03*
X128905000Y-72390000D03*
X130810000Y-112649000D03*
X125857000Y-69596000D03*
X134740000Y-65760000D03*
X120015000Y-121285000D03*
X125857000Y-66675000D03*
X135763000Y-113792000D03*
X128397000Y-66675000D03*
X123952000Y-75692000D03*
X132080000Y-87757000D03*
X123317000Y-66675000D03*
X123190000Y-70104000D03*
X135763000Y-123444000D03*
X124206000Y-66675000D03*
X130048000Y-66675000D03*
X131190294Y-82423708D03*
X120100000Y-78470000D03*
X121031000Y-84455000D03*
X130302000Y-85471000D03*
X121793000Y-66675000D03*
X125984000Y-75819000D03*
X131826000Y-68326000D03*
X135890000Y-66040000D03*
X120904000Y-124968000D03*
X131826000Y-120904000D03*
X126746000Y-66675000D03*
%TO.N,/3V3*%
X119888000Y-92456000D03*
X127762000Y-83693000D03*
X124587000Y-83693000D03*
X123698000Y-97790000D03*
X129921000Y-81407000D03*
X134620000Y-81915000D03*
X117602000Y-83693000D03*
X117348000Y-66675000D03*
X127381000Y-112395000D03*
%TO.N,/ESP32_EN*%
X131064000Y-78613000D03*
X132969000Y-117983000D03*
X127127000Y-80899000D03*
X129676639Y-91186000D03*
%TO.N,/GPIO0*%
X123825000Y-116332000D03*
X124206000Y-77851000D03*
%TO.N,/5VUSB*%
X128760000Y-119126000D03*
X123317000Y-117729000D03*
X133063419Y-84283274D03*
X124841000Y-115189000D03*
X123317000Y-118618000D03*
%TO.N,/GPIO48*%
X131846000Y-79629000D03*
X125476000Y-99060000D03*
X125622100Y-85344000D03*
X128540000Y-106960000D03*
X125159501Y-88519000D03*
X125476000Y-94361000D03*
%TO.N,/GPIO16*%
X117348000Y-108204000D03*
X124841000Y-82550000D03*
%TO.N,/GPIO13*%
X122399715Y-81531769D03*
X116735999Y-96139000D03*
%TO.N,/I2C_SDA*%
X125603000Y-81661000D03*
X125476000Y-92456000D03*
%TO.N,/GPIO15*%
X123466999Y-82296000D03*
X118110000Y-104648000D03*
%TO.N,/I2C_SCL*%
X119761000Y-96266000D03*
X124333000Y-81534000D03*
%TO.N,/GPIO14*%
X118237000Y-101219000D03*
X122855999Y-82931000D03*
%TO.N,/GPIO33*%
X132334000Y-95504000D03*
X129910122Y-80217002D03*
%TO.N,/GPIO26*%
X130937000Y-97917000D03*
X128397000Y-78613000D03*
%TO.N,/GPIO21*%
X127508000Y-77978000D03*
X130429000Y-93472000D03*
%TO.N,/GPIO47*%
X128270000Y-100076000D03*
X127508000Y-88265000D03*
%TO.N,/GPIO35*%
X134926368Y-84963000D03*
X134366000Y-80137000D03*
%TO.N,/GPIO34*%
X134239000Y-95123000D03*
X131252727Y-81279000D03*
%TO.N,/USB_N*%
X126640999Y-121285000D03*
X125604401Y-121283765D03*
%TO.N,/USB_P*%
X126106465Y-121821307D03*
X127184401Y-121775149D03*
%TD*%
D15*
%TO.N,/3V3*%
X121539000Y-99949000D02*
X120880001Y-99290001D01*
X120880001Y-93448001D02*
X119888000Y-92456000D01*
D16*
X118110000Y-83693000D02*
X117348000Y-82931000D01*
X124587000Y-83693000D02*
X118110000Y-83693000D01*
D15*
X123698000Y-97790000D02*
X121539000Y-99949000D01*
D16*
X127762000Y-83693000D02*
X124587000Y-83693000D01*
X118110000Y-83693000D02*
X117602000Y-83693000D01*
X117348000Y-82931000D02*
X117348000Y-66675000D01*
D15*
X120880001Y-99290001D02*
X120880001Y-93448001D01*
D16*
%TO.N,/5VUSB*%
X124841000Y-115189000D02*
X125603109Y-115189000D01*
D17*
X124587000Y-118999000D02*
X123317000Y-117729000D01*
D16*
X133063419Y-107728690D02*
X133063419Y-84283274D01*
D18*
X123317000Y-118618000D02*
X123317000Y-117729000D01*
D17*
X128615000Y-118999000D02*
X124587000Y-118999000D01*
D16*
X125603109Y-115189000D02*
X133063419Y-107728690D01*
%TD*%
%TA.AperFunction,Conductor*%
%TO.N,GND*%
G36*
X136444868Y-65148993D02*
G01*
X136493186Y-65166626D01*
X136518869Y-65211196D01*
X136520000Y-65224192D01*
X136520000Y-65860000D01*
X137436988Y-65860000D01*
X137404075Y-65917007D01*
X137370000Y-66044174D01*
X137370000Y-66175826D01*
X137404075Y-66302993D01*
X137436988Y-66360000D01*
X136520000Y-66360000D01*
X136520000Y-67007831D01*
X136526401Y-67067374D01*
X136526402Y-67067377D01*
X136576648Y-67202090D01*
X136576649Y-67202092D01*
X136662810Y-67317189D01*
X136777907Y-67403350D01*
X136777909Y-67403351D01*
X136912622Y-67453597D01*
X136912625Y-67453598D01*
X136972168Y-67459999D01*
X136972180Y-67460000D01*
X137620000Y-67460000D01*
X137620000Y-66543012D01*
X137677007Y-66575925D01*
X137804174Y-66610000D01*
X137935826Y-66610000D01*
X138062993Y-66575925D01*
X138120000Y-66543012D01*
X138120000Y-67460000D01*
X138740675Y-67460000D01*
X138789013Y-67477593D01*
X138814733Y-67522142D01*
X138815875Y-67535046D01*
X138816760Y-67967980D01*
X138799265Y-68016354D01*
X138754770Y-68042165D01*
X138704093Y-68033336D01*
X138679033Y-68009912D01*
X138668734Y-67994498D01*
X138668728Y-67994491D01*
X138525508Y-67851271D01*
X138525505Y-67851269D01*
X138525503Y-67851267D01*
X138357083Y-67738732D01*
X138357081Y-67738731D01*
X138169947Y-67661218D01*
X138169946Y-67661217D01*
X137971280Y-67621700D01*
X137971279Y-67621700D01*
X137768721Y-67621700D01*
X137768720Y-67621700D01*
X137570053Y-67661217D01*
X137570052Y-67661218D01*
X137382918Y-67738731D01*
X137214494Y-67851269D01*
X137214491Y-67851271D01*
X137071271Y-67994491D01*
X137071269Y-67994494D01*
X136958731Y-68162918D01*
X136881218Y-68350052D01*
X136881217Y-68350053D01*
X136841700Y-68548720D01*
X136841700Y-68751279D01*
X136881217Y-68949946D01*
X136881218Y-68949947D01*
X136958732Y-69137083D01*
X137071267Y-69305503D01*
X137071268Y-69305504D01*
X137071269Y-69305505D01*
X137071271Y-69305508D01*
X137214491Y-69448728D01*
X137214494Y-69448730D01*
X137214497Y-69448733D01*
X137382917Y-69561268D01*
X137570052Y-69638781D01*
X137570053Y-69638782D01*
X137570054Y-69638782D01*
X137570056Y-69638783D01*
X137703095Y-69665246D01*
X137768720Y-69678300D01*
X137768721Y-69678300D01*
X137971280Y-69678300D01*
X138020609Y-69668487D01*
X138169944Y-69638783D01*
X138357083Y-69561268D01*
X138525503Y-69448733D01*
X138668733Y-69305503D01*
X138681814Y-69285925D01*
X138723294Y-69255509D01*
X138774624Y-69258871D01*
X138811784Y-69294441D01*
X138819540Y-69327550D01*
X138821970Y-70515777D01*
X138804475Y-70564151D01*
X138759980Y-70589962D01*
X138709303Y-70581133D01*
X138684243Y-70557710D01*
X138679338Y-70550369D01*
X138668733Y-70534497D01*
X138668730Y-70534494D01*
X138668728Y-70534491D01*
X138525508Y-70391271D01*
X138525505Y-70391269D01*
X138525503Y-70391267D01*
X138357083Y-70278732D01*
X138357081Y-70278731D01*
X138169947Y-70201218D01*
X138169946Y-70201217D01*
X137971280Y-70161700D01*
X137971279Y-70161700D01*
X137768721Y-70161700D01*
X137768720Y-70161700D01*
X137570053Y-70201217D01*
X137570052Y-70201218D01*
X137382918Y-70278731D01*
X137214494Y-70391269D01*
X137214491Y-70391271D01*
X137071271Y-70534491D01*
X137071269Y-70534494D01*
X136958731Y-70702918D01*
X136881218Y-70890052D01*
X136881217Y-70890053D01*
X136841700Y-71088720D01*
X136841700Y-71291279D01*
X136881217Y-71489946D01*
X136881218Y-71489947D01*
X136958732Y-71677083D01*
X137071267Y-71845503D01*
X137071269Y-71845505D01*
X137071271Y-71845508D01*
X137214491Y-71988728D01*
X137214494Y-71988730D01*
X137214497Y-71988733D01*
X137382917Y-72101268D01*
X137570052Y-72178781D01*
X137570053Y-72178782D01*
X137570054Y-72178782D01*
X137570056Y-72178783D01*
X137703095Y-72205246D01*
X137768720Y-72218300D01*
X137768721Y-72218300D01*
X137971280Y-72218300D01*
X138020609Y-72208487D01*
X138169944Y-72178783D01*
X138357083Y-72101268D01*
X138525503Y-71988733D01*
X138668733Y-71845503D01*
X138686992Y-71818175D01*
X138728473Y-71787760D01*
X138779803Y-71791123D01*
X138816962Y-71826693D01*
X138824718Y-71859801D01*
X138827180Y-73063574D01*
X138809685Y-73111948D01*
X138765190Y-73137759D01*
X138714513Y-73128930D01*
X138689454Y-73105507D01*
X138668736Y-73074500D01*
X138668728Y-73074491D01*
X138525508Y-72931271D01*
X138525505Y-72931269D01*
X138525503Y-72931267D01*
X138357083Y-72818732D01*
X138357081Y-72818731D01*
X138169947Y-72741218D01*
X138169946Y-72741217D01*
X137971280Y-72701700D01*
X137971279Y-72701700D01*
X137768721Y-72701700D01*
X137768720Y-72701700D01*
X137570053Y-72741217D01*
X137570052Y-72741218D01*
X137382918Y-72818731D01*
X137214494Y-72931269D01*
X137214491Y-72931271D01*
X137071271Y-73074491D01*
X137071269Y-73074494D01*
X136958731Y-73242918D01*
X136881218Y-73430052D01*
X136881217Y-73430053D01*
X136841700Y-73628720D01*
X136841700Y-73831279D01*
X136881217Y-74029946D01*
X136881218Y-74029947D01*
X136958732Y-74217083D01*
X137071267Y-74385503D01*
X137071269Y-74385505D01*
X137071271Y-74385508D01*
X137214491Y-74528728D01*
X137214494Y-74528730D01*
X137214497Y-74528733D01*
X137382917Y-74641268D01*
X137570052Y-74718781D01*
X137570053Y-74718782D01*
X137570054Y-74718782D01*
X137570056Y-74718783D01*
X137703095Y-74745246D01*
X137768720Y-74758300D01*
X137768721Y-74758300D01*
X137971280Y-74758300D01*
X138020609Y-74748487D01*
X138169944Y-74718783D01*
X138357083Y-74641268D01*
X138525503Y-74528733D01*
X138668733Y-74385503D01*
X138692170Y-74350426D01*
X138733653Y-74320009D01*
X138784983Y-74323373D01*
X138822142Y-74358944D01*
X138829897Y-74392051D01*
X138832390Y-75611372D01*
X138814895Y-75659746D01*
X138770400Y-75685557D01*
X138719723Y-75676728D01*
X138694665Y-75653306D01*
X138668733Y-75614497D01*
X138668732Y-75614496D01*
X138668730Y-75614493D01*
X138525508Y-75471271D01*
X138525505Y-75471269D01*
X138525503Y-75471267D01*
X138357083Y-75358732D01*
X138357081Y-75358731D01*
X138169947Y-75281218D01*
X138169946Y-75281217D01*
X137971280Y-75241700D01*
X137971279Y-75241700D01*
X137768721Y-75241700D01*
X137768720Y-75241700D01*
X137570053Y-75281217D01*
X137570052Y-75281218D01*
X137382918Y-75358731D01*
X137214494Y-75471269D01*
X137214491Y-75471271D01*
X137071271Y-75614491D01*
X137071269Y-75614494D01*
X136958731Y-75782918D01*
X136881218Y-75970052D01*
X136881217Y-75970053D01*
X136841700Y-76168720D01*
X136841700Y-76371279D01*
X136881217Y-76569946D01*
X136881218Y-76569947D01*
X136958732Y-76757083D01*
X137071267Y-76925503D01*
X137071269Y-76925505D01*
X137071271Y-76925508D01*
X137214491Y-77068728D01*
X137214494Y-77068730D01*
X137214497Y-77068733D01*
X137382917Y-77181268D01*
X137570052Y-77258781D01*
X137570053Y-77258782D01*
X137570054Y-77258782D01*
X137570056Y-77258783D01*
X137703095Y-77285246D01*
X137768720Y-77298300D01*
X137768721Y-77298300D01*
X137971280Y-77298300D01*
X138020609Y-77288487D01*
X138169944Y-77258783D01*
X138357083Y-77181268D01*
X138525503Y-77068733D01*
X138668733Y-76925503D01*
X138697348Y-76882676D01*
X138738831Y-76852259D01*
X138790161Y-76855623D01*
X138827319Y-76891194D01*
X138835075Y-76924301D01*
X138837600Y-78159170D01*
X138820105Y-78207544D01*
X138775610Y-78233355D01*
X138724933Y-78224526D01*
X138699874Y-78201103D01*
X138674778Y-78163544D01*
X138668734Y-78154498D01*
X138668728Y-78154491D01*
X138525508Y-78011271D01*
X138525505Y-78011269D01*
X138525503Y-78011267D01*
X138357083Y-77898732D01*
X138357081Y-77898731D01*
X138169947Y-77821218D01*
X138169946Y-77821217D01*
X137971280Y-77781700D01*
X137971279Y-77781700D01*
X137768721Y-77781700D01*
X137768720Y-77781700D01*
X137570053Y-77821217D01*
X137570052Y-77821218D01*
X137382918Y-77898731D01*
X137214494Y-78011269D01*
X137214491Y-78011271D01*
X137071271Y-78154491D01*
X137071269Y-78154494D01*
X136958731Y-78322918D01*
X136881218Y-78510052D01*
X136881217Y-78510053D01*
X136841700Y-78708720D01*
X136841700Y-78911279D01*
X136881217Y-79109946D01*
X136881218Y-79109947D01*
X136958731Y-79297081D01*
X136958732Y-79297083D01*
X137071267Y-79465503D01*
X137071269Y-79465505D01*
X137071271Y-79465508D01*
X137214491Y-79608728D01*
X137214494Y-79608730D01*
X137214497Y-79608733D01*
X137382917Y-79721268D01*
X137570052Y-79798781D01*
X137570053Y-79798782D01*
X137570054Y-79798782D01*
X137570056Y-79798783D01*
X137703095Y-79825246D01*
X137768720Y-79838300D01*
X137768721Y-79838300D01*
X137971280Y-79838300D01*
X138020609Y-79828487D01*
X138169944Y-79798783D01*
X138357083Y-79721268D01*
X138525503Y-79608733D01*
X138668733Y-79465503D01*
X138702528Y-79414925D01*
X138744010Y-79384508D01*
X138795340Y-79387872D01*
X138832498Y-79423443D01*
X138840254Y-79456550D01*
X138842811Y-80706967D01*
X138825316Y-80755341D01*
X138780821Y-80781152D01*
X138730144Y-80772323D01*
X138705085Y-80748900D01*
X138668736Y-80694500D01*
X138668728Y-80694491D01*
X138525508Y-80551271D01*
X138525505Y-80551269D01*
X138525503Y-80551267D01*
X138357083Y-80438732D01*
X138341207Y-80432156D01*
X138169947Y-80361218D01*
X138169946Y-80361217D01*
X137971280Y-80321700D01*
X137971279Y-80321700D01*
X137768721Y-80321700D01*
X137768720Y-80321700D01*
X137570053Y-80361217D01*
X137570052Y-80361218D01*
X137382918Y-80438731D01*
X137214494Y-80551269D01*
X137214491Y-80551271D01*
X137071271Y-80694491D01*
X137071269Y-80694494D01*
X136958731Y-80862918D01*
X136881218Y-81050052D01*
X136881217Y-81050053D01*
X136841700Y-81248720D01*
X136841700Y-81451279D01*
X136881217Y-81649946D01*
X136881218Y-81649947D01*
X136955450Y-81829160D01*
X136958732Y-81837083D01*
X137071267Y-82005503D01*
X137071269Y-82005505D01*
X137071271Y-82005508D01*
X137214491Y-82148728D01*
X137214494Y-82148730D01*
X137214497Y-82148733D01*
X137382917Y-82261268D01*
X137570052Y-82338781D01*
X137570053Y-82338782D01*
X137570054Y-82338782D01*
X137570056Y-82338783D01*
X137691496Y-82362939D01*
X137768720Y-82378300D01*
X137768721Y-82378300D01*
X137971280Y-82378300D01*
X138020609Y-82368487D01*
X138169944Y-82338783D01*
X138357083Y-82261268D01*
X138525503Y-82148733D01*
X138668733Y-82005503D01*
X138707706Y-81947174D01*
X138749188Y-81916759D01*
X138800518Y-81920123D01*
X138837677Y-81955695D01*
X138845432Y-81988801D01*
X138848021Y-83254765D01*
X138830526Y-83303139D01*
X138786031Y-83328950D01*
X138735354Y-83320121D01*
X138710295Y-83296699D01*
X138668733Y-83234497D01*
X138668730Y-83234494D01*
X138668728Y-83234491D01*
X138525508Y-83091271D01*
X138525505Y-83091269D01*
X138525503Y-83091267D01*
X138357083Y-82978732D01*
X138357081Y-82978731D01*
X138169947Y-82901218D01*
X138169946Y-82901217D01*
X137971280Y-82861700D01*
X137971279Y-82861700D01*
X137768721Y-82861700D01*
X137768720Y-82861700D01*
X137570053Y-82901217D01*
X137570052Y-82901218D01*
X137382918Y-82978731D01*
X137214494Y-83091269D01*
X137214491Y-83091271D01*
X137071271Y-83234491D01*
X137071269Y-83234494D01*
X136958731Y-83402918D01*
X136881218Y-83590052D01*
X136881217Y-83590053D01*
X136841700Y-83788720D01*
X136841700Y-83991279D01*
X136881217Y-84189946D01*
X136881218Y-84189947D01*
X136958731Y-84377081D01*
X136958732Y-84377083D01*
X137071267Y-84545503D01*
X137071269Y-84545505D01*
X137071271Y-84545508D01*
X137214491Y-84688728D01*
X137214494Y-84688730D01*
X137214497Y-84688733D01*
X137382917Y-84801268D01*
X137570052Y-84878781D01*
X137570053Y-84878782D01*
X137570054Y-84878782D01*
X137570056Y-84878783D01*
X137703095Y-84905246D01*
X137768720Y-84918300D01*
X137768721Y-84918300D01*
X137971280Y-84918300D01*
X138020609Y-84908487D01*
X138169944Y-84878783D01*
X138357083Y-84801268D01*
X138525503Y-84688733D01*
X138668733Y-84545503D01*
X138712884Y-84479425D01*
X138754366Y-84449009D01*
X138805696Y-84452373D01*
X138842855Y-84487944D01*
X138850610Y-84521051D01*
X138853231Y-85802562D01*
X138835736Y-85850936D01*
X138791241Y-85876747D01*
X138740564Y-85867918D01*
X138715505Y-85844495D01*
X138668736Y-85774500D01*
X138668728Y-85774491D01*
X138525508Y-85631271D01*
X138525505Y-85631269D01*
X138525503Y-85631267D01*
X138357083Y-85518732D01*
X138357081Y-85518731D01*
X138169947Y-85441218D01*
X138169946Y-85441217D01*
X137971280Y-85401700D01*
X137971279Y-85401700D01*
X137768721Y-85401700D01*
X137768720Y-85401700D01*
X137570053Y-85441217D01*
X137570052Y-85441218D01*
X137382918Y-85518731D01*
X137214494Y-85631269D01*
X137214491Y-85631271D01*
X137071271Y-85774491D01*
X137071269Y-85774494D01*
X136958731Y-85942918D01*
X136881218Y-86130052D01*
X136881217Y-86130053D01*
X136841700Y-86328720D01*
X136841700Y-86531279D01*
X136881217Y-86729946D01*
X136881218Y-86729947D01*
X136958732Y-86917083D01*
X137071267Y-87085503D01*
X137071269Y-87085505D01*
X137071271Y-87085508D01*
X137214491Y-87228728D01*
X137214494Y-87228730D01*
X137214497Y-87228733D01*
X137382917Y-87341268D01*
X137570052Y-87418781D01*
X137570053Y-87418782D01*
X137570054Y-87418782D01*
X137570056Y-87418783D01*
X137703095Y-87445246D01*
X137768720Y-87458300D01*
X137768721Y-87458300D01*
X137971280Y-87458300D01*
X138020609Y-87448487D01*
X138169944Y-87418783D01*
X138357083Y-87341268D01*
X138525503Y-87228733D01*
X138668733Y-87085503D01*
X138718063Y-87011674D01*
X138759545Y-86981258D01*
X138810875Y-86984622D01*
X138848034Y-87020193D01*
X138855789Y-87053300D01*
X138858441Y-88350360D01*
X138840946Y-88398734D01*
X138796451Y-88424545D01*
X138745774Y-88415716D01*
X138720716Y-88392294D01*
X138668733Y-88314497D01*
X138668730Y-88314494D01*
X138668728Y-88314491D01*
X138525508Y-88171271D01*
X138525505Y-88171269D01*
X138525503Y-88171267D01*
X138357083Y-88058732D01*
X138307758Y-88038301D01*
X138169947Y-87981218D01*
X138169946Y-87981217D01*
X137971280Y-87941700D01*
X137971279Y-87941700D01*
X137768721Y-87941700D01*
X137768720Y-87941700D01*
X137570053Y-87981217D01*
X137570052Y-87981218D01*
X137382918Y-88058731D01*
X137214494Y-88171269D01*
X137214491Y-88171271D01*
X137071271Y-88314491D01*
X137071269Y-88314494D01*
X136958731Y-88482918D01*
X136881218Y-88670052D01*
X136881217Y-88670053D01*
X136841700Y-88868720D01*
X136841700Y-89071279D01*
X136881217Y-89269946D01*
X136881218Y-89269947D01*
X136958732Y-89457083D01*
X137071267Y-89625503D01*
X137071269Y-89625505D01*
X137071271Y-89625508D01*
X137214491Y-89768728D01*
X137214494Y-89768730D01*
X137214497Y-89768733D01*
X137382917Y-89881268D01*
X137570052Y-89958781D01*
X137570053Y-89958782D01*
X137570054Y-89958782D01*
X137570056Y-89958783D01*
X137703095Y-89985246D01*
X137768720Y-89998300D01*
X137768721Y-89998300D01*
X137971280Y-89998300D01*
X138020609Y-89988487D01*
X138169944Y-89958783D01*
X138357083Y-89881268D01*
X138525503Y-89768733D01*
X138668733Y-89625503D01*
X138723242Y-89543923D01*
X138764725Y-89513508D01*
X138816054Y-89516872D01*
X138853213Y-89552444D01*
X138860968Y-89585550D01*
X138863652Y-90898158D01*
X138846157Y-90946532D01*
X138801662Y-90972343D01*
X138750985Y-90963514D01*
X138725926Y-90940091D01*
X138668736Y-90854500D01*
X138668728Y-90854491D01*
X138525508Y-90711271D01*
X138525505Y-90711269D01*
X138525503Y-90711267D01*
X138357083Y-90598732D01*
X138357081Y-90598731D01*
X138169947Y-90521218D01*
X138169946Y-90521217D01*
X137971280Y-90481700D01*
X137971279Y-90481700D01*
X137768721Y-90481700D01*
X137768720Y-90481700D01*
X137570053Y-90521217D01*
X137570052Y-90521218D01*
X137382918Y-90598731D01*
X137214494Y-90711269D01*
X137214491Y-90711271D01*
X137071271Y-90854491D01*
X137071269Y-90854494D01*
X136958731Y-91022918D01*
X136881218Y-91210052D01*
X136881217Y-91210053D01*
X136841700Y-91408720D01*
X136841700Y-91611279D01*
X136881217Y-91809946D01*
X136881218Y-91809947D01*
X136958731Y-91997081D01*
X136958732Y-91997083D01*
X137071267Y-92165503D01*
X137071269Y-92165505D01*
X137071271Y-92165508D01*
X137214491Y-92308728D01*
X137214494Y-92308730D01*
X137214497Y-92308733D01*
X137382917Y-92421268D01*
X137570052Y-92498781D01*
X137570053Y-92498782D01*
X137570054Y-92498782D01*
X137570056Y-92498783D01*
X137690199Y-92522681D01*
X137768720Y-92538300D01*
X137768721Y-92538300D01*
X137971280Y-92538300D01*
X138020609Y-92528487D01*
X138169944Y-92498783D01*
X138357083Y-92421268D01*
X138525503Y-92308733D01*
X138668733Y-92165503D01*
X138728420Y-92076175D01*
X138769903Y-92045759D01*
X138821233Y-92049124D01*
X138858391Y-92084695D01*
X138866146Y-92117801D01*
X138868861Y-93445955D01*
X138851366Y-93494329D01*
X138806871Y-93520140D01*
X138756194Y-93511311D01*
X138731136Y-93487890D01*
X138668733Y-93394497D01*
X138668732Y-93394496D01*
X138668730Y-93394493D01*
X138525508Y-93251271D01*
X138525505Y-93251269D01*
X138525503Y-93251267D01*
X138357083Y-93138732D01*
X138357081Y-93138731D01*
X138169947Y-93061218D01*
X138169946Y-93061217D01*
X137971280Y-93021700D01*
X137971279Y-93021700D01*
X137768721Y-93021700D01*
X137768720Y-93021700D01*
X137570053Y-93061217D01*
X137570052Y-93061218D01*
X137382918Y-93138731D01*
X137214494Y-93251269D01*
X137214491Y-93251271D01*
X137071271Y-93394491D01*
X137071269Y-93394494D01*
X136958731Y-93562918D01*
X136881218Y-93750052D01*
X136881217Y-93750053D01*
X136841700Y-93948720D01*
X136841700Y-94151279D01*
X136881217Y-94349946D01*
X136881218Y-94349947D01*
X136912010Y-94424285D01*
X136958732Y-94537083D01*
X137071267Y-94705503D01*
X137071269Y-94705505D01*
X137071271Y-94705508D01*
X137214491Y-94848728D01*
X137214494Y-94848730D01*
X137214497Y-94848733D01*
X137382917Y-94961268D01*
X137570052Y-95038781D01*
X137570053Y-95038782D01*
X137570054Y-95038782D01*
X137570056Y-95038783D01*
X137703095Y-95065246D01*
X137768720Y-95078300D01*
X137768721Y-95078300D01*
X137971280Y-95078300D01*
X138020609Y-95068487D01*
X138169944Y-95038783D01*
X138357083Y-94961268D01*
X138525503Y-94848733D01*
X138668733Y-94705503D01*
X138733598Y-94608424D01*
X138775081Y-94578009D01*
X138826410Y-94581373D01*
X138863569Y-94616945D01*
X138871324Y-94650051D01*
X138874071Y-95993752D01*
X138856576Y-96042126D01*
X138812081Y-96067937D01*
X138761404Y-96059108D01*
X138736346Y-96035687D01*
X138668733Y-95934497D01*
X138668730Y-95934494D01*
X138668728Y-95934491D01*
X138525508Y-95791271D01*
X138525505Y-95791269D01*
X138525503Y-95791267D01*
X138357083Y-95678732D01*
X138307758Y-95658301D01*
X138169947Y-95601218D01*
X138169946Y-95601217D01*
X137971280Y-95561700D01*
X137971279Y-95561700D01*
X137768721Y-95561700D01*
X137768720Y-95561700D01*
X137570053Y-95601217D01*
X137570052Y-95601218D01*
X137382918Y-95678731D01*
X137214494Y-95791269D01*
X137214491Y-95791271D01*
X137071271Y-95934491D01*
X137071269Y-95934494D01*
X136958731Y-96102918D01*
X136881218Y-96290052D01*
X136881217Y-96290053D01*
X136841700Y-96488720D01*
X136841700Y-96691279D01*
X136881217Y-96889946D01*
X136881218Y-96889947D01*
X136958732Y-97077083D01*
X137071267Y-97245503D01*
X137071269Y-97245505D01*
X137071271Y-97245508D01*
X137214491Y-97388728D01*
X137214494Y-97388730D01*
X137214497Y-97388733D01*
X137382917Y-97501268D01*
X137570052Y-97578781D01*
X137570053Y-97578782D01*
X137570054Y-97578782D01*
X137570056Y-97578783D01*
X137699118Y-97604455D01*
X137768720Y-97618300D01*
X137768721Y-97618300D01*
X137971280Y-97618300D01*
X138040882Y-97604455D01*
X138169944Y-97578783D01*
X138357083Y-97501268D01*
X138525503Y-97388733D01*
X138668733Y-97245503D01*
X138738778Y-97140673D01*
X138780260Y-97110258D01*
X138831589Y-97113622D01*
X138868748Y-97149194D01*
X138876503Y-97182300D01*
X138879282Y-98541551D01*
X138861787Y-98589925D01*
X138817292Y-98615736D01*
X138766615Y-98606907D01*
X138741557Y-98583486D01*
X138668733Y-98474497D01*
X138668730Y-98474494D01*
X138668728Y-98474491D01*
X138525508Y-98331271D01*
X138525505Y-98331269D01*
X138525503Y-98331267D01*
X138357083Y-98218732D01*
X138341207Y-98212156D01*
X138169947Y-98141218D01*
X138169946Y-98141217D01*
X137971280Y-98101700D01*
X137971279Y-98101700D01*
X137768721Y-98101700D01*
X137768720Y-98101700D01*
X137570053Y-98141217D01*
X137570052Y-98141218D01*
X137382918Y-98218731D01*
X137214494Y-98331269D01*
X137214491Y-98331271D01*
X137071271Y-98474491D01*
X137071269Y-98474494D01*
X136958731Y-98642918D01*
X136881218Y-98830052D01*
X136881217Y-98830053D01*
X136841700Y-99028720D01*
X136841700Y-99231279D01*
X136881217Y-99429946D01*
X136881218Y-99429947D01*
X136954254Y-99606273D01*
X136958732Y-99617083D01*
X137071267Y-99785503D01*
X137071269Y-99785505D01*
X137071271Y-99785508D01*
X137214491Y-99928728D01*
X137214494Y-99928730D01*
X137214497Y-99928733D01*
X137382917Y-100041268D01*
X137570052Y-100118781D01*
X137570053Y-100118782D01*
X137570054Y-100118782D01*
X137570056Y-100118783D01*
X137703095Y-100145246D01*
X137768720Y-100158300D01*
X137768721Y-100158300D01*
X137971280Y-100158300D01*
X138020609Y-100148487D01*
X138169944Y-100118783D01*
X138357083Y-100041268D01*
X138525503Y-99928733D01*
X138668733Y-99785503D01*
X138743955Y-99672924D01*
X138785438Y-99642509D01*
X138836767Y-99645874D01*
X138873926Y-99681445D01*
X138881681Y-99714551D01*
X138884492Y-101089348D01*
X138866997Y-101137722D01*
X138822502Y-101163533D01*
X138771825Y-101154704D01*
X138746767Y-101131283D01*
X138668733Y-101014497D01*
X138668730Y-101014494D01*
X138668728Y-101014491D01*
X138525508Y-100871271D01*
X138525505Y-100871269D01*
X138525503Y-100871267D01*
X138357083Y-100758732D01*
X138307758Y-100738301D01*
X138169947Y-100681218D01*
X138169946Y-100681217D01*
X137971280Y-100641700D01*
X137971279Y-100641700D01*
X137768721Y-100641700D01*
X137768720Y-100641700D01*
X137570053Y-100681217D01*
X137570052Y-100681218D01*
X137382918Y-100758731D01*
X137214494Y-100871269D01*
X137214491Y-100871271D01*
X137071271Y-101014491D01*
X137071269Y-101014494D01*
X136958731Y-101182918D01*
X136881218Y-101370052D01*
X136881217Y-101370053D01*
X136841700Y-101568720D01*
X136841700Y-101771279D01*
X136881217Y-101969946D01*
X136881218Y-101969947D01*
X136958732Y-102157083D01*
X137071267Y-102325503D01*
X137071269Y-102325505D01*
X137071271Y-102325508D01*
X137214491Y-102468728D01*
X137214494Y-102468730D01*
X137214497Y-102468733D01*
X137382917Y-102581268D01*
X137570052Y-102658781D01*
X137570053Y-102658782D01*
X137570054Y-102658782D01*
X137570056Y-102658783D01*
X137703095Y-102685246D01*
X137768720Y-102698300D01*
X137768721Y-102698300D01*
X137971280Y-102698300D01*
X138020609Y-102688487D01*
X138169944Y-102658783D01*
X138357083Y-102581268D01*
X138525503Y-102468733D01*
X138668733Y-102325503D01*
X138749134Y-102205173D01*
X138790617Y-102174758D01*
X138841946Y-102178123D01*
X138879105Y-102213694D01*
X138886860Y-102246800D01*
X138889703Y-103637146D01*
X138872208Y-103685520D01*
X138827713Y-103711331D01*
X138777036Y-103702502D01*
X138751977Y-103679079D01*
X138668736Y-103554500D01*
X138668728Y-103554491D01*
X138525508Y-103411271D01*
X138525505Y-103411269D01*
X138525503Y-103411267D01*
X138357083Y-103298732D01*
X138357081Y-103298731D01*
X138169947Y-103221218D01*
X138169946Y-103221217D01*
X137971280Y-103181700D01*
X137971279Y-103181700D01*
X137768721Y-103181700D01*
X137768720Y-103181700D01*
X137570053Y-103221217D01*
X137570052Y-103221218D01*
X137382918Y-103298731D01*
X137214494Y-103411269D01*
X137214491Y-103411271D01*
X137071271Y-103554491D01*
X137071269Y-103554494D01*
X136958731Y-103722918D01*
X136881218Y-103910052D01*
X136881217Y-103910053D01*
X136841700Y-104108720D01*
X136841700Y-104311279D01*
X136881217Y-104509946D01*
X136881218Y-104509947D01*
X136958731Y-104697081D01*
X136958732Y-104697083D01*
X137071267Y-104865503D01*
X137071269Y-104865505D01*
X137071271Y-104865508D01*
X137214491Y-105008728D01*
X137214494Y-105008730D01*
X137214497Y-105008733D01*
X137382917Y-105121268D01*
X137570052Y-105198781D01*
X137570053Y-105198782D01*
X137570054Y-105198782D01*
X137570056Y-105198783D01*
X137703095Y-105225246D01*
X137768720Y-105238300D01*
X137768721Y-105238300D01*
X137971280Y-105238300D01*
X138020609Y-105228487D01*
X138169944Y-105198783D01*
X138357083Y-105121268D01*
X138525503Y-105008733D01*
X138668733Y-104865503D01*
X138754313Y-104737423D01*
X138795795Y-104707008D01*
X138847124Y-104710372D01*
X138884283Y-104745944D01*
X138892038Y-104779050D01*
X138894912Y-106184943D01*
X138877417Y-106233317D01*
X138832922Y-106259128D01*
X138782245Y-106250299D01*
X138757187Y-106226878D01*
X138668733Y-106094497D01*
X138668730Y-106094494D01*
X138668728Y-106094491D01*
X138525508Y-105951271D01*
X138525505Y-105951269D01*
X138525503Y-105951267D01*
X138357083Y-105838732D01*
X138357081Y-105838731D01*
X138169947Y-105761218D01*
X138169946Y-105761217D01*
X137971280Y-105721700D01*
X137971279Y-105721700D01*
X137768721Y-105721700D01*
X137768720Y-105721700D01*
X137570053Y-105761217D01*
X137570052Y-105761218D01*
X137382918Y-105838731D01*
X137214494Y-105951269D01*
X137214491Y-105951271D01*
X137071271Y-106094491D01*
X137071269Y-106094494D01*
X136958731Y-106262918D01*
X136881218Y-106450052D01*
X136881217Y-106450053D01*
X136841700Y-106648720D01*
X136841700Y-106851279D01*
X136881217Y-107049946D01*
X136881218Y-107049947D01*
X136944627Y-107203030D01*
X136958732Y-107237083D01*
X137071267Y-107405503D01*
X137071269Y-107405505D01*
X137071271Y-107405508D01*
X137214491Y-107548728D01*
X137214494Y-107548730D01*
X137214497Y-107548733D01*
X137382917Y-107661268D01*
X137570052Y-107738781D01*
X137570053Y-107738782D01*
X137570054Y-107738782D01*
X137570056Y-107738783D01*
X137703095Y-107765246D01*
X137768720Y-107778300D01*
X137768721Y-107778300D01*
X137971280Y-107778300D01*
X138020609Y-107768487D01*
X138169944Y-107738783D01*
X138357083Y-107661268D01*
X138525503Y-107548733D01*
X138668733Y-107405503D01*
X138759492Y-107269672D01*
X138800974Y-107239257D01*
X138852303Y-107242621D01*
X138889462Y-107278193D01*
X138897217Y-107311299D01*
X138900124Y-108732742D01*
X138882629Y-108781116D01*
X138838134Y-108806927D01*
X138787457Y-108798098D01*
X138762398Y-108774675D01*
X138668736Y-108634500D01*
X138668728Y-108634491D01*
X138525508Y-108491271D01*
X138525505Y-108491269D01*
X138525503Y-108491267D01*
X138357083Y-108378732D01*
X138357081Y-108378731D01*
X138169947Y-108301218D01*
X138169946Y-108301217D01*
X137971280Y-108261700D01*
X137971279Y-108261700D01*
X137768721Y-108261700D01*
X137768720Y-108261700D01*
X137570053Y-108301217D01*
X137570052Y-108301218D01*
X137382918Y-108378731D01*
X137214494Y-108491269D01*
X137214491Y-108491271D01*
X137071271Y-108634491D01*
X137071269Y-108634494D01*
X136958731Y-108802918D01*
X136881218Y-108990052D01*
X136881217Y-108990053D01*
X136841700Y-109188720D01*
X136841700Y-109391279D01*
X136881217Y-109589946D01*
X136881218Y-109589947D01*
X136958732Y-109777083D01*
X137071267Y-109945503D01*
X137071269Y-109945505D01*
X137071271Y-109945508D01*
X137214491Y-110088728D01*
X137214494Y-110088730D01*
X137214497Y-110088733D01*
X137382917Y-110201268D01*
X137570052Y-110278781D01*
X137570053Y-110278782D01*
X137570054Y-110278782D01*
X137570056Y-110278783D01*
X137703095Y-110305246D01*
X137768720Y-110318300D01*
X137768721Y-110318300D01*
X137971280Y-110318300D01*
X138020609Y-110308487D01*
X138169944Y-110278783D01*
X138357083Y-110201268D01*
X138525503Y-110088733D01*
X138668733Y-109945503D01*
X138764671Y-109801921D01*
X138806151Y-109771507D01*
X138857481Y-109774871D01*
X138894640Y-109810443D01*
X138902395Y-109843549D01*
X138905334Y-111280540D01*
X138887839Y-111328914D01*
X138843344Y-111354725D01*
X138792667Y-111345896D01*
X138767608Y-111322474D01*
X138668733Y-111174497D01*
X138668730Y-111174494D01*
X138668728Y-111174491D01*
X138525508Y-111031271D01*
X138525505Y-111031269D01*
X138525503Y-111031267D01*
X138357083Y-110918732D01*
X138357081Y-110918731D01*
X138169947Y-110841218D01*
X138169946Y-110841217D01*
X137971280Y-110801700D01*
X137971279Y-110801700D01*
X137768721Y-110801700D01*
X137768720Y-110801700D01*
X137570053Y-110841217D01*
X137570052Y-110841218D01*
X137382918Y-110918731D01*
X137214494Y-111031269D01*
X137214491Y-111031271D01*
X137071271Y-111174491D01*
X137071269Y-111174494D01*
X136958731Y-111342918D01*
X136881218Y-111530052D01*
X136881217Y-111530053D01*
X136841700Y-111728720D01*
X136841700Y-111931279D01*
X136881217Y-112129946D01*
X136881218Y-112129947D01*
X136958732Y-112317083D01*
X137071267Y-112485503D01*
X137071269Y-112485505D01*
X137071271Y-112485508D01*
X137214491Y-112628728D01*
X137214494Y-112628730D01*
X137214497Y-112628733D01*
X137382917Y-112741268D01*
X137570052Y-112818781D01*
X137570053Y-112818782D01*
X137570054Y-112818782D01*
X137570056Y-112818783D01*
X137691496Y-112842939D01*
X137768720Y-112858300D01*
X137768721Y-112858300D01*
X137971280Y-112858300D01*
X138020609Y-112848487D01*
X138169944Y-112818783D01*
X138357083Y-112741268D01*
X138525503Y-112628733D01*
X138668733Y-112485503D01*
X138769849Y-112334172D01*
X138811331Y-112303757D01*
X138862660Y-112307122D01*
X138899819Y-112342693D01*
X138907574Y-112375799D01*
X138910544Y-113828337D01*
X138893049Y-113876711D01*
X138848554Y-113902522D01*
X138797877Y-113893693D01*
X138772818Y-113870270D01*
X138668736Y-113714500D01*
X138668728Y-113714491D01*
X138525508Y-113571271D01*
X138525505Y-113571269D01*
X138525503Y-113571267D01*
X138357083Y-113458732D01*
X138357081Y-113458731D01*
X138169947Y-113381218D01*
X138169946Y-113381217D01*
X137971280Y-113341700D01*
X137971279Y-113341700D01*
X137768721Y-113341700D01*
X137768720Y-113341700D01*
X137570053Y-113381217D01*
X137570052Y-113381218D01*
X137382918Y-113458731D01*
X137214494Y-113571269D01*
X137214491Y-113571271D01*
X137071271Y-113714491D01*
X137071269Y-113714494D01*
X136958731Y-113882918D01*
X136881218Y-114070052D01*
X136881217Y-114070053D01*
X136841700Y-114268720D01*
X136841700Y-114471279D01*
X136881217Y-114669946D01*
X136881218Y-114669947D01*
X136949006Y-114833602D01*
X136958732Y-114857083D01*
X137071267Y-115025503D01*
X137071269Y-115025505D01*
X137071271Y-115025508D01*
X137214491Y-115168728D01*
X137214494Y-115168730D01*
X137214497Y-115168733D01*
X137382917Y-115281268D01*
X137570052Y-115358781D01*
X137570053Y-115358782D01*
X137570054Y-115358782D01*
X137570056Y-115358783D01*
X137703095Y-115385246D01*
X137768720Y-115398300D01*
X137768721Y-115398300D01*
X137971280Y-115398300D01*
X138020609Y-115388487D01*
X138169944Y-115358783D01*
X138357083Y-115281268D01*
X138525503Y-115168733D01*
X138668733Y-115025503D01*
X138775027Y-114866421D01*
X138816509Y-114836007D01*
X138867838Y-114839371D01*
X138904997Y-114874943D01*
X138912752Y-114908049D01*
X138915754Y-116376135D01*
X138898259Y-116424509D01*
X138853764Y-116450320D01*
X138803087Y-116441491D01*
X138778029Y-116418070D01*
X138668733Y-116254497D01*
X138668730Y-116254494D01*
X138668728Y-116254491D01*
X138525508Y-116111271D01*
X138525505Y-116111269D01*
X138525503Y-116111267D01*
X138357083Y-115998732D01*
X138357081Y-115998731D01*
X138169947Y-115921218D01*
X138169946Y-115921217D01*
X137971280Y-115881700D01*
X137971279Y-115881700D01*
X137768721Y-115881700D01*
X137768720Y-115881700D01*
X137570053Y-115921217D01*
X137570052Y-115921218D01*
X137382918Y-115998731D01*
X137214494Y-116111269D01*
X137214491Y-116111271D01*
X137071271Y-116254491D01*
X137071269Y-116254494D01*
X136958731Y-116422918D01*
X136881218Y-116610052D01*
X136881217Y-116610053D01*
X136841700Y-116808720D01*
X136841700Y-117011279D01*
X136881217Y-117209946D01*
X136881218Y-117209947D01*
X136958731Y-117397081D01*
X136958732Y-117397083D01*
X137071267Y-117565503D01*
X137071269Y-117565505D01*
X137071271Y-117565508D01*
X137214491Y-117708728D01*
X137214494Y-117708730D01*
X137214497Y-117708733D01*
X137382917Y-117821268D01*
X137570052Y-117898781D01*
X137570053Y-117898782D01*
X137570054Y-117898782D01*
X137570056Y-117898783D01*
X137703095Y-117925246D01*
X137768720Y-117938300D01*
X137768721Y-117938300D01*
X137971280Y-117938300D01*
X138020609Y-117928487D01*
X138169944Y-117898783D01*
X138357083Y-117821268D01*
X138525503Y-117708733D01*
X138668733Y-117565503D01*
X138780206Y-117398671D01*
X138821687Y-117368257D01*
X138873016Y-117371621D01*
X138910175Y-117407193D01*
X138917930Y-117440299D01*
X138920965Y-118923933D01*
X138903470Y-118972307D01*
X138858975Y-118998118D01*
X138808298Y-118989289D01*
X138783239Y-118965866D01*
X138668736Y-118794500D01*
X138668728Y-118794491D01*
X138525508Y-118651271D01*
X138525505Y-118651269D01*
X138525503Y-118651267D01*
X138357083Y-118538732D01*
X138357081Y-118538731D01*
X138169947Y-118461218D01*
X138169946Y-118461217D01*
X137971280Y-118421700D01*
X137971279Y-118421700D01*
X137768721Y-118421700D01*
X137768720Y-118421700D01*
X137570053Y-118461217D01*
X137570052Y-118461218D01*
X137382918Y-118538731D01*
X137214494Y-118651269D01*
X137214491Y-118651271D01*
X137071271Y-118794491D01*
X137071269Y-118794494D01*
X136958731Y-118962918D01*
X136881218Y-119150052D01*
X136881217Y-119150053D01*
X136841700Y-119348720D01*
X136841700Y-119551279D01*
X136881217Y-119749946D01*
X136881218Y-119749947D01*
X136957623Y-119934406D01*
X136958732Y-119937083D01*
X137071267Y-120105503D01*
X137071269Y-120105505D01*
X137071271Y-120105508D01*
X137214491Y-120248728D01*
X137214494Y-120248730D01*
X137214497Y-120248733D01*
X137382917Y-120361268D01*
X137570052Y-120438781D01*
X137570053Y-120438782D01*
X137570054Y-120438782D01*
X137570056Y-120438783D01*
X137703095Y-120465246D01*
X137768720Y-120478300D01*
X137768721Y-120478300D01*
X137971280Y-120478300D01*
X138020609Y-120468487D01*
X138169944Y-120438783D01*
X138357083Y-120361268D01*
X138525503Y-120248733D01*
X138668733Y-120105503D01*
X138781268Y-119937083D01*
X138781274Y-119937067D01*
X138781579Y-119936499D01*
X138781775Y-119936323D01*
X138783320Y-119934011D01*
X138783912Y-119934406D01*
X138819874Y-119902155D01*
X138871286Y-119900460D01*
X138911758Y-119932209D01*
X138923107Y-119971780D01*
X138937846Y-127178646D01*
X138920351Y-127227020D01*
X138875856Y-127252831D01*
X138862646Y-127254000D01*
X113994354Y-127254000D01*
X113946016Y-127236407D01*
X113920296Y-127191858D01*
X113919154Y-127178646D01*
X113921224Y-126166189D01*
X113924872Y-124381508D01*
X121040000Y-124381508D01*
X121040000Y-124630000D01*
X121740000Y-124630000D01*
X121740000Y-125130000D01*
X121040000Y-125130000D01*
X121040000Y-125378491D01*
X121078429Y-125571691D01*
X121078430Y-125571692D01*
X121153810Y-125753676D01*
X121263251Y-125917465D01*
X121263253Y-125917468D01*
X121402531Y-126056746D01*
X121402534Y-126056748D01*
X121566323Y-126166189D01*
X121748310Y-126241570D01*
X121748309Y-126241570D01*
X121789999Y-126249863D01*
X121790000Y-126249863D01*
X121790000Y-125446988D01*
X121799940Y-125464205D01*
X121855795Y-125520060D01*
X121924204Y-125559556D01*
X122000504Y-125580000D01*
X122079496Y-125580000D01*
X122155796Y-125559556D01*
X122224205Y-125520060D01*
X122280060Y-125464205D01*
X122290000Y-125446988D01*
X122290000Y-126249863D01*
X122331690Y-126241570D01*
X122513676Y-126166189D01*
X122677465Y-126056748D01*
X122677468Y-126056746D01*
X122816746Y-125917468D01*
X122816748Y-125917465D01*
X122926189Y-125753676D01*
X123001569Y-125571692D01*
X123001570Y-125571691D01*
X123040000Y-125378491D01*
X123040000Y-125130000D01*
X122340000Y-125130000D01*
X122340000Y-124630000D01*
X123040000Y-124630000D01*
X123040000Y-124381508D01*
X129680000Y-124381508D01*
X129680000Y-124630000D01*
X130380000Y-124630000D01*
X130380000Y-125130000D01*
X129680000Y-125130000D01*
X129680000Y-125378491D01*
X129718429Y-125571691D01*
X129718430Y-125571692D01*
X129793810Y-125753676D01*
X129903251Y-125917465D01*
X129903253Y-125917468D01*
X130042531Y-126056746D01*
X130042534Y-126056748D01*
X130206323Y-126166189D01*
X130388310Y-126241570D01*
X130388309Y-126241570D01*
X130429999Y-126249863D01*
X130430000Y-126249863D01*
X130430000Y-125446988D01*
X130439940Y-125464205D01*
X130495795Y-125520060D01*
X130564204Y-125559556D01*
X130640504Y-125580000D01*
X130719496Y-125580000D01*
X130795796Y-125559556D01*
X130864205Y-125520060D01*
X130920060Y-125464205D01*
X130930000Y-125446988D01*
X130930000Y-126249863D01*
X130971690Y-126241570D01*
X131153676Y-126166189D01*
X131317465Y-126056748D01*
X131317468Y-126056746D01*
X131456746Y-125917468D01*
X131456748Y-125917465D01*
X131566189Y-125753676D01*
X131641569Y-125571692D01*
X131641570Y-125571691D01*
X131680000Y-125378491D01*
X131680000Y-125130000D01*
X130980000Y-125130000D01*
X130980000Y-124630000D01*
X131680000Y-124630000D01*
X131680000Y-124381508D01*
X131641570Y-124188308D01*
X131641569Y-124188307D01*
X131566189Y-124006323D01*
X131456748Y-123842534D01*
X131456746Y-123842531D01*
X131317468Y-123703253D01*
X131317465Y-123703251D01*
X131153676Y-123593810D01*
X130971687Y-123518428D01*
X130930000Y-123510136D01*
X130930000Y-124313011D01*
X130920060Y-124295795D01*
X130864205Y-124239940D01*
X130795796Y-124200444D01*
X130719496Y-124180000D01*
X130640504Y-124180000D01*
X130564204Y-124200444D01*
X130495795Y-124239940D01*
X130439940Y-124295795D01*
X130430000Y-124313011D01*
X130430000Y-123510136D01*
X130429999Y-123510136D01*
X130388312Y-123518428D01*
X130206323Y-123593810D01*
X130042534Y-123703251D01*
X130042531Y-123703253D01*
X129903253Y-123842531D01*
X129903251Y-123842534D01*
X129793810Y-124006323D01*
X129718430Y-124188307D01*
X129718429Y-124188308D01*
X129680000Y-124381508D01*
X123040000Y-124381508D01*
X123001570Y-124188308D01*
X123001569Y-124188307D01*
X122926189Y-124006323D01*
X122816748Y-123842534D01*
X122816746Y-123842531D01*
X122677468Y-123703253D01*
X122677465Y-123703251D01*
X122513676Y-123593810D01*
X122331687Y-123518428D01*
X122290000Y-123510136D01*
X122290000Y-124313011D01*
X122280060Y-124295795D01*
X122224205Y-124239940D01*
X122155796Y-124200444D01*
X122079496Y-124180000D01*
X122000504Y-124180000D01*
X121924204Y-124200444D01*
X121855795Y-124239940D01*
X121799940Y-124295795D01*
X121790000Y-124313011D01*
X121790000Y-123510136D01*
X121789999Y-123510136D01*
X121748312Y-123518428D01*
X121566323Y-123593810D01*
X121402534Y-123703251D01*
X121402531Y-123703253D01*
X121263253Y-123842531D01*
X121263251Y-123842534D01*
X121153810Y-124006323D01*
X121078430Y-124188307D01*
X121078429Y-124188308D01*
X121040000Y-124381508D01*
X113924872Y-124381508D01*
X113933475Y-120172970D01*
X114527037Y-119579408D01*
X114544075Y-119642993D01*
X114609901Y-119757007D01*
X114702993Y-119850099D01*
X114817007Y-119915925D01*
X114880589Y-119932962D01*
X114248281Y-120565269D01*
X114302444Y-120604622D01*
X114491780Y-120701094D01*
X114693869Y-120766756D01*
X114693881Y-120766759D01*
X114903750Y-120799999D01*
X114903757Y-120800000D01*
X115116243Y-120800000D01*
X115116249Y-120799999D01*
X115326118Y-120766759D01*
X115326130Y-120766756D01*
X115528219Y-120701094D01*
X115717553Y-120604622D01*
X115771717Y-120565269D01*
X115139410Y-119932962D01*
X115202993Y-119915925D01*
X115317007Y-119850099D01*
X115410099Y-119757007D01*
X115475925Y-119642993D01*
X115492962Y-119579410D01*
X116125269Y-120211717D01*
X116164622Y-120157553D01*
X116218656Y-120051508D01*
X121040000Y-120051508D01*
X121040000Y-120450000D01*
X121740000Y-120450000D01*
X121740000Y-120950000D01*
X121040000Y-120950000D01*
X121040000Y-121348491D01*
X121078429Y-121541691D01*
X121078430Y-121541692D01*
X121153810Y-121723676D01*
X121263251Y-121887465D01*
X121263253Y-121887468D01*
X121402531Y-122026746D01*
X121402534Y-122026748D01*
X121566323Y-122136189D01*
X121748310Y-122211570D01*
X121748309Y-122211570D01*
X121789999Y-122219863D01*
X121790000Y-122219863D01*
X121790000Y-121416988D01*
X121799940Y-121434205D01*
X121855795Y-121490060D01*
X121924204Y-121529556D01*
X122000504Y-121550000D01*
X122079496Y-121550000D01*
X122155796Y-121529556D01*
X122224205Y-121490060D01*
X122280060Y-121434205D01*
X122290000Y-121416988D01*
X122290000Y-122219863D01*
X122331690Y-122211570D01*
X122513676Y-122136189D01*
X122677465Y-122026748D01*
X122677468Y-122026746D01*
X122816746Y-121887468D01*
X122816748Y-121887465D01*
X122926189Y-121723676D01*
X122997827Y-121550727D01*
X123032579Y-121512802D01*
X123083579Y-121506088D01*
X123120477Y-121526331D01*
X123176561Y-121582415D01*
X123285529Y-121645328D01*
X123285532Y-121645329D01*
X123285537Y-121645332D01*
X123407083Y-121677900D01*
X123407086Y-121677900D01*
X123532914Y-121677900D01*
X123532917Y-121677900D01*
X123654463Y-121645332D01*
X123763438Y-121582415D01*
X123852415Y-121493438D01*
X123915332Y-121384463D01*
X123947900Y-121262917D01*
X123947900Y-121220480D01*
X125123702Y-121220480D01*
X125123702Y-121347050D01*
X125133727Y-121384462D01*
X125156461Y-121469309D01*
X125219745Y-121578919D01*
X125219749Y-121578925D01*
X125309240Y-121668416D01*
X125309243Y-121668418D01*
X125309245Y-121668420D01*
X125418858Y-121731705D01*
X125541116Y-121764464D01*
X125550566Y-121764464D01*
X125598904Y-121782057D01*
X125624624Y-121826606D01*
X125625766Y-121839664D01*
X125625766Y-121884592D01*
X125633951Y-121915137D01*
X125658525Y-122006851D01*
X125721809Y-122116461D01*
X125721813Y-122116467D01*
X125811304Y-122205958D01*
X125811307Y-122205960D01*
X125811309Y-122205962D01*
X125920922Y-122269247D01*
X126043180Y-122302006D01*
X126043183Y-122302006D01*
X126169747Y-122302006D01*
X126169750Y-122302006D01*
X126292008Y-122269247D01*
X126401621Y-122205962D01*
X126491120Y-122116463D01*
X126554405Y-122006850D01*
X126578980Y-121915133D01*
X126608482Y-121872999D01*
X126658169Y-121859685D01*
X126704790Y-121881424D01*
X126724253Y-121915135D01*
X126736460Y-121960691D01*
X126799745Y-122070303D01*
X126799749Y-122070309D01*
X126889240Y-122159800D01*
X126889243Y-122159802D01*
X126889245Y-122159804D01*
X126998858Y-122223089D01*
X127121116Y-122255848D01*
X127121119Y-122255848D01*
X127247683Y-122255848D01*
X127247686Y-122255848D01*
X127369944Y-122223089D01*
X127479557Y-122159804D01*
X127569056Y-122070305D01*
X127632341Y-121960692D01*
X127665100Y-121838434D01*
X127665100Y-121711864D01*
X127632341Y-121589606D01*
X127569056Y-121479993D01*
X127569054Y-121479991D01*
X127569052Y-121479988D01*
X127479561Y-121390497D01*
X127479555Y-121390493D01*
X127369945Y-121327209D01*
X127339379Y-121319019D01*
X127247686Y-121294450D01*
X127247683Y-121294450D01*
X127196898Y-121294450D01*
X127148560Y-121276857D01*
X127123859Y-121237150D01*
X127121698Y-121228332D01*
X127121698Y-121221715D01*
X127099021Y-121137083D01*
X128772100Y-121137083D01*
X128772100Y-121262917D01*
X128804668Y-121384462D01*
X128804671Y-121384470D01*
X128867584Y-121493438D01*
X128956561Y-121582415D01*
X129065529Y-121645328D01*
X129065532Y-121645329D01*
X129065537Y-121645332D01*
X129187083Y-121677900D01*
X129187086Y-121677900D01*
X129312914Y-121677900D01*
X129312917Y-121677900D01*
X129434463Y-121645332D01*
X129543438Y-121582415D01*
X129599522Y-121526330D01*
X129646141Y-121504591D01*
X129695828Y-121517904D01*
X129722172Y-121550727D01*
X129793810Y-121723676D01*
X129903251Y-121887465D01*
X129903253Y-121887468D01*
X130042531Y-122026746D01*
X130042534Y-122026748D01*
X130206323Y-122136189D01*
X130388310Y-122211570D01*
X130388309Y-122211570D01*
X130429999Y-122219863D01*
X130430000Y-122219863D01*
X130430000Y-121416988D01*
X130439940Y-121434205D01*
X130495795Y-121490060D01*
X130564204Y-121529556D01*
X130640504Y-121550000D01*
X130719496Y-121550000D01*
X130795796Y-121529556D01*
X130864205Y-121490060D01*
X130920060Y-121434205D01*
X130930000Y-121416988D01*
X130930000Y-122219863D01*
X130971690Y-122211570D01*
X131153676Y-122136189D01*
X131317465Y-122026748D01*
X131317468Y-122026746D01*
X131456746Y-121887468D01*
X131456748Y-121887465D01*
X131566189Y-121723676D01*
X131641569Y-121541692D01*
X131641570Y-121541691D01*
X131680000Y-121348491D01*
X131680000Y-120950000D01*
X130980000Y-120950000D01*
X130980000Y-120450000D01*
X131680000Y-120450000D01*
X131680000Y-120051508D01*
X131641570Y-119858308D01*
X131641569Y-119858307D01*
X131566189Y-119676323D01*
X131456748Y-119512534D01*
X131456746Y-119512531D01*
X131317468Y-119373253D01*
X131317465Y-119373251D01*
X131153676Y-119263810D01*
X130971687Y-119188428D01*
X130930000Y-119180136D01*
X130930000Y-119983011D01*
X130920060Y-119965795D01*
X130864205Y-119909940D01*
X130795796Y-119870444D01*
X130719496Y-119850000D01*
X130640504Y-119850000D01*
X130564204Y-119870444D01*
X130495795Y-119909940D01*
X130439940Y-119965795D01*
X130430000Y-119983011D01*
X130430000Y-119180136D01*
X130429999Y-119180136D01*
X130388312Y-119188428D01*
X130206323Y-119263810D01*
X130042534Y-119373251D01*
X130042531Y-119373253D01*
X129903253Y-119512531D01*
X129903251Y-119512534D01*
X129793810Y-119676323D01*
X129718430Y-119858307D01*
X129718429Y-119858308D01*
X129680000Y-120051508D01*
X129680000Y-120450000D01*
X130380000Y-120450000D01*
X130380000Y-120950000D01*
X129700911Y-120950000D01*
X129652573Y-120932407D01*
X129635785Y-120912399D01*
X129632414Y-120906560D01*
X129543438Y-120817584D01*
X129434470Y-120754671D01*
X129434464Y-120754669D01*
X129434463Y-120754668D01*
X129312917Y-120722100D01*
X129187083Y-120722100D01*
X129065537Y-120754668D01*
X129065529Y-120754671D01*
X128956561Y-120817584D01*
X128867584Y-120906561D01*
X128804671Y-121015529D01*
X128804668Y-121015537D01*
X128772100Y-121137083D01*
X127099021Y-121137083D01*
X127088939Y-121099457D01*
X127025654Y-120989844D01*
X127025652Y-120989842D01*
X127025650Y-120989839D01*
X126936159Y-120900348D01*
X126936153Y-120900344D01*
X126826543Y-120837060D01*
X126795977Y-120828870D01*
X126704284Y-120804301D01*
X126577714Y-120804301D01*
X126504359Y-120823956D01*
X126455454Y-120837060D01*
X126345844Y-120900344D01*
X126345838Y-120900348D01*
X126256347Y-120989839D01*
X126256343Y-120989845D01*
X126193056Y-121099460D01*
X126192427Y-121100980D01*
X126191758Y-121101709D01*
X126190594Y-121103726D01*
X126190146Y-121103467D01*
X126157669Y-121138901D01*
X126106669Y-121145608D01*
X126063289Y-121117964D01*
X126053477Y-121100966D01*
X126052342Y-121098228D01*
X126052341Y-121098222D01*
X125989056Y-120988609D01*
X125989054Y-120988607D01*
X125989052Y-120988604D01*
X125899561Y-120899113D01*
X125899555Y-120899109D01*
X125789945Y-120835825D01*
X125759379Y-120827635D01*
X125667686Y-120803066D01*
X125541116Y-120803066D01*
X125467761Y-120822721D01*
X125418856Y-120835825D01*
X125309246Y-120899109D01*
X125309240Y-120899113D01*
X125219749Y-120988604D01*
X125219745Y-120988610D01*
X125156461Y-121098220D01*
X125145561Y-121138901D01*
X125123702Y-121220480D01*
X123947900Y-121220480D01*
X123947900Y-121137083D01*
X123915332Y-121015537D01*
X123915329Y-121015532D01*
X123915328Y-121015529D01*
X123852415Y-120906561D01*
X123763438Y-120817584D01*
X123654470Y-120754671D01*
X123654464Y-120754669D01*
X123654463Y-120754668D01*
X123532917Y-120722100D01*
X123407083Y-120722100D01*
X123285537Y-120754668D01*
X123285529Y-120754671D01*
X123176561Y-120817584D01*
X123087585Y-120906560D01*
X123084215Y-120912399D01*
X123044810Y-120945464D01*
X123019089Y-120950000D01*
X122340000Y-120950000D01*
X122340000Y-120450000D01*
X123040000Y-120450000D01*
X123040000Y-120051508D01*
X123001570Y-119858308D01*
X123001569Y-119858307D01*
X122926189Y-119676323D01*
X122816748Y-119512534D01*
X122816746Y-119512531D01*
X122677468Y-119373253D01*
X122677465Y-119373251D01*
X122513676Y-119263810D01*
X122331687Y-119188428D01*
X122290000Y-119180136D01*
X122290000Y-119983011D01*
X122280060Y-119965795D01*
X122224205Y-119909940D01*
X122155796Y-119870444D01*
X122079496Y-119850000D01*
X122000504Y-119850000D01*
X121924204Y-119870444D01*
X121855795Y-119909940D01*
X121799940Y-119965795D01*
X121790000Y-119983011D01*
X121790000Y-119180136D01*
X121789999Y-119180136D01*
X121748312Y-119188428D01*
X121566323Y-119263810D01*
X121402534Y-119373251D01*
X121402531Y-119373253D01*
X121263253Y-119512531D01*
X121263251Y-119512534D01*
X121153810Y-119676323D01*
X121078430Y-119858307D01*
X121078429Y-119858308D01*
X121040000Y-120051508D01*
X116218656Y-120051508D01*
X116237933Y-120013675D01*
X116237933Y-120013674D01*
X116261093Y-119968222D01*
X116326756Y-119766130D01*
X116326759Y-119766118D01*
X116359999Y-119556249D01*
X116360000Y-119556242D01*
X116360000Y-119343757D01*
X116359999Y-119343750D01*
X116326759Y-119133881D01*
X116326756Y-119133869D01*
X116261094Y-118931780D01*
X116164622Y-118742444D01*
X116125269Y-118688281D01*
X115492962Y-119320588D01*
X115475925Y-119257007D01*
X115410099Y-119142993D01*
X115317007Y-119049901D01*
X115202993Y-118984075D01*
X115139409Y-118967037D01*
X115771717Y-118334729D01*
X115717555Y-118295377D01*
X115528219Y-118198905D01*
X115326130Y-118133243D01*
X115326118Y-118133240D01*
X115116249Y-118100000D01*
X114903750Y-118100000D01*
X114693881Y-118133240D01*
X114693869Y-118133243D01*
X114491780Y-118198905D01*
X114302441Y-118295379D01*
X114248282Y-118334728D01*
X114248281Y-118334729D01*
X114880590Y-118967037D01*
X114817007Y-118984075D01*
X114702993Y-119049901D01*
X114609901Y-119142993D01*
X114544075Y-119257007D01*
X114527037Y-119320590D01*
X113936425Y-118729978D01*
X113939165Y-117389745D01*
X113956855Y-117341451D01*
X114001456Y-117315822D01*
X114052096Y-117324858D01*
X114083839Y-117361128D01*
X114095692Y-117389745D01*
X114098732Y-117397083D01*
X114211267Y-117565503D01*
X114211269Y-117565505D01*
X114211271Y-117565508D01*
X114354491Y-117708728D01*
X114354494Y-117708730D01*
X114354497Y-117708733D01*
X114522917Y-117821268D01*
X114710052Y-117898781D01*
X114710053Y-117898782D01*
X114710054Y-117898782D01*
X114710056Y-117898783D01*
X114843095Y-117925246D01*
X114908720Y-117938300D01*
X114908721Y-117938300D01*
X115111280Y-117938300D01*
X115160609Y-117928487D01*
X115309944Y-117898783D01*
X115497083Y-117821268D01*
X115665503Y-117708733D01*
X115708521Y-117665715D01*
X122836301Y-117665715D01*
X122836301Y-117792285D01*
X122860870Y-117883978D01*
X122869060Y-117914544D01*
X122872046Y-117919715D01*
X122932345Y-118024156D01*
X122989674Y-118081485D01*
X122996612Y-118096363D01*
X123007165Y-118108939D01*
X123010015Y-118125104D01*
X123011414Y-118128104D01*
X123011700Y-118134659D01*
X123011700Y-118212340D01*
X122994107Y-118260678D01*
X122989674Y-118265514D01*
X122932348Y-118322839D01*
X122932344Y-118322845D01*
X122869060Y-118432455D01*
X122852680Y-118493586D01*
X122836301Y-118554715D01*
X122836301Y-118681285D01*
X122852394Y-118741344D01*
X122869060Y-118803544D01*
X122932344Y-118913154D01*
X122932348Y-118913160D01*
X123021839Y-119002651D01*
X123021842Y-119002653D01*
X123021844Y-119002655D01*
X123103677Y-119049901D01*
X123125874Y-119062717D01*
X123131457Y-119065940D01*
X123253715Y-119098699D01*
X123253718Y-119098699D01*
X123380282Y-119098699D01*
X123380285Y-119098699D01*
X123502543Y-119065940D01*
X123612156Y-119002655D01*
X123701655Y-118913156D01*
X123764940Y-118803543D01*
X123776200Y-118761519D01*
X123805703Y-118719383D01*
X123855390Y-118706069D01*
X123902009Y-118727807D01*
X124352860Y-119178658D01*
X124352862Y-119178661D01*
X124407339Y-119233138D01*
X124440264Y-119252147D01*
X124474060Y-119271660D01*
X124511269Y-119281630D01*
X124511268Y-119281630D01*
X124529873Y-119286615D01*
X124548478Y-119291600D01*
X124548479Y-119291600D01*
X124625521Y-119291600D01*
X128257129Y-119291600D01*
X128305467Y-119309193D01*
X128322254Y-119329200D01*
X128375344Y-119421154D01*
X128375348Y-119421160D01*
X128464839Y-119510651D01*
X128464842Y-119510653D01*
X128464844Y-119510655D01*
X128574457Y-119573940D01*
X128696715Y-119606699D01*
X128696718Y-119606699D01*
X128823282Y-119606699D01*
X128823285Y-119606699D01*
X128945543Y-119573940D01*
X129055156Y-119510655D01*
X129144655Y-119421156D01*
X129207940Y-119311543D01*
X129240699Y-119189285D01*
X129240699Y-119062715D01*
X129207940Y-118940457D01*
X129144655Y-118830844D01*
X129144653Y-118830842D01*
X129144651Y-118830839D01*
X129055160Y-118741348D01*
X129055154Y-118741344D01*
X128945544Y-118678060D01*
X128914978Y-118669870D01*
X128823285Y-118645301D01*
X128696715Y-118645301D01*
X128574457Y-118678060D01*
X128574455Y-118678060D01*
X128542821Y-118696325D01*
X128505221Y-118706400D01*
X124739346Y-118706400D01*
X124691008Y-118688807D01*
X124686172Y-118684374D01*
X123969759Y-117967960D01*
X123921514Y-117919715D01*
X132488301Y-117919715D01*
X132488301Y-118046285D01*
X132502694Y-118100000D01*
X132521060Y-118168544D01*
X132584344Y-118278154D01*
X132584348Y-118278160D01*
X132673839Y-118367651D01*
X132673842Y-118367653D01*
X132673844Y-118367655D01*
X132783457Y-118430940D01*
X132905715Y-118463699D01*
X132905718Y-118463699D01*
X133032282Y-118463699D01*
X133032285Y-118463699D01*
X133154543Y-118430940D01*
X133264156Y-118367655D01*
X133353655Y-118278156D01*
X133416940Y-118168543D01*
X133449699Y-118046285D01*
X133449699Y-117919715D01*
X133416940Y-117797457D01*
X133353655Y-117687844D01*
X133353653Y-117687842D01*
X133353651Y-117687839D01*
X133264160Y-117598348D01*
X133264154Y-117598344D01*
X133154544Y-117535060D01*
X133123978Y-117526870D01*
X133032285Y-117502301D01*
X132905715Y-117502301D01*
X132832360Y-117521956D01*
X132783455Y-117535060D01*
X132673845Y-117598344D01*
X132673839Y-117598348D01*
X132584348Y-117687839D01*
X132584344Y-117687845D01*
X132521060Y-117797455D01*
X132515575Y-117817926D01*
X132488301Y-117919715D01*
X123921514Y-117919715D01*
X123819725Y-117817926D01*
X123797985Y-117771306D01*
X123797699Y-117764752D01*
X123797699Y-117665717D01*
X123797699Y-117665715D01*
X123764940Y-117543457D01*
X123701655Y-117433844D01*
X123701653Y-117433842D01*
X123701651Y-117433839D01*
X123612160Y-117344348D01*
X123612154Y-117344344D01*
X123502544Y-117281060D01*
X123471978Y-117272870D01*
X123380285Y-117248301D01*
X123253715Y-117248301D01*
X123180360Y-117267956D01*
X123131455Y-117281060D01*
X123021845Y-117344344D01*
X123021839Y-117344348D01*
X122932348Y-117433839D01*
X122932344Y-117433845D01*
X122869060Y-117543455D01*
X122863152Y-117565505D01*
X122836301Y-117665715D01*
X115708521Y-117665715D01*
X115766625Y-117607612D01*
X115808728Y-117565508D01*
X115808733Y-117565503D01*
X115921268Y-117397083D01*
X115998783Y-117209944D01*
X116038300Y-117011279D01*
X116038300Y-116808721D01*
X115998783Y-116610056D01*
X115921268Y-116422917D01*
X115818233Y-116268715D01*
X123344301Y-116268715D01*
X123344301Y-116395285D01*
X123364618Y-116471110D01*
X123377060Y-116517544D01*
X123440344Y-116627154D01*
X123440348Y-116627160D01*
X123529839Y-116716651D01*
X123529842Y-116716653D01*
X123529844Y-116716655D01*
X123639457Y-116779940D01*
X123761715Y-116812699D01*
X123761718Y-116812699D01*
X123888282Y-116812699D01*
X123888285Y-116812699D01*
X124010543Y-116779940D01*
X124120156Y-116716655D01*
X124209655Y-116627156D01*
X124272940Y-116517543D01*
X124305699Y-116395285D01*
X124305699Y-116268715D01*
X124272940Y-116146457D01*
X124209655Y-116036844D01*
X124209653Y-116036842D01*
X124209651Y-116036839D01*
X124120160Y-115947348D01*
X124120154Y-115947344D01*
X124010544Y-115884060D01*
X123979978Y-115875870D01*
X123888285Y-115851301D01*
X123761715Y-115851301D01*
X123688360Y-115870956D01*
X123639455Y-115884060D01*
X123529845Y-115947344D01*
X123529839Y-115947348D01*
X123440348Y-116036839D01*
X123440344Y-116036845D01*
X123377060Y-116146455D01*
X123360680Y-116207586D01*
X123344301Y-116268715D01*
X115818233Y-116268715D01*
X115808733Y-116254497D01*
X115808730Y-116254494D01*
X115808728Y-116254491D01*
X115665508Y-116111271D01*
X115665505Y-116111269D01*
X115665503Y-116111267D01*
X115497083Y-115998732D01*
X115497081Y-115998731D01*
X115309947Y-115921218D01*
X115309946Y-115921217D01*
X115111280Y-115881700D01*
X115111279Y-115881700D01*
X114908721Y-115881700D01*
X114908720Y-115881700D01*
X114710053Y-115921217D01*
X114710052Y-115921218D01*
X114522918Y-115998731D01*
X114354494Y-116111269D01*
X114354491Y-116111271D01*
X114211271Y-116254491D01*
X114211269Y-116254494D01*
X114098729Y-116422920D01*
X114085810Y-116454111D01*
X114051057Y-116492036D01*
X114000057Y-116498749D01*
X113956674Y-116471110D01*
X113941137Y-116425184D01*
X113944332Y-114862220D01*
X113962022Y-114813926D01*
X114006623Y-114788297D01*
X114057263Y-114797333D01*
X114089005Y-114833602D01*
X114098729Y-114857079D01*
X114123292Y-114893839D01*
X114211267Y-115025503D01*
X114211269Y-115025505D01*
X114211271Y-115025508D01*
X114354491Y-115168728D01*
X114354494Y-115168730D01*
X114354497Y-115168733D01*
X114522917Y-115281268D01*
X114710052Y-115358781D01*
X114710053Y-115358782D01*
X114710054Y-115358782D01*
X114710056Y-115358783D01*
X114843095Y-115385246D01*
X114908720Y-115398300D01*
X114908721Y-115398300D01*
X115111280Y-115398300D01*
X115160609Y-115388487D01*
X115309944Y-115358783D01*
X115497083Y-115281268D01*
X115665503Y-115168733D01*
X115708521Y-115125715D01*
X124360301Y-115125715D01*
X124360301Y-115252285D01*
X124384870Y-115343978D01*
X124393060Y-115374544D01*
X124456344Y-115484154D01*
X124456348Y-115484160D01*
X124545839Y-115573651D01*
X124545842Y-115573653D01*
X124545844Y-115573655D01*
X124655457Y-115636940D01*
X124777715Y-115669699D01*
X124777718Y-115669699D01*
X124904282Y-115669699D01*
X124904285Y-115669699D01*
X125026543Y-115636940D01*
X125136156Y-115573655D01*
X125136157Y-115573654D01*
X125136571Y-115573337D01*
X125136901Y-115573224D01*
X125140424Y-115571191D01*
X125140828Y-115571891D01*
X125182346Y-115557800D01*
X125651660Y-115557800D01*
X125651662Y-115557800D01*
X125725639Y-115537978D01*
X125745461Y-115532667D01*
X125829558Y-115484113D01*
X133358532Y-107955139D01*
X133407086Y-107871042D01*
X133432219Y-107777243D01*
X133432219Y-107680136D01*
X133432219Y-95059715D01*
X133758301Y-95059715D01*
X133758301Y-95186285D01*
X133782870Y-95277978D01*
X133791060Y-95308544D01*
X133854344Y-95418154D01*
X133854348Y-95418160D01*
X133943839Y-95507651D01*
X133943842Y-95507653D01*
X133943844Y-95507655D01*
X134053457Y-95570940D01*
X134175715Y-95603699D01*
X134175718Y-95603699D01*
X134302282Y-95603699D01*
X134302285Y-95603699D01*
X134424543Y-95570940D01*
X134534156Y-95507655D01*
X134623655Y-95418156D01*
X134686940Y-95308543D01*
X134719699Y-95186285D01*
X134719699Y-95059715D01*
X134686940Y-94937457D01*
X134623655Y-94827844D01*
X134623653Y-94827842D01*
X134623651Y-94827839D01*
X134534160Y-94738348D01*
X134534154Y-94738344D01*
X134424544Y-94675060D01*
X134393978Y-94666870D01*
X134302285Y-94642301D01*
X134175715Y-94642301D01*
X134124008Y-94656156D01*
X134053455Y-94675060D01*
X133943845Y-94738344D01*
X133943839Y-94738348D01*
X133854348Y-94827839D01*
X133854344Y-94827845D01*
X133791060Y-94937455D01*
X133784680Y-94961268D01*
X133758301Y-95059715D01*
X133432219Y-95059715D01*
X133432219Y-84899715D01*
X134445669Y-84899715D01*
X134445669Y-85026285D01*
X134470238Y-85117978D01*
X134478428Y-85148544D01*
X134541712Y-85258154D01*
X134541716Y-85258160D01*
X134631207Y-85347651D01*
X134631210Y-85347653D01*
X134631212Y-85347655D01*
X134740825Y-85410940D01*
X134863083Y-85443699D01*
X134863086Y-85443699D01*
X134989650Y-85443699D01*
X134989653Y-85443699D01*
X135111911Y-85410940D01*
X135221524Y-85347655D01*
X135311023Y-85258156D01*
X135374308Y-85148543D01*
X135407067Y-85026285D01*
X135407067Y-84899715D01*
X135374308Y-84777457D01*
X135311023Y-84667844D01*
X135311021Y-84667842D01*
X135311019Y-84667839D01*
X135221528Y-84578348D01*
X135221522Y-84578344D01*
X135111912Y-84515060D01*
X135081346Y-84506870D01*
X134989653Y-84482301D01*
X134863083Y-84482301D01*
X134789728Y-84501956D01*
X134740823Y-84515060D01*
X134631213Y-84578344D01*
X134631207Y-84578348D01*
X134541716Y-84667839D01*
X134541712Y-84667845D01*
X134478428Y-84777455D01*
X134472048Y-84801268D01*
X134445669Y-84899715D01*
X133432219Y-84899715D01*
X133432219Y-84624619D01*
X133446312Y-84583103D01*
X133445610Y-84582698D01*
X133447649Y-84579165D01*
X133447761Y-84578837D01*
X133448066Y-84578437D01*
X133448074Y-84578430D01*
X133511359Y-84468817D01*
X133544118Y-84346559D01*
X133544118Y-84219989D01*
X133511359Y-84097731D01*
X133448074Y-83988118D01*
X133448072Y-83988116D01*
X133448070Y-83988113D01*
X133358579Y-83898622D01*
X133358573Y-83898618D01*
X133248963Y-83835334D01*
X133218397Y-83827144D01*
X133126704Y-83802575D01*
X133000134Y-83802575D01*
X132926779Y-83822230D01*
X132877874Y-83835334D01*
X132768264Y-83898618D01*
X132768258Y-83898622D01*
X132678767Y-83988113D01*
X132678763Y-83988119D01*
X132615479Y-84097729D01*
X132603901Y-84140939D01*
X132582720Y-84219989D01*
X132582720Y-84346559D01*
X132590899Y-84377083D01*
X132615479Y-84468818D01*
X132678714Y-84578344D01*
X132678764Y-84578430D01*
X132678767Y-84578433D01*
X132679077Y-84578837D01*
X132679188Y-84579165D01*
X132681228Y-84582698D01*
X132680525Y-84583103D01*
X132694619Y-84624619D01*
X132694619Y-95026889D01*
X132677026Y-95075227D01*
X132632477Y-95100947D01*
X132581820Y-95092014D01*
X132519546Y-95056061D01*
X132519543Y-95056060D01*
X132397285Y-95023301D01*
X132270715Y-95023301D01*
X132212936Y-95038783D01*
X132148455Y-95056060D01*
X132038845Y-95119344D01*
X132038839Y-95119348D01*
X131949348Y-95208839D01*
X131949344Y-95208845D01*
X131886060Y-95318455D01*
X131869680Y-95379586D01*
X131853301Y-95440715D01*
X131853301Y-95567285D01*
X131877689Y-95658301D01*
X131886060Y-95689544D01*
X131923473Y-95754344D01*
X131944791Y-95791269D01*
X131949344Y-95799154D01*
X131949348Y-95799160D01*
X132038839Y-95888651D01*
X132038842Y-95888653D01*
X132038844Y-95888655D01*
X132148457Y-95951940D01*
X132270715Y-95984699D01*
X132270718Y-95984699D01*
X132397282Y-95984699D01*
X132397285Y-95984699D01*
X132519543Y-95951940D01*
X132581819Y-95915985D01*
X132632477Y-95907052D01*
X132677025Y-95932772D01*
X132694619Y-95981110D01*
X132694619Y-107544780D01*
X132677026Y-107593118D01*
X132672593Y-107597954D01*
X127970099Y-112300447D01*
X127923479Y-112322187D01*
X127873792Y-112308873D01*
X127844288Y-112266738D01*
X127828940Y-112209457D01*
X127828939Y-112209455D01*
X127828939Y-112209454D01*
X127783033Y-112129944D01*
X127765655Y-112099844D01*
X127765653Y-112099842D01*
X127765651Y-112099839D01*
X127676160Y-112010348D01*
X127676154Y-112010344D01*
X127566544Y-111947060D01*
X127535978Y-111938870D01*
X127444285Y-111914301D01*
X127317715Y-111914301D01*
X127244360Y-111933956D01*
X127195455Y-111947060D01*
X127085845Y-112010344D01*
X127085839Y-112010348D01*
X126996348Y-112099839D01*
X126996344Y-112099845D01*
X126933060Y-112209455D01*
X126919310Y-112260771D01*
X126900301Y-112331715D01*
X126900301Y-112458285D01*
X126924870Y-112549978D01*
X126933060Y-112580544D01*
X126996344Y-112690154D01*
X126996348Y-112690160D01*
X127085839Y-112779651D01*
X127085842Y-112779653D01*
X127085844Y-112779655D01*
X127134174Y-112807558D01*
X127195454Y-112842939D01*
X127195456Y-112842939D01*
X127195457Y-112842940D01*
X127252738Y-112858288D01*
X127294873Y-112887792D01*
X127308187Y-112937478D01*
X127286448Y-112984099D01*
X127286447Y-112984099D01*
X125472373Y-114798174D01*
X125425753Y-114819914D01*
X125419199Y-114820200D01*
X125182346Y-114820200D01*
X125140828Y-114806108D01*
X125140424Y-114806809D01*
X125136901Y-114804775D01*
X125136571Y-114804663D01*
X125136157Y-114804345D01*
X125026544Y-114741060D01*
X124995978Y-114732870D01*
X124904285Y-114708301D01*
X124777715Y-114708301D01*
X124704360Y-114727956D01*
X124655455Y-114741060D01*
X124545845Y-114804344D01*
X124545839Y-114804348D01*
X124456348Y-114893839D01*
X124456344Y-114893845D01*
X124393060Y-115003455D01*
X124387152Y-115025505D01*
X124360301Y-115125715D01*
X115708521Y-115125715D01*
X115766625Y-115067612D01*
X115808728Y-115025508D01*
X115808733Y-115025503D01*
X115921268Y-114857083D01*
X115998783Y-114669944D01*
X116038300Y-114471279D01*
X116038300Y-114268721D01*
X115998783Y-114070056D01*
X115921268Y-113882917D01*
X115808733Y-113714497D01*
X115808730Y-113714494D01*
X115808728Y-113714491D01*
X115665508Y-113571271D01*
X115665505Y-113571269D01*
X115665503Y-113571267D01*
X115497083Y-113458732D01*
X115497081Y-113458731D01*
X115309947Y-113381218D01*
X115309946Y-113381217D01*
X115111280Y-113341700D01*
X115111279Y-113341700D01*
X114908721Y-113341700D01*
X114908720Y-113341700D01*
X114710053Y-113381217D01*
X114710052Y-113381218D01*
X114522918Y-113458731D01*
X114354494Y-113571269D01*
X114354491Y-113571271D01*
X114211271Y-113714491D01*
X114211269Y-113714494D01*
X114098730Y-113882919D01*
X114091028Y-113901514D01*
X114056274Y-113939439D01*
X114005274Y-113946151D01*
X113961891Y-113918511D01*
X113946355Y-113872587D01*
X113949499Y-112334694D01*
X113967189Y-112286400D01*
X114011790Y-112260771D01*
X114062430Y-112269807D01*
X114094172Y-112306075D01*
X114098730Y-112317080D01*
X114098731Y-112317081D01*
X114098732Y-112317083D01*
X114211267Y-112485503D01*
X114211269Y-112485505D01*
X114211271Y-112485508D01*
X114354491Y-112628728D01*
X114354494Y-112628730D01*
X114354497Y-112628733D01*
X114522917Y-112741268D01*
X114710052Y-112818781D01*
X114710053Y-112818782D01*
X114710054Y-112818782D01*
X114710056Y-112818783D01*
X114831496Y-112842939D01*
X114908720Y-112858300D01*
X114908721Y-112858300D01*
X115111280Y-112858300D01*
X115160609Y-112848487D01*
X115309944Y-112818783D01*
X115497083Y-112741268D01*
X115665503Y-112628733D01*
X115808733Y-112485503D01*
X115921268Y-112317083D01*
X115998783Y-112129944D01*
X116038300Y-111931279D01*
X116038300Y-111728721D01*
X115998783Y-111530056D01*
X115921268Y-111342917D01*
X115808733Y-111174497D01*
X115808730Y-111174494D01*
X115808728Y-111174491D01*
X115665508Y-111031271D01*
X115665505Y-111031269D01*
X115665503Y-111031267D01*
X115497083Y-110918732D01*
X115497081Y-110918731D01*
X115309947Y-110841218D01*
X115309946Y-110841217D01*
X115111280Y-110801700D01*
X115111279Y-110801700D01*
X114908721Y-110801700D01*
X114908720Y-110801700D01*
X114710053Y-110841217D01*
X114710052Y-110841218D01*
X114522918Y-110918731D01*
X114354494Y-111031269D01*
X114354491Y-111031271D01*
X114211271Y-111174491D01*
X114211269Y-111174494D01*
X114098730Y-111342920D01*
X114096246Y-111348917D01*
X114061491Y-111386840D01*
X114010491Y-111393551D01*
X113967109Y-111365910D01*
X113951573Y-111319986D01*
X113954666Y-109807171D01*
X113972357Y-109758875D01*
X114016958Y-109733246D01*
X114067598Y-109742282D01*
X114095770Y-109774475D01*
X114096990Y-109773824D01*
X114098729Y-109777078D01*
X114098731Y-109777081D01*
X114098732Y-109777083D01*
X114211267Y-109945503D01*
X114211269Y-109945505D01*
X114211271Y-109945508D01*
X114354491Y-110088728D01*
X114354494Y-110088730D01*
X114354497Y-110088733D01*
X114522917Y-110201268D01*
X114710052Y-110278781D01*
X114710053Y-110278782D01*
X114710054Y-110278782D01*
X114710056Y-110278783D01*
X114843095Y-110305246D01*
X114908720Y-110318300D01*
X114908721Y-110318300D01*
X115111280Y-110318300D01*
X115160609Y-110308487D01*
X115309944Y-110278783D01*
X115497083Y-110201268D01*
X115665503Y-110088733D01*
X115808733Y-109945503D01*
X115921268Y-109777083D01*
X115998783Y-109589944D01*
X116038300Y-109391279D01*
X116038300Y-109188721D01*
X115998783Y-108990056D01*
X115921268Y-108802917D01*
X115808733Y-108634497D01*
X115808730Y-108634494D01*
X115808728Y-108634491D01*
X115665508Y-108491271D01*
X115665505Y-108491269D01*
X115665503Y-108491267D01*
X115497083Y-108378732D01*
X115497081Y-108378731D01*
X115309947Y-108301218D01*
X115309946Y-108301217D01*
X115111280Y-108261700D01*
X115111279Y-108261700D01*
X114908721Y-108261700D01*
X114908720Y-108261700D01*
X114710053Y-108301217D01*
X114710052Y-108301218D01*
X114522918Y-108378731D01*
X114354494Y-108491269D01*
X114354491Y-108491271D01*
X114211271Y-108634491D01*
X114211269Y-108634494D01*
X114098728Y-108802923D01*
X114098304Y-108803717D01*
X114098040Y-108803953D01*
X114096680Y-108805989D01*
X114096157Y-108805640D01*
X114059996Y-108838047D01*
X114008583Y-108839722D01*
X113968123Y-108807957D01*
X113956790Y-108768108D01*
X113958073Y-108140715D01*
X116867301Y-108140715D01*
X116867301Y-108267285D01*
X116891870Y-108358978D01*
X116900060Y-108389544D01*
X116949970Y-108475990D01*
X116958791Y-108491269D01*
X116963344Y-108499154D01*
X116963348Y-108499160D01*
X117052839Y-108588651D01*
X117052842Y-108588653D01*
X117052844Y-108588655D01*
X117162457Y-108651940D01*
X117284715Y-108684699D01*
X117284718Y-108684699D01*
X117411282Y-108684699D01*
X117411285Y-108684699D01*
X117533543Y-108651940D01*
X117643156Y-108588655D01*
X117732655Y-108499156D01*
X117795940Y-108389543D01*
X117828699Y-108267285D01*
X117828699Y-108140715D01*
X117795940Y-108018457D01*
X117732655Y-107908844D01*
X117732653Y-107908842D01*
X117732651Y-107908839D01*
X117643160Y-107819348D01*
X117643154Y-107819344D01*
X117533544Y-107756060D01*
X117502978Y-107747870D01*
X117411285Y-107723301D01*
X117284715Y-107723301D01*
X117226936Y-107738783D01*
X117162455Y-107756060D01*
X117052845Y-107819344D01*
X117052839Y-107819348D01*
X116963348Y-107908839D01*
X116963344Y-107908845D01*
X116900060Y-108018455D01*
X116883680Y-108079586D01*
X116867301Y-108140715D01*
X113958073Y-108140715D01*
X113959839Y-107276954D01*
X113977529Y-107228659D01*
X114022130Y-107203030D01*
X114072770Y-107212066D01*
X114097563Y-107235335D01*
X114211263Y-107405499D01*
X114211271Y-107405508D01*
X114354491Y-107548728D01*
X114354494Y-107548730D01*
X114354497Y-107548733D01*
X114522917Y-107661268D01*
X114710052Y-107738781D01*
X114710053Y-107738782D01*
X114710054Y-107738782D01*
X114710056Y-107738783D01*
X114843095Y-107765246D01*
X114908720Y-107778300D01*
X114908721Y-107778300D01*
X115111280Y-107778300D01*
X115160609Y-107768487D01*
X115309944Y-107738783D01*
X115497083Y-107661268D01*
X115665503Y-107548733D01*
X115808733Y-107405503D01*
X115921268Y-107237083D01*
X115998783Y-107049944D01*
X116029262Y-106896715D01*
X128059301Y-106896715D01*
X128059301Y-107023285D01*
X128083870Y-107114978D01*
X128092060Y-107145544D01*
X128155344Y-107255154D01*
X128155348Y-107255160D01*
X128244839Y-107344651D01*
X128244842Y-107344653D01*
X128244844Y-107344655D01*
X128331291Y-107394565D01*
X128350244Y-107405508D01*
X128354457Y-107407940D01*
X128476715Y-107440699D01*
X128476718Y-107440699D01*
X128603282Y-107440699D01*
X128603285Y-107440699D01*
X128725543Y-107407940D01*
X128835156Y-107344655D01*
X128924655Y-107255156D01*
X128987940Y-107145543D01*
X129020699Y-107023285D01*
X129020699Y-106896715D01*
X128987940Y-106774457D01*
X128924655Y-106664844D01*
X128924653Y-106664842D01*
X128924651Y-106664839D01*
X128835160Y-106575348D01*
X128835154Y-106575344D01*
X128725544Y-106512060D01*
X128694978Y-106503870D01*
X128603285Y-106479301D01*
X128476715Y-106479301D01*
X128403360Y-106498956D01*
X128354455Y-106512060D01*
X128244845Y-106575344D01*
X128244839Y-106575348D01*
X128155348Y-106664839D01*
X128155344Y-106664845D01*
X128092060Y-106774455D01*
X128075680Y-106835586D01*
X128059301Y-106896715D01*
X116029262Y-106896715D01*
X116038300Y-106851279D01*
X116038300Y-106648721D01*
X115998783Y-106450056D01*
X115921268Y-106262917D01*
X115808733Y-106094497D01*
X115808730Y-106094494D01*
X115808728Y-106094491D01*
X115665508Y-105951271D01*
X115665505Y-105951269D01*
X115665503Y-105951267D01*
X115497083Y-105838732D01*
X115497081Y-105838731D01*
X115309947Y-105761218D01*
X115309946Y-105761217D01*
X115111280Y-105721700D01*
X115111279Y-105721700D01*
X114908721Y-105721700D01*
X114908720Y-105721700D01*
X114710053Y-105761217D01*
X114710052Y-105761218D01*
X114522918Y-105838731D01*
X114354494Y-105951269D01*
X114354491Y-105951271D01*
X114211271Y-106094491D01*
X114211263Y-106094500D01*
X114099725Y-106261429D01*
X114058242Y-106291846D01*
X114006912Y-106288481D01*
X113969754Y-106252910D01*
X113962000Y-106219503D01*
X113965015Y-104744702D01*
X113982706Y-104696406D01*
X114027307Y-104670777D01*
X114077947Y-104679813D01*
X114102740Y-104703082D01*
X114211263Y-104865499D01*
X114211271Y-104865508D01*
X114354491Y-105008728D01*
X114354494Y-105008730D01*
X114354497Y-105008733D01*
X114522917Y-105121268D01*
X114710052Y-105198781D01*
X114710053Y-105198782D01*
X114710054Y-105198782D01*
X114710056Y-105198783D01*
X114843095Y-105225246D01*
X114908720Y-105238300D01*
X114908721Y-105238300D01*
X115111280Y-105238300D01*
X115160609Y-105228487D01*
X115309944Y-105198783D01*
X115497083Y-105121268D01*
X115665503Y-105008733D01*
X115808733Y-104865503D01*
X115921268Y-104697083D01*
X115967812Y-104584715D01*
X117629301Y-104584715D01*
X117629301Y-104711285D01*
X117638588Y-104745944D01*
X117662060Y-104833544D01*
X117725344Y-104943154D01*
X117725348Y-104943160D01*
X117814839Y-105032651D01*
X117814842Y-105032653D01*
X117814844Y-105032655D01*
X117924457Y-105095940D01*
X118046715Y-105128699D01*
X118046718Y-105128699D01*
X118173282Y-105128699D01*
X118173285Y-105128699D01*
X118295543Y-105095940D01*
X118405156Y-105032655D01*
X118494655Y-104943156D01*
X118557940Y-104833543D01*
X118590699Y-104711285D01*
X118590699Y-104584715D01*
X118557940Y-104462457D01*
X118494655Y-104352844D01*
X118494653Y-104352842D01*
X118494651Y-104352839D01*
X118405160Y-104263348D01*
X118405154Y-104263344D01*
X118295544Y-104200060D01*
X118264978Y-104191870D01*
X118173285Y-104167301D01*
X118046715Y-104167301D01*
X117973360Y-104186956D01*
X117924455Y-104200060D01*
X117814845Y-104263344D01*
X117814839Y-104263348D01*
X117725348Y-104352839D01*
X117725344Y-104352845D01*
X117662060Y-104462455D01*
X117649336Y-104509944D01*
X117629301Y-104584715D01*
X115967812Y-104584715D01*
X115998783Y-104509944D01*
X116038300Y-104311279D01*
X116038300Y-104108721D01*
X115998783Y-103910056D01*
X115921268Y-103722917D01*
X115808733Y-103554497D01*
X115808730Y-103554494D01*
X115808728Y-103554491D01*
X115665508Y-103411271D01*
X115665505Y-103411269D01*
X115665503Y-103411267D01*
X115497083Y-103298732D01*
X115497081Y-103298731D01*
X115309947Y-103221218D01*
X115309946Y-103221217D01*
X115111280Y-103181700D01*
X115111279Y-103181700D01*
X114908721Y-103181700D01*
X114908720Y-103181700D01*
X114710053Y-103221217D01*
X114710052Y-103221218D01*
X114522918Y-103298731D01*
X114354494Y-103411269D01*
X114354491Y-103411271D01*
X114211271Y-103554491D01*
X114211263Y-103554500D01*
X114104934Y-103713634D01*
X114063451Y-103744051D01*
X114012121Y-103740686D01*
X113974963Y-103705115D01*
X113967209Y-103671706D01*
X113970192Y-102212451D01*
X113987883Y-102164154D01*
X114032484Y-102138525D01*
X114083124Y-102147561D01*
X114107917Y-102170830D01*
X114211263Y-102325499D01*
X114211271Y-102325508D01*
X114354491Y-102468728D01*
X114354494Y-102468730D01*
X114354497Y-102468733D01*
X114522917Y-102581268D01*
X114710052Y-102658781D01*
X114710053Y-102658782D01*
X114710054Y-102658782D01*
X114710056Y-102658783D01*
X114843095Y-102685246D01*
X114908720Y-102698300D01*
X114908721Y-102698300D01*
X115111280Y-102698300D01*
X115160609Y-102688487D01*
X115309944Y-102658783D01*
X115497083Y-102581268D01*
X115665503Y-102468733D01*
X115808733Y-102325503D01*
X115921268Y-102157083D01*
X115998783Y-101969944D01*
X116038300Y-101771279D01*
X116038300Y-101568721D01*
X115998783Y-101370056D01*
X115921268Y-101182917D01*
X115903092Y-101155715D01*
X117756301Y-101155715D01*
X117756301Y-101282285D01*
X117779818Y-101370052D01*
X117789060Y-101404544D01*
X117852344Y-101514154D01*
X117852348Y-101514160D01*
X117941839Y-101603651D01*
X117941842Y-101603653D01*
X117941844Y-101603655D01*
X118051457Y-101666940D01*
X118173715Y-101699699D01*
X118173718Y-101699699D01*
X118300282Y-101699699D01*
X118300285Y-101699699D01*
X118422543Y-101666940D01*
X118532156Y-101603655D01*
X118621655Y-101514156D01*
X118684940Y-101404543D01*
X118717699Y-101282285D01*
X118717699Y-101155715D01*
X118684940Y-101033457D01*
X118621655Y-100923844D01*
X118621653Y-100923842D01*
X118621651Y-100923839D01*
X118532160Y-100834348D01*
X118532154Y-100834344D01*
X118422544Y-100771060D01*
X118376534Y-100758732D01*
X118300285Y-100738301D01*
X118173715Y-100738301D01*
X118100360Y-100757956D01*
X118051455Y-100771060D01*
X117941845Y-100834344D01*
X117941839Y-100834348D01*
X117852348Y-100923839D01*
X117852344Y-100923845D01*
X117789060Y-101033455D01*
X117774084Y-101089348D01*
X117756301Y-101155715D01*
X115903092Y-101155715D01*
X115808733Y-101014497D01*
X115808730Y-101014494D01*
X115808728Y-101014491D01*
X115665508Y-100871271D01*
X115665505Y-100871269D01*
X115665503Y-100871267D01*
X115497083Y-100758732D01*
X115447758Y-100738301D01*
X115309947Y-100681218D01*
X115309946Y-100681217D01*
X115111280Y-100641700D01*
X115111279Y-100641700D01*
X114908721Y-100641700D01*
X114908720Y-100641700D01*
X114710053Y-100681217D01*
X114710052Y-100681218D01*
X114522918Y-100758731D01*
X114354494Y-100871269D01*
X114354491Y-100871271D01*
X114211271Y-101014491D01*
X114211263Y-101014500D01*
X114110142Y-101165838D01*
X114068659Y-101196255D01*
X114017329Y-101192890D01*
X113980171Y-101157319D01*
X113972417Y-101123912D01*
X113975369Y-99680200D01*
X113993060Y-99631902D01*
X114037661Y-99606273D01*
X114088301Y-99615309D01*
X114113094Y-99638578D01*
X114211263Y-99785499D01*
X114211271Y-99785508D01*
X114354491Y-99928728D01*
X114354494Y-99928730D01*
X114354497Y-99928733D01*
X114522917Y-100041268D01*
X114710052Y-100118781D01*
X114710053Y-100118782D01*
X114710054Y-100118782D01*
X114710056Y-100118783D01*
X114843095Y-100145246D01*
X114908720Y-100158300D01*
X114908721Y-100158300D01*
X115111280Y-100158300D01*
X115160609Y-100148487D01*
X115309944Y-100118783D01*
X115497083Y-100041268D01*
X115665503Y-99928733D01*
X115808733Y-99785503D01*
X115921268Y-99617083D01*
X115998783Y-99429944D01*
X116038300Y-99231279D01*
X116038300Y-99028721D01*
X115998783Y-98830056D01*
X115921268Y-98642917D01*
X115808733Y-98474497D01*
X115808730Y-98474494D01*
X115808728Y-98474491D01*
X115665508Y-98331271D01*
X115665505Y-98331269D01*
X115665503Y-98331267D01*
X115497083Y-98218732D01*
X115481207Y-98212156D01*
X115309947Y-98141218D01*
X115309946Y-98141217D01*
X115111280Y-98101700D01*
X115111279Y-98101700D01*
X114908721Y-98101700D01*
X114908720Y-98101700D01*
X114710053Y-98141217D01*
X114710052Y-98141218D01*
X114522918Y-98218731D01*
X114354494Y-98331269D01*
X114354491Y-98331271D01*
X114211271Y-98474491D01*
X114211263Y-98474500D01*
X114115351Y-98618043D01*
X114073868Y-98648460D01*
X114022538Y-98645095D01*
X113985380Y-98609524D01*
X113977626Y-98576114D01*
X113980545Y-97147948D01*
X113998237Y-97099650D01*
X114042838Y-97074021D01*
X114093478Y-97083057D01*
X114118271Y-97106326D01*
X114211263Y-97245499D01*
X114211271Y-97245508D01*
X114354491Y-97388728D01*
X114354494Y-97388730D01*
X114354497Y-97388733D01*
X114522917Y-97501268D01*
X114710052Y-97578781D01*
X114710053Y-97578782D01*
X114710054Y-97578782D01*
X114710056Y-97578783D01*
X114839118Y-97604455D01*
X114908720Y-97618300D01*
X114908721Y-97618300D01*
X115111280Y-97618300D01*
X115180882Y-97604455D01*
X115309944Y-97578783D01*
X115497083Y-97501268D01*
X115665503Y-97388733D01*
X115808733Y-97245503D01*
X115921268Y-97077083D01*
X115998783Y-96889944D01*
X116038300Y-96691279D01*
X116038300Y-96488721D01*
X115998783Y-96290056D01*
X115921268Y-96102917D01*
X115903092Y-96075715D01*
X116255300Y-96075715D01*
X116255300Y-96202285D01*
X116278817Y-96290052D01*
X116288059Y-96324544D01*
X116351343Y-96434154D01*
X116351347Y-96434160D01*
X116440838Y-96523651D01*
X116440841Y-96523653D01*
X116440843Y-96523655D01*
X116550456Y-96586940D01*
X116672714Y-96619699D01*
X116672717Y-96619699D01*
X116799281Y-96619699D01*
X116799284Y-96619699D01*
X116921542Y-96586940D01*
X117031155Y-96523655D01*
X117120654Y-96434156D01*
X117183939Y-96324543D01*
X117216583Y-96202715D01*
X119280301Y-96202715D01*
X119280301Y-96329285D01*
X119304870Y-96420978D01*
X119313060Y-96451544D01*
X119376344Y-96561154D01*
X119376348Y-96561160D01*
X119465839Y-96650651D01*
X119465842Y-96650653D01*
X119465844Y-96650655D01*
X119575457Y-96713940D01*
X119697715Y-96746699D01*
X119697718Y-96746699D01*
X119824282Y-96746699D01*
X119824285Y-96746699D01*
X119946543Y-96713940D01*
X120056156Y-96650655D01*
X120145655Y-96561156D01*
X120208940Y-96451543D01*
X120241699Y-96329285D01*
X120241699Y-96202715D01*
X120208940Y-96080457D01*
X120203046Y-96070249D01*
X120178840Y-96028322D01*
X120145655Y-95970844D01*
X120145653Y-95970842D01*
X120145651Y-95970839D01*
X120056160Y-95881348D01*
X120056154Y-95881344D01*
X119946544Y-95818060D01*
X119915978Y-95809870D01*
X119824285Y-95785301D01*
X119697715Y-95785301D01*
X119646008Y-95799156D01*
X119575455Y-95818060D01*
X119465845Y-95881344D01*
X119465839Y-95881348D01*
X119376348Y-95970839D01*
X119376344Y-95970845D01*
X119313060Y-96080455D01*
X119296680Y-96141586D01*
X119280301Y-96202715D01*
X117216583Y-96202715D01*
X117216698Y-96202285D01*
X117216698Y-96075715D01*
X117183939Y-95953457D01*
X117120654Y-95843844D01*
X117120652Y-95843842D01*
X117120650Y-95843839D01*
X117031159Y-95754348D01*
X117031153Y-95754344D01*
X116921543Y-95691060D01*
X116875533Y-95678732D01*
X116799284Y-95658301D01*
X116672714Y-95658301D01*
X116599359Y-95677956D01*
X116550454Y-95691060D01*
X116440844Y-95754344D01*
X116440838Y-95754348D01*
X116351347Y-95843839D01*
X116351343Y-95843845D01*
X116288059Y-95953455D01*
X116277262Y-95993752D01*
X116255300Y-96075715D01*
X115903092Y-96075715D01*
X115808733Y-95934497D01*
X115808730Y-95934494D01*
X115808728Y-95934491D01*
X115665508Y-95791271D01*
X115665505Y-95791269D01*
X115665503Y-95791267D01*
X115497083Y-95678732D01*
X115447758Y-95658301D01*
X115309947Y-95601218D01*
X115309946Y-95601217D01*
X115111280Y-95561700D01*
X115111279Y-95561700D01*
X114908721Y-95561700D01*
X114908720Y-95561700D01*
X114710053Y-95601217D01*
X114710052Y-95601218D01*
X114522918Y-95678731D01*
X114354494Y-95791269D01*
X114354491Y-95791271D01*
X114211271Y-95934491D01*
X114211263Y-95934500D01*
X114120559Y-96070249D01*
X114079076Y-96100666D01*
X114027746Y-96097301D01*
X113990588Y-96061730D01*
X113982834Y-96028322D01*
X113985722Y-94615693D01*
X114003413Y-94567396D01*
X114048014Y-94541767D01*
X114098654Y-94550803D01*
X114123446Y-94574070D01*
X114211267Y-94705503D01*
X114211269Y-94705505D01*
X114211271Y-94705508D01*
X114354491Y-94848728D01*
X114354494Y-94848730D01*
X114354497Y-94848733D01*
X114522917Y-94961268D01*
X114710052Y-95038781D01*
X114710053Y-95038782D01*
X114710054Y-95038782D01*
X114710056Y-95038783D01*
X114843095Y-95065246D01*
X114908720Y-95078300D01*
X114908721Y-95078300D01*
X115111280Y-95078300D01*
X115160609Y-95068487D01*
X115309944Y-95038783D01*
X115497083Y-94961268D01*
X115665503Y-94848733D01*
X115808733Y-94705503D01*
X115921268Y-94537083D01*
X115998783Y-94349944D01*
X116038300Y-94151279D01*
X116038300Y-93948721D01*
X115998783Y-93750056D01*
X115921268Y-93562917D01*
X115808733Y-93394497D01*
X115808729Y-93394493D01*
X115808728Y-93394491D01*
X115665508Y-93251271D01*
X115665505Y-93251269D01*
X115665503Y-93251267D01*
X115497083Y-93138732D01*
X115497081Y-93138731D01*
X115309947Y-93061218D01*
X115309946Y-93061217D01*
X115111280Y-93021700D01*
X115111279Y-93021700D01*
X114908721Y-93021700D01*
X114908720Y-93021700D01*
X114710053Y-93061217D01*
X114710052Y-93061218D01*
X114522918Y-93138731D01*
X114354494Y-93251269D01*
X114354491Y-93251271D01*
X114211271Y-93394491D01*
X114211263Y-93394500D01*
X114125768Y-93522453D01*
X114084285Y-93552870D01*
X114032955Y-93549505D01*
X113995797Y-93513934D01*
X113988043Y-93480524D01*
X113990899Y-92083441D01*
X114008590Y-92035144D01*
X114053191Y-92009515D01*
X114103831Y-92018551D01*
X114128623Y-92041818D01*
X114211267Y-92165503D01*
X114211269Y-92165505D01*
X114211271Y-92165508D01*
X114354491Y-92308728D01*
X114354494Y-92308730D01*
X114354497Y-92308733D01*
X114522917Y-92421268D01*
X114710052Y-92498781D01*
X114710053Y-92498782D01*
X114710054Y-92498782D01*
X114710056Y-92498783D01*
X114830199Y-92522681D01*
X114908720Y-92538300D01*
X114908721Y-92538300D01*
X115111280Y-92538300D01*
X115160609Y-92528487D01*
X115309944Y-92498783D01*
X115497083Y-92421268D01*
X115539815Y-92392715D01*
X119407301Y-92392715D01*
X119407301Y-92519285D01*
X119427677Y-92595330D01*
X119440060Y-92641544D01*
X119503344Y-92751154D01*
X119503348Y-92751160D01*
X119592839Y-92840651D01*
X119592842Y-92840653D01*
X119592844Y-92840655D01*
X119702457Y-92903940D01*
X119824715Y-92936699D01*
X119824718Y-92936699D01*
X119951280Y-92936699D01*
X119951285Y-92936699D01*
X119954686Y-92935787D01*
X120005926Y-92940263D01*
X120027330Y-92955248D01*
X120603475Y-93531392D01*
X120625215Y-93578012D01*
X120625501Y-93584566D01*
X120625501Y-99340624D01*
X120664245Y-99434163D01*
X120664246Y-99434164D01*
X121318958Y-100088875D01*
X121318971Y-100088890D01*
X121394835Y-100164754D01*
X121394836Y-100164754D01*
X121394837Y-100164755D01*
X121488377Y-100203500D01*
X121488378Y-100203500D01*
X121589622Y-100203500D01*
X121589623Y-100203500D01*
X121683163Y-100164755D01*
X121835203Y-100012715D01*
X127789301Y-100012715D01*
X127789301Y-100139285D01*
X127813870Y-100230978D01*
X127822060Y-100261544D01*
X127885344Y-100371154D01*
X127885348Y-100371160D01*
X127974839Y-100460651D01*
X127974842Y-100460653D01*
X127974844Y-100460655D01*
X128084457Y-100523940D01*
X128206715Y-100556699D01*
X128206718Y-100556699D01*
X128333282Y-100556699D01*
X128333285Y-100556699D01*
X128455543Y-100523940D01*
X128565156Y-100460655D01*
X128654655Y-100371156D01*
X128717940Y-100261543D01*
X128750699Y-100139285D01*
X128750699Y-100012715D01*
X128717940Y-99890457D01*
X128654655Y-99780844D01*
X128654653Y-99780842D01*
X128654651Y-99780839D01*
X128565160Y-99691348D01*
X128565154Y-99691344D01*
X128455544Y-99628060D01*
X128414569Y-99617081D01*
X128333285Y-99595301D01*
X128206715Y-99595301D01*
X128133360Y-99614956D01*
X128084455Y-99628060D01*
X127974845Y-99691344D01*
X127974839Y-99691348D01*
X127885348Y-99780839D01*
X127885344Y-99780845D01*
X127822060Y-99890455D01*
X127811805Y-99928728D01*
X127789301Y-100012715D01*
X121835203Y-100012715D01*
X122851201Y-98996715D01*
X124995301Y-98996715D01*
X124995301Y-99123285D01*
X125003380Y-99153435D01*
X125028060Y-99245544D01*
X125091344Y-99355154D01*
X125091348Y-99355160D01*
X125180839Y-99444651D01*
X125180842Y-99444653D01*
X125180844Y-99444655D01*
X125290457Y-99507940D01*
X125412715Y-99540699D01*
X125412718Y-99540699D01*
X125539282Y-99540699D01*
X125539285Y-99540699D01*
X125661543Y-99507940D01*
X125771156Y-99444655D01*
X125860655Y-99355156D01*
X125923940Y-99245543D01*
X125956699Y-99123285D01*
X125956699Y-98996715D01*
X125923940Y-98874457D01*
X125860655Y-98764844D01*
X125860653Y-98764842D01*
X125860651Y-98764839D01*
X125771160Y-98675348D01*
X125771154Y-98675344D01*
X125661544Y-98612060D01*
X125630978Y-98603870D01*
X125539285Y-98579301D01*
X125412715Y-98579301D01*
X125339360Y-98598956D01*
X125290455Y-98612060D01*
X125180845Y-98675344D01*
X125180839Y-98675348D01*
X125091348Y-98764839D01*
X125091344Y-98764845D01*
X125028060Y-98874455D01*
X125011680Y-98935586D01*
X124995301Y-98996715D01*
X122851201Y-98996715D01*
X123558668Y-98289247D01*
X123605287Y-98267508D01*
X123631307Y-98269785D01*
X123634715Y-98270699D01*
X123761282Y-98270699D01*
X123761285Y-98270699D01*
X123883543Y-98237940D01*
X123993156Y-98174655D01*
X124082655Y-98085156D01*
X124145940Y-97975543D01*
X124178584Y-97853715D01*
X130456301Y-97853715D01*
X130456301Y-97980285D01*
X130480870Y-98071978D01*
X130489060Y-98102544D01*
X130552344Y-98212154D01*
X130552348Y-98212160D01*
X130641839Y-98301651D01*
X130641842Y-98301653D01*
X130641844Y-98301655D01*
X130751457Y-98364940D01*
X130873715Y-98397699D01*
X130873718Y-98397699D01*
X131000282Y-98397699D01*
X131000285Y-98397699D01*
X131122543Y-98364940D01*
X131232156Y-98301655D01*
X131321655Y-98212156D01*
X131384940Y-98102543D01*
X131417699Y-97980285D01*
X131417699Y-97853715D01*
X131384940Y-97731457D01*
X131321655Y-97621844D01*
X131321653Y-97621842D01*
X131321651Y-97621839D01*
X131232160Y-97532348D01*
X131232154Y-97532344D01*
X131122544Y-97469060D01*
X131091978Y-97460870D01*
X131000285Y-97436301D01*
X130873715Y-97436301D01*
X130800360Y-97455956D01*
X130751455Y-97469060D01*
X130641845Y-97532344D01*
X130641839Y-97532348D01*
X130552348Y-97621839D01*
X130552344Y-97621845D01*
X130489060Y-97731455D01*
X130472680Y-97792586D01*
X130456301Y-97853715D01*
X124178584Y-97853715D01*
X124178699Y-97853285D01*
X124178699Y-97726715D01*
X124145940Y-97604457D01*
X124082655Y-97494844D01*
X124082653Y-97494842D01*
X124082651Y-97494839D01*
X123993160Y-97405348D01*
X123993154Y-97405344D01*
X123883544Y-97342060D01*
X123852978Y-97333870D01*
X123761285Y-97309301D01*
X123634715Y-97309301D01*
X123561360Y-97328956D01*
X123512455Y-97342060D01*
X123402845Y-97405344D01*
X123402839Y-97405348D01*
X123313348Y-97494839D01*
X123313344Y-97494845D01*
X123250060Y-97604455D01*
X123245402Y-97621839D01*
X123217301Y-97726715D01*
X123217301Y-97726717D01*
X123217301Y-97853286D01*
X123218216Y-97856703D01*
X123213726Y-97907947D01*
X123198750Y-97929331D01*
X121592173Y-99535907D01*
X121545553Y-99557647D01*
X121495866Y-99544333D01*
X121485825Y-99535907D01*
X121156527Y-99206609D01*
X121134787Y-99159989D01*
X121134501Y-99153435D01*
X121134501Y-94297715D01*
X124995301Y-94297715D01*
X124995301Y-94424285D01*
X125019870Y-94515978D01*
X125028060Y-94546544D01*
X125091344Y-94656154D01*
X125091348Y-94656160D01*
X125180839Y-94745651D01*
X125180842Y-94745653D01*
X125180844Y-94745655D01*
X125290457Y-94808940D01*
X125412715Y-94841699D01*
X125412718Y-94841699D01*
X125539282Y-94841699D01*
X125539285Y-94841699D01*
X125661543Y-94808940D01*
X125771156Y-94745655D01*
X125860655Y-94656156D01*
X125923940Y-94546543D01*
X125956699Y-94424285D01*
X125956699Y-94297715D01*
X125923940Y-94175457D01*
X125860655Y-94065844D01*
X125860653Y-94065842D01*
X125860651Y-94065839D01*
X125771160Y-93976348D01*
X125771154Y-93976344D01*
X125661544Y-93913060D01*
X125630978Y-93904870D01*
X125539285Y-93880301D01*
X125412715Y-93880301D01*
X125339360Y-93899956D01*
X125290455Y-93913060D01*
X125180845Y-93976344D01*
X125180839Y-93976348D01*
X125091348Y-94065839D01*
X125091344Y-94065845D01*
X125028060Y-94175455D01*
X125011680Y-94236586D01*
X124995301Y-94297715D01*
X121134501Y-94297715D01*
X121134501Y-93408715D01*
X129948301Y-93408715D01*
X129948301Y-93535285D01*
X129959750Y-93578012D01*
X129981060Y-93657544D01*
X130044344Y-93767154D01*
X130044348Y-93767160D01*
X130133839Y-93856651D01*
X130133842Y-93856653D01*
X130133844Y-93856655D01*
X130243457Y-93919940D01*
X130365715Y-93952699D01*
X130365718Y-93952699D01*
X130492282Y-93952699D01*
X130492285Y-93952699D01*
X130614543Y-93919940D01*
X130724156Y-93856655D01*
X130813655Y-93767156D01*
X130876940Y-93657543D01*
X130909699Y-93535285D01*
X130909699Y-93408715D01*
X130876940Y-93286457D01*
X130813655Y-93176844D01*
X130813653Y-93176842D01*
X130813651Y-93176839D01*
X130724160Y-93087348D01*
X130724154Y-93087344D01*
X130614544Y-93024060D01*
X130583978Y-93015870D01*
X130492285Y-92991301D01*
X130365715Y-92991301D01*
X130292360Y-93010956D01*
X130243455Y-93024060D01*
X130133845Y-93087344D01*
X130133839Y-93087348D01*
X130044348Y-93176839D01*
X130044344Y-93176845D01*
X129981060Y-93286455D01*
X129964680Y-93347586D01*
X129948301Y-93408715D01*
X121134501Y-93408715D01*
X121134501Y-93397378D01*
X121095756Y-93303838D01*
X121095755Y-93303837D01*
X121095755Y-93303836D01*
X121019885Y-93227966D01*
X121019870Y-93227953D01*
X120387248Y-92595330D01*
X120365508Y-92548710D01*
X120367786Y-92522691D01*
X120368699Y-92519285D01*
X120368699Y-92392715D01*
X124995301Y-92392715D01*
X124995301Y-92519285D01*
X125015677Y-92595330D01*
X125028060Y-92641544D01*
X125091344Y-92751154D01*
X125091348Y-92751160D01*
X125180839Y-92840651D01*
X125180842Y-92840653D01*
X125180844Y-92840655D01*
X125290457Y-92903940D01*
X125412715Y-92936699D01*
X125412718Y-92936699D01*
X125539282Y-92936699D01*
X125539285Y-92936699D01*
X125661543Y-92903940D01*
X125771156Y-92840655D01*
X125860655Y-92751156D01*
X125923940Y-92641543D01*
X125956699Y-92519285D01*
X125956699Y-92392715D01*
X125923940Y-92270457D01*
X125860655Y-92160844D01*
X125860653Y-92160842D01*
X125860651Y-92160839D01*
X125771160Y-92071348D01*
X125771154Y-92071344D01*
X125661544Y-92008060D01*
X125620569Y-91997081D01*
X125539285Y-91975301D01*
X125412715Y-91975301D01*
X125339360Y-91994956D01*
X125290455Y-92008060D01*
X125180845Y-92071344D01*
X125180839Y-92071348D01*
X125091348Y-92160839D01*
X125091344Y-92160845D01*
X125028060Y-92270455D01*
X125017805Y-92308728D01*
X124995301Y-92392715D01*
X120368699Y-92392715D01*
X120335940Y-92270457D01*
X120272655Y-92160844D01*
X120272653Y-92160842D01*
X120272651Y-92160839D01*
X120183160Y-92071348D01*
X120183154Y-92071344D01*
X120073544Y-92008060D01*
X120032569Y-91997081D01*
X119951285Y-91975301D01*
X119824715Y-91975301D01*
X119751360Y-91994956D01*
X119702455Y-92008060D01*
X119592845Y-92071344D01*
X119592839Y-92071348D01*
X119503348Y-92160839D01*
X119503344Y-92160845D01*
X119440060Y-92270455D01*
X119429805Y-92308728D01*
X119407301Y-92392715D01*
X115539815Y-92392715D01*
X115665503Y-92308733D01*
X115808733Y-92165503D01*
X115921268Y-91997083D01*
X115998783Y-91809944D01*
X116038300Y-91611279D01*
X116038300Y-91408721D01*
X115998783Y-91210056D01*
X115962605Y-91122715D01*
X129195940Y-91122715D01*
X129195940Y-91249285D01*
X129220509Y-91340978D01*
X129228699Y-91371544D01*
X129291983Y-91481154D01*
X129291987Y-91481160D01*
X129381478Y-91570651D01*
X129381481Y-91570653D01*
X129381483Y-91570655D01*
X129491096Y-91633940D01*
X129613354Y-91666699D01*
X129613357Y-91666699D01*
X129739921Y-91666699D01*
X129739924Y-91666699D01*
X129862182Y-91633940D01*
X129971795Y-91570655D01*
X130061294Y-91481156D01*
X130124579Y-91371543D01*
X130157338Y-91249285D01*
X130157338Y-91122715D01*
X130124579Y-91000457D01*
X130061294Y-90890844D01*
X130061292Y-90890842D01*
X130061290Y-90890839D01*
X129971799Y-90801348D01*
X129971793Y-90801344D01*
X129862183Y-90738060D01*
X129831617Y-90729870D01*
X129739924Y-90705301D01*
X129613354Y-90705301D01*
X129539999Y-90724956D01*
X129491094Y-90738060D01*
X129381484Y-90801344D01*
X129381478Y-90801348D01*
X129291987Y-90890839D01*
X129291983Y-90890845D01*
X129228699Y-91000455D01*
X129212319Y-91061586D01*
X129195940Y-91122715D01*
X115962605Y-91122715D01*
X115921268Y-91022917D01*
X115808733Y-90854497D01*
X115808730Y-90854494D01*
X115808728Y-90854491D01*
X115665508Y-90711271D01*
X115665505Y-90711269D01*
X115665503Y-90711267D01*
X115497083Y-90598732D01*
X115497081Y-90598731D01*
X115309947Y-90521218D01*
X115309946Y-90521217D01*
X115111280Y-90481700D01*
X115111279Y-90481700D01*
X114908721Y-90481700D01*
X114908720Y-90481700D01*
X114710053Y-90521217D01*
X114710052Y-90521218D01*
X114522918Y-90598731D01*
X114354494Y-90711269D01*
X114354491Y-90711271D01*
X114211271Y-90854491D01*
X114211263Y-90854500D01*
X114130976Y-90974659D01*
X114089493Y-91005076D01*
X114038163Y-91001711D01*
X114001005Y-90966140D01*
X113993251Y-90932732D01*
X113996075Y-89551189D01*
X114013767Y-89502891D01*
X114058368Y-89477262D01*
X114109008Y-89486298D01*
X114133798Y-89509563D01*
X114210977Y-89625069D01*
X114211269Y-89625506D01*
X114354491Y-89768728D01*
X114354494Y-89768730D01*
X114354497Y-89768733D01*
X114522917Y-89881268D01*
X114710052Y-89958781D01*
X114710053Y-89958782D01*
X114710054Y-89958782D01*
X114710056Y-89958783D01*
X114843095Y-89985246D01*
X114908720Y-89998300D01*
X114908721Y-89998300D01*
X115111280Y-89998300D01*
X115160609Y-89988487D01*
X115309944Y-89958783D01*
X115497083Y-89881268D01*
X115665503Y-89768733D01*
X115808733Y-89625503D01*
X115921268Y-89457083D01*
X115998783Y-89269944D01*
X116038300Y-89071279D01*
X116038300Y-88868721D01*
X115998783Y-88670056D01*
X115921268Y-88482917D01*
X115903092Y-88455715D01*
X124678802Y-88455715D01*
X124678802Y-88582285D01*
X124696853Y-88649651D01*
X124711561Y-88704544D01*
X124774845Y-88814154D01*
X124774849Y-88814160D01*
X124864340Y-88903651D01*
X124864343Y-88903653D01*
X124864345Y-88903655D01*
X124973958Y-88966940D01*
X125096216Y-88999699D01*
X125096219Y-88999699D01*
X125222783Y-88999699D01*
X125222786Y-88999699D01*
X125345044Y-88966940D01*
X125454657Y-88903655D01*
X125544156Y-88814156D01*
X125607441Y-88704543D01*
X125640200Y-88582285D01*
X125640200Y-88455715D01*
X125607441Y-88333457D01*
X125596496Y-88314500D01*
X125550243Y-88234386D01*
X125550242Y-88234384D01*
X125544159Y-88223848D01*
X125544152Y-88223839D01*
X125522028Y-88201715D01*
X127027301Y-88201715D01*
X127027301Y-88328285D01*
X127042480Y-88384934D01*
X127060060Y-88450544D01*
X127123344Y-88560154D01*
X127123348Y-88560160D01*
X127212839Y-88649651D01*
X127212842Y-88649653D01*
X127212844Y-88649655D01*
X127322457Y-88712940D01*
X127444715Y-88745699D01*
X127444718Y-88745699D01*
X127571282Y-88745699D01*
X127571285Y-88745699D01*
X127693543Y-88712940D01*
X127803156Y-88649655D01*
X127892655Y-88560156D01*
X127955940Y-88450543D01*
X127988699Y-88328285D01*
X127988699Y-88201715D01*
X127955940Y-88079457D01*
X127892655Y-87969844D01*
X127892653Y-87969842D01*
X127892651Y-87969839D01*
X127803160Y-87880348D01*
X127803154Y-87880344D01*
X127693544Y-87817060D01*
X127662978Y-87808870D01*
X127571285Y-87784301D01*
X127444715Y-87784301D01*
X127371360Y-87803956D01*
X127322455Y-87817060D01*
X127212845Y-87880344D01*
X127212839Y-87880348D01*
X127123348Y-87969839D01*
X127123344Y-87969845D01*
X127060060Y-88079455D01*
X127045353Y-88134344D01*
X127027301Y-88201715D01*
X125522028Y-88201715D01*
X125454661Y-88134348D01*
X125454655Y-88134344D01*
X125345045Y-88071060D01*
X125299035Y-88058732D01*
X125222786Y-88038301D01*
X125096216Y-88038301D01*
X125022861Y-88057956D01*
X124973956Y-88071060D01*
X124864346Y-88134344D01*
X124864340Y-88134348D01*
X124774849Y-88223839D01*
X124774845Y-88223845D01*
X124711561Y-88333455D01*
X124697768Y-88384934D01*
X124678802Y-88455715D01*
X115903092Y-88455715D01*
X115808733Y-88314497D01*
X115808730Y-88314494D01*
X115808728Y-88314491D01*
X115665508Y-88171271D01*
X115665505Y-88171269D01*
X115665503Y-88171267D01*
X115497083Y-88058732D01*
X115447758Y-88038301D01*
X115309947Y-87981218D01*
X115309946Y-87981217D01*
X115111280Y-87941700D01*
X115111279Y-87941700D01*
X114908721Y-87941700D01*
X114908720Y-87941700D01*
X114710053Y-87981217D01*
X114710052Y-87981218D01*
X114522918Y-88058731D01*
X114354494Y-88171269D01*
X114354491Y-88171271D01*
X114211271Y-88314491D01*
X114211263Y-88314500D01*
X114136185Y-88426863D01*
X114094702Y-88457280D01*
X114043372Y-88453915D01*
X114006214Y-88418344D01*
X113998459Y-88384934D01*
X114001252Y-87018938D01*
X114018944Y-86970639D01*
X114063545Y-86945010D01*
X114114185Y-86954046D01*
X114138975Y-86977312D01*
X114189750Y-87053300D01*
X114211269Y-87085506D01*
X114354491Y-87228728D01*
X114354494Y-87228730D01*
X114354497Y-87228733D01*
X114522917Y-87341268D01*
X114710052Y-87418781D01*
X114710053Y-87418782D01*
X114710054Y-87418782D01*
X114710056Y-87418783D01*
X114843095Y-87445246D01*
X114908720Y-87458300D01*
X114908721Y-87458300D01*
X115111280Y-87458300D01*
X115160609Y-87448487D01*
X115309944Y-87418783D01*
X115497083Y-87341268D01*
X115665503Y-87228733D01*
X115808733Y-87085503D01*
X115921268Y-86917083D01*
X115998783Y-86729944D01*
X116038300Y-86531279D01*
X116038300Y-86328721D01*
X115998783Y-86130056D01*
X115921268Y-85942917D01*
X115808733Y-85774497D01*
X115808730Y-85774494D01*
X115808728Y-85774491D01*
X115665508Y-85631271D01*
X115665505Y-85631269D01*
X115665503Y-85631267D01*
X115497083Y-85518732D01*
X115497081Y-85518731D01*
X115309947Y-85441218D01*
X115309946Y-85441217D01*
X115111280Y-85401700D01*
X115111279Y-85401700D01*
X114908721Y-85401700D01*
X114908720Y-85401700D01*
X114710053Y-85441217D01*
X114710052Y-85441218D01*
X114522918Y-85518731D01*
X114354494Y-85631269D01*
X114354491Y-85631271D01*
X114211271Y-85774491D01*
X114211263Y-85774500D01*
X114141393Y-85879069D01*
X114099910Y-85909486D01*
X114048580Y-85906121D01*
X114011422Y-85870550D01*
X114003668Y-85837142D01*
X114004806Y-85280715D01*
X125141401Y-85280715D01*
X125141401Y-85407285D01*
X125165970Y-85498978D01*
X125174160Y-85529544D01*
X125224070Y-85615990D01*
X125232891Y-85631269D01*
X125237444Y-85639154D01*
X125237448Y-85639160D01*
X125326939Y-85728651D01*
X125326942Y-85728653D01*
X125326944Y-85728655D01*
X125436557Y-85791940D01*
X125558815Y-85824699D01*
X125558818Y-85824699D01*
X125685382Y-85824699D01*
X125685385Y-85824699D01*
X125807643Y-85791940D01*
X125917256Y-85728655D01*
X126006755Y-85639156D01*
X126070040Y-85529543D01*
X126102799Y-85407285D01*
X126102799Y-85280715D01*
X126070040Y-85158457D01*
X126006755Y-85048844D01*
X126006753Y-85048842D01*
X126006751Y-85048839D01*
X125917260Y-84959348D01*
X125917254Y-84959344D01*
X125807644Y-84896060D01*
X125777078Y-84887870D01*
X125685385Y-84863301D01*
X125558815Y-84863301D01*
X125501036Y-84878783D01*
X125436555Y-84896060D01*
X125326945Y-84959344D01*
X125326939Y-84959348D01*
X125237448Y-85048839D01*
X125237444Y-85048845D01*
X125174160Y-85158455D01*
X125157780Y-85219586D01*
X125141401Y-85280715D01*
X114004806Y-85280715D01*
X114006429Y-84486683D01*
X114024120Y-84438386D01*
X114068721Y-84412757D01*
X114119361Y-84421793D01*
X114144153Y-84445060D01*
X114211267Y-84545503D01*
X114211269Y-84545505D01*
X114211271Y-84545508D01*
X114354491Y-84688728D01*
X114354494Y-84688730D01*
X114354497Y-84688733D01*
X114522917Y-84801268D01*
X114710052Y-84878781D01*
X114710053Y-84878782D01*
X114710054Y-84878782D01*
X114710056Y-84878783D01*
X114843095Y-84905246D01*
X114908720Y-84918300D01*
X114908721Y-84918300D01*
X115111280Y-84918300D01*
X115160609Y-84908487D01*
X115309944Y-84878783D01*
X115497083Y-84801268D01*
X115665503Y-84688733D01*
X115808733Y-84545503D01*
X115921268Y-84377083D01*
X115998783Y-84189944D01*
X116038300Y-83991279D01*
X116038300Y-83788721D01*
X116031847Y-83756282D01*
X116006672Y-83629717D01*
X115998783Y-83590056D01*
X115921268Y-83402917D01*
X115808733Y-83234497D01*
X115808730Y-83234494D01*
X115808728Y-83234491D01*
X115665508Y-83091271D01*
X115665505Y-83091269D01*
X115665503Y-83091267D01*
X115497083Y-82978732D01*
X115497081Y-82978731D01*
X115309947Y-82901218D01*
X115309946Y-82901217D01*
X115111280Y-82861700D01*
X115111279Y-82861700D01*
X114908721Y-82861700D01*
X114908720Y-82861700D01*
X114710053Y-82901217D01*
X114710052Y-82901218D01*
X114522918Y-82978731D01*
X114354494Y-83091269D01*
X114354491Y-83091271D01*
X114211271Y-83234491D01*
X114211263Y-83234500D01*
X114146602Y-83331273D01*
X114105119Y-83361690D01*
X114053789Y-83358325D01*
X114016631Y-83322754D01*
X114008876Y-83289343D01*
X114011605Y-81954432D01*
X114029297Y-81906134D01*
X114073898Y-81880505D01*
X114124538Y-81889541D01*
X114149330Y-81912808D01*
X114211267Y-82005503D01*
X114211269Y-82005505D01*
X114211271Y-82005508D01*
X114354491Y-82148728D01*
X114354494Y-82148730D01*
X114354497Y-82148733D01*
X114522917Y-82261268D01*
X114710052Y-82338781D01*
X114710053Y-82338782D01*
X114710054Y-82338782D01*
X114710056Y-82338783D01*
X114831496Y-82362939D01*
X114908720Y-82378300D01*
X114908721Y-82378300D01*
X115111280Y-82378300D01*
X115160609Y-82368487D01*
X115309944Y-82338783D01*
X115497083Y-82261268D01*
X115665503Y-82148733D01*
X115808733Y-82005503D01*
X115921268Y-81837083D01*
X115998783Y-81649944D01*
X116038300Y-81451279D01*
X116038300Y-81248721D01*
X116036335Y-81238844D01*
X116018089Y-81147113D01*
X115998783Y-81050056D01*
X115921268Y-80862917D01*
X115808733Y-80694497D01*
X115808730Y-80694494D01*
X115808728Y-80694491D01*
X115665508Y-80551271D01*
X115665505Y-80551269D01*
X115665503Y-80551267D01*
X115497083Y-80438732D01*
X115481207Y-80432156D01*
X115309947Y-80361218D01*
X115309946Y-80361217D01*
X115111280Y-80321700D01*
X115111279Y-80321700D01*
X114908721Y-80321700D01*
X114908720Y-80321700D01*
X114710053Y-80361217D01*
X114710052Y-80361218D01*
X114522918Y-80438731D01*
X114354494Y-80551269D01*
X114354491Y-80551271D01*
X114211271Y-80694491D01*
X114211263Y-80694500D01*
X114151810Y-80783479D01*
X114110327Y-80813896D01*
X114058997Y-80810531D01*
X114021839Y-80774960D01*
X114014085Y-80741551D01*
X114016782Y-79422178D01*
X114034473Y-79373882D01*
X114079074Y-79348253D01*
X114129714Y-79357289D01*
X114154507Y-79380558D01*
X114211263Y-79465499D01*
X114211271Y-79465508D01*
X114354491Y-79608728D01*
X114354494Y-79608730D01*
X114354497Y-79608733D01*
X114522917Y-79721268D01*
X114710052Y-79798781D01*
X114710053Y-79798782D01*
X114710054Y-79798782D01*
X114710056Y-79798783D01*
X114843095Y-79825246D01*
X114908720Y-79838300D01*
X114908721Y-79838300D01*
X115111280Y-79838300D01*
X115160609Y-79828487D01*
X115309944Y-79798783D01*
X115497083Y-79721268D01*
X115665503Y-79608733D01*
X115808733Y-79465503D01*
X115921268Y-79297083D01*
X115998783Y-79109944D01*
X116038300Y-78911279D01*
X116038300Y-78708721D01*
X116031847Y-78676282D01*
X116006672Y-78549717D01*
X115998783Y-78510056D01*
X115921268Y-78322917D01*
X115808733Y-78154497D01*
X115808730Y-78154494D01*
X115808728Y-78154491D01*
X115665508Y-78011271D01*
X115665505Y-78011269D01*
X115665503Y-78011267D01*
X115497083Y-77898732D01*
X115497081Y-77898731D01*
X115309947Y-77821218D01*
X115309946Y-77821217D01*
X115111280Y-77781700D01*
X115111279Y-77781700D01*
X114908721Y-77781700D01*
X114908720Y-77781700D01*
X114710053Y-77821217D01*
X114710052Y-77821218D01*
X114522918Y-77898731D01*
X114354494Y-78011269D01*
X114354491Y-78011271D01*
X114211271Y-78154491D01*
X114211263Y-78154500D01*
X114157019Y-78235683D01*
X114115536Y-78266100D01*
X114064206Y-78262735D01*
X114027048Y-78227164D01*
X114019293Y-78193753D01*
X114021959Y-76889926D01*
X114039650Y-76841629D01*
X114084251Y-76816000D01*
X114134891Y-76825036D01*
X114159684Y-76848305D01*
X114211263Y-76925499D01*
X114211271Y-76925508D01*
X114354491Y-77068728D01*
X114354494Y-77068730D01*
X114354497Y-77068733D01*
X114522917Y-77181268D01*
X114710052Y-77258781D01*
X114710053Y-77258782D01*
X114710054Y-77258782D01*
X114710056Y-77258783D01*
X114843095Y-77285246D01*
X114908720Y-77298300D01*
X114908721Y-77298300D01*
X115111280Y-77298300D01*
X115160609Y-77288487D01*
X115309944Y-77258783D01*
X115497083Y-77181268D01*
X115665503Y-77068733D01*
X115808733Y-76925503D01*
X115921268Y-76757083D01*
X115998783Y-76569944D01*
X116038300Y-76371279D01*
X116038300Y-76168721D01*
X115998783Y-75970056D01*
X115921268Y-75782917D01*
X115808733Y-75614497D01*
X115808729Y-75614493D01*
X115808728Y-75614491D01*
X115665508Y-75471271D01*
X115665505Y-75471269D01*
X115665503Y-75471267D01*
X115497083Y-75358732D01*
X115497081Y-75358731D01*
X115309947Y-75281218D01*
X115309946Y-75281217D01*
X115111280Y-75241700D01*
X115111279Y-75241700D01*
X114908721Y-75241700D01*
X114908720Y-75241700D01*
X114710053Y-75281217D01*
X114710052Y-75281218D01*
X114522918Y-75358731D01*
X114354494Y-75471269D01*
X114354491Y-75471271D01*
X114211271Y-75614491D01*
X114211263Y-75614500D01*
X114162227Y-75687888D01*
X114120743Y-75718305D01*
X114069414Y-75714940D01*
X114032256Y-75679368D01*
X114024502Y-75645960D01*
X114027135Y-74357675D01*
X114044827Y-74309377D01*
X114089428Y-74283748D01*
X114140068Y-74292784D01*
X114164861Y-74316053D01*
X114211263Y-74385499D01*
X114211271Y-74385508D01*
X114354491Y-74528728D01*
X114354494Y-74528730D01*
X114354497Y-74528733D01*
X114522917Y-74641268D01*
X114710052Y-74718781D01*
X114710053Y-74718782D01*
X114710054Y-74718782D01*
X114710056Y-74718783D01*
X114843095Y-74745246D01*
X114908720Y-74758300D01*
X114908721Y-74758300D01*
X115111280Y-74758300D01*
X115160609Y-74748487D01*
X115309944Y-74718783D01*
X115497083Y-74641268D01*
X115665503Y-74528733D01*
X115808733Y-74385503D01*
X115921268Y-74217083D01*
X115998783Y-74029944D01*
X116038300Y-73831279D01*
X116038300Y-73628721D01*
X115998783Y-73430056D01*
X115921268Y-73242917D01*
X115808733Y-73074497D01*
X115808730Y-73074494D01*
X115808728Y-73074491D01*
X115665508Y-72931271D01*
X115665505Y-72931269D01*
X115665503Y-72931267D01*
X115497083Y-72818732D01*
X115497081Y-72818731D01*
X115309947Y-72741218D01*
X115309946Y-72741217D01*
X115111280Y-72701700D01*
X115111279Y-72701700D01*
X114908721Y-72701700D01*
X114908720Y-72701700D01*
X114710053Y-72741217D01*
X114710052Y-72741218D01*
X114522918Y-72818731D01*
X114354494Y-72931269D01*
X114354491Y-72931271D01*
X114211271Y-73074491D01*
X114211263Y-73074500D01*
X114167435Y-73140094D01*
X114125952Y-73170511D01*
X114074622Y-73167146D01*
X114037464Y-73131575D01*
X114029710Y-73098168D01*
X114032312Y-71825420D01*
X114050003Y-71777124D01*
X114094604Y-71751495D01*
X114145244Y-71760531D01*
X114170037Y-71783800D01*
X114211263Y-71845499D01*
X114211271Y-71845508D01*
X114354491Y-71988728D01*
X114354494Y-71988730D01*
X114354497Y-71988733D01*
X114522917Y-72101268D01*
X114710052Y-72178781D01*
X114710053Y-72178782D01*
X114710054Y-72178782D01*
X114710056Y-72178783D01*
X114843095Y-72205246D01*
X114908720Y-72218300D01*
X114908721Y-72218300D01*
X115111280Y-72218300D01*
X115160609Y-72208487D01*
X115309944Y-72178783D01*
X115497083Y-72101268D01*
X115665503Y-71988733D01*
X115808733Y-71845503D01*
X115921268Y-71677083D01*
X115998783Y-71489944D01*
X116038300Y-71291279D01*
X116038300Y-71088721D01*
X115998783Y-70890056D01*
X115921268Y-70702917D01*
X115808733Y-70534497D01*
X115808730Y-70534494D01*
X115808728Y-70534491D01*
X115665508Y-70391271D01*
X115665505Y-70391269D01*
X115665503Y-70391267D01*
X115497083Y-70278732D01*
X115497081Y-70278731D01*
X115309947Y-70201218D01*
X115309946Y-70201217D01*
X115111280Y-70161700D01*
X115111279Y-70161700D01*
X114908721Y-70161700D01*
X114908720Y-70161700D01*
X114710053Y-70201217D01*
X114710052Y-70201218D01*
X114522918Y-70278731D01*
X114354494Y-70391269D01*
X114354491Y-70391271D01*
X114211271Y-70534491D01*
X114211267Y-70534496D01*
X114172644Y-70592299D01*
X114131160Y-70622715D01*
X114079831Y-70619350D01*
X114042673Y-70583778D01*
X114034919Y-70550369D01*
X114037489Y-69293168D01*
X114055180Y-69244871D01*
X114099781Y-69219242D01*
X114150421Y-69228278D01*
X114175214Y-69251547D01*
X114211263Y-69305499D01*
X114211271Y-69305508D01*
X114354491Y-69448728D01*
X114354494Y-69448730D01*
X114354497Y-69448733D01*
X114522917Y-69561268D01*
X114710052Y-69638781D01*
X114710053Y-69638782D01*
X114710054Y-69638782D01*
X114710056Y-69638783D01*
X114843095Y-69665246D01*
X114908720Y-69678300D01*
X114908721Y-69678300D01*
X115111280Y-69678300D01*
X115160609Y-69668487D01*
X115309944Y-69638783D01*
X115497083Y-69561268D01*
X115665503Y-69448733D01*
X115808733Y-69305503D01*
X115921268Y-69137083D01*
X115998783Y-68949944D01*
X116038300Y-68751279D01*
X116038300Y-68548721D01*
X115998783Y-68350056D01*
X115921268Y-68162917D01*
X115808733Y-67994497D01*
X115808730Y-67994494D01*
X115808728Y-67994491D01*
X115665508Y-67851271D01*
X115665505Y-67851269D01*
X115665503Y-67851267D01*
X115497083Y-67738732D01*
X115497081Y-67738731D01*
X115309947Y-67661218D01*
X115309946Y-67661217D01*
X115111280Y-67621700D01*
X115111279Y-67621700D01*
X114908721Y-67621700D01*
X114908720Y-67621700D01*
X114710053Y-67661217D01*
X114710052Y-67661218D01*
X114522918Y-67738731D01*
X114354494Y-67851269D01*
X114354491Y-67851271D01*
X114211271Y-67994491D01*
X114211263Y-67994500D01*
X114177853Y-68044503D01*
X114136370Y-68074920D01*
X114085040Y-68071555D01*
X114047882Y-68035984D01*
X114040127Y-68002572D01*
X114041748Y-67209744D01*
X114059439Y-67161447D01*
X114104040Y-67135818D01*
X114131620Y-67136147D01*
X114142439Y-67138300D01*
X115877560Y-67138299D01*
X115903564Y-67133127D01*
X115929565Y-67127956D01*
X115929566Y-67127955D01*
X115929569Y-67127955D01*
X115929569Y-67127954D01*
X115929571Y-67127954D01*
X115959058Y-67108251D01*
X115988547Y-67088547D01*
X116027955Y-67029569D01*
X116038300Y-66977561D01*
X116038300Y-66611715D01*
X116867301Y-66611715D01*
X116867301Y-66738285D01*
X116891870Y-66829978D01*
X116900060Y-66860544D01*
X116963342Y-66970151D01*
X116963345Y-66970156D01*
X116963348Y-66970159D01*
X116963658Y-66970563D01*
X116963769Y-66970891D01*
X116965809Y-66974424D01*
X116965106Y-66974829D01*
X116979200Y-67016345D01*
X116979200Y-82979553D01*
X116984127Y-82997940D01*
X116999021Y-83053529D01*
X117004333Y-83073352D01*
X117052885Y-83157447D01*
X117052886Y-83157448D01*
X117052887Y-83157449D01*
X117204337Y-83308899D01*
X117226077Y-83355519D01*
X117216288Y-83399673D01*
X117154060Y-83507454D01*
X117134404Y-83580811D01*
X117121301Y-83629715D01*
X117121301Y-83756285D01*
X117142482Y-83835334D01*
X117154060Y-83878544D01*
X117217344Y-83988154D01*
X117217348Y-83988160D01*
X117306839Y-84077651D01*
X117306842Y-84077653D01*
X117306844Y-84077655D01*
X117416457Y-84140940D01*
X117538715Y-84173699D01*
X117538718Y-84173699D01*
X117665282Y-84173699D01*
X117665285Y-84173699D01*
X117787543Y-84140940D01*
X117897156Y-84077655D01*
X117897157Y-84077654D01*
X117897571Y-84077337D01*
X117897901Y-84077224D01*
X117901424Y-84075191D01*
X117901828Y-84075891D01*
X117943346Y-84061800D01*
X118061447Y-84061800D01*
X124245654Y-84061800D01*
X124287171Y-84075891D01*
X124287576Y-84075191D01*
X124291098Y-84077224D01*
X124291429Y-84077337D01*
X124291842Y-84077654D01*
X124326617Y-84097731D01*
X124401457Y-84140940D01*
X124523715Y-84173699D01*
X124523718Y-84173699D01*
X124650282Y-84173699D01*
X124650285Y-84173699D01*
X124772543Y-84140940D01*
X124882156Y-84077655D01*
X124882157Y-84077654D01*
X124882571Y-84077337D01*
X124882901Y-84077224D01*
X124886424Y-84075191D01*
X124886828Y-84075891D01*
X124928346Y-84061800D01*
X127420654Y-84061800D01*
X127462171Y-84075891D01*
X127462576Y-84075191D01*
X127466098Y-84077224D01*
X127466429Y-84077337D01*
X127466842Y-84077654D01*
X127501617Y-84097731D01*
X127576457Y-84140940D01*
X127698715Y-84173699D01*
X127698718Y-84173699D01*
X127825282Y-84173699D01*
X127825285Y-84173699D01*
X127947543Y-84140940D01*
X128057156Y-84077655D01*
X128146655Y-83988156D01*
X128209940Y-83878543D01*
X128242699Y-83756285D01*
X128242699Y-83629715D01*
X128209940Y-83507457D01*
X128146655Y-83397844D01*
X128146653Y-83397842D01*
X128146651Y-83397839D01*
X128057160Y-83308348D01*
X128057154Y-83308344D01*
X128054145Y-83306607D01*
X128024244Y-83289343D01*
X127947544Y-83245060D01*
X127916978Y-83236870D01*
X127825285Y-83212301D01*
X127698715Y-83212301D01*
X127647008Y-83226156D01*
X127576455Y-83245060D01*
X127466842Y-83308345D01*
X127466429Y-83308663D01*
X127466098Y-83308775D01*
X127462576Y-83310809D01*
X127462171Y-83310108D01*
X127420654Y-83324200D01*
X124928346Y-83324200D01*
X124886828Y-83310108D01*
X124886424Y-83310809D01*
X124882901Y-83308775D01*
X124882571Y-83308663D01*
X124882157Y-83308345D01*
X124772544Y-83245060D01*
X124741978Y-83236870D01*
X124650285Y-83212301D01*
X124523715Y-83212301D01*
X124472008Y-83226156D01*
X124401455Y-83245060D01*
X124291842Y-83308345D01*
X124291429Y-83308663D01*
X124291098Y-83308775D01*
X124287576Y-83310809D01*
X124287171Y-83310108D01*
X124245654Y-83324200D01*
X123314299Y-83324200D01*
X123265961Y-83306607D01*
X123240241Y-83262058D01*
X123249174Y-83211400D01*
X123303938Y-83116544D01*
X123303939Y-83116543D01*
X123336698Y-82994285D01*
X123336698Y-82867715D01*
X123336698Y-82867713D01*
X123336055Y-82862831D01*
X123338442Y-82862516D01*
X123342172Y-82820090D01*
X123378560Y-82783731D01*
X123410313Y-82776699D01*
X123530281Y-82776699D01*
X123530284Y-82776699D01*
X123652542Y-82743940D01*
X123762155Y-82680655D01*
X123851654Y-82591156D01*
X123911953Y-82486715D01*
X124360301Y-82486715D01*
X124360301Y-82613285D01*
X124378352Y-82680651D01*
X124393060Y-82735544D01*
X124456344Y-82845154D01*
X124456348Y-82845160D01*
X124545839Y-82934651D01*
X124545842Y-82934653D01*
X124545844Y-82934655D01*
X124655457Y-82997940D01*
X124777715Y-83030699D01*
X124777718Y-83030699D01*
X124904282Y-83030699D01*
X124904285Y-83030699D01*
X125026543Y-82997940D01*
X125136156Y-82934655D01*
X125225655Y-82845156D01*
X125288940Y-82735543D01*
X125321699Y-82613285D01*
X125321699Y-82486715D01*
X125288940Y-82364457D01*
X125225655Y-82254844D01*
X125225653Y-82254842D01*
X125225651Y-82254839D01*
X125136160Y-82165348D01*
X125136154Y-82165344D01*
X125026544Y-82102060D01*
X124995978Y-82093870D01*
X124904285Y-82069301D01*
X124777715Y-82069301D01*
X124704360Y-82088956D01*
X124655455Y-82102060D01*
X124545845Y-82165344D01*
X124545839Y-82165348D01*
X124456348Y-82254839D01*
X124456344Y-82254845D01*
X124393060Y-82364455D01*
X124381685Y-82406910D01*
X124360301Y-82486715D01*
X123911953Y-82486715D01*
X123914939Y-82481543D01*
X123947698Y-82359285D01*
X123947698Y-82232715D01*
X123914939Y-82110457D01*
X123851654Y-82000844D01*
X123851652Y-82000842D01*
X123851650Y-82000839D01*
X123762159Y-81911348D01*
X123762153Y-81911344D01*
X123652543Y-81848060D01*
X123611568Y-81837081D01*
X123530284Y-81815301D01*
X123403714Y-81815301D01*
X123352007Y-81829156D01*
X123281454Y-81848060D01*
X123171844Y-81911344D01*
X123171838Y-81911348D01*
X123082347Y-82000839D01*
X123082343Y-82000845D01*
X123019059Y-82110455D01*
X123008804Y-82148728D01*
X122986300Y-82232715D01*
X122986300Y-82232717D01*
X122986300Y-82359286D01*
X122986943Y-82364169D01*
X122984555Y-82364483D01*
X122980826Y-82406910D01*
X122944438Y-82443269D01*
X122912685Y-82450301D01*
X122792714Y-82450301D01*
X122719359Y-82469956D01*
X122670454Y-82483060D01*
X122560844Y-82546344D01*
X122560838Y-82546348D01*
X122471347Y-82635839D01*
X122471343Y-82635845D01*
X122408059Y-82745455D01*
X122399275Y-82778238D01*
X122375300Y-82867715D01*
X122375300Y-82994285D01*
X122391175Y-83053530D01*
X122408059Y-83116544D01*
X122462824Y-83211400D01*
X122471757Y-83262059D01*
X122446036Y-83306607D01*
X122397699Y-83324200D01*
X118293910Y-83324200D01*
X118245572Y-83306607D01*
X118240736Y-83302174D01*
X117738826Y-82800264D01*
X117717086Y-82753644D01*
X117716800Y-82747090D01*
X117716800Y-81468484D01*
X121919016Y-81468484D01*
X121919016Y-81595054D01*
X121933725Y-81649947D01*
X121951775Y-81717313D01*
X122015059Y-81826923D01*
X122015063Y-81826929D01*
X122104554Y-81916420D01*
X122104557Y-81916422D01*
X122104559Y-81916424D01*
X122173377Y-81956156D01*
X122211705Y-81978285D01*
X122214172Y-81979709D01*
X122336430Y-82012468D01*
X122336433Y-82012468D01*
X122462997Y-82012468D01*
X122463000Y-82012468D01*
X122585258Y-81979709D01*
X122694871Y-81916424D01*
X122784370Y-81826925D01*
X122847655Y-81717312D01*
X122880414Y-81595054D01*
X122880414Y-81470715D01*
X123852301Y-81470715D01*
X123852301Y-81597285D01*
X123866411Y-81649944D01*
X123885060Y-81719544D01*
X123948344Y-81829154D01*
X123948348Y-81829160D01*
X124037839Y-81918651D01*
X124037842Y-81918653D01*
X124037844Y-81918655D01*
X124147457Y-81981940D01*
X124269715Y-82014699D01*
X124269718Y-82014699D01*
X124396282Y-82014699D01*
X124396285Y-82014699D01*
X124518543Y-81981940D01*
X124628156Y-81918655D01*
X124717655Y-81829156D01*
X124780940Y-81719543D01*
X124813584Y-81597715D01*
X125122301Y-81597715D01*
X125122301Y-81724285D01*
X125140352Y-81791651D01*
X125155060Y-81846544D01*
X125218344Y-81956154D01*
X125218348Y-81956160D01*
X125307839Y-82045651D01*
X125307842Y-82045653D01*
X125307844Y-82045655D01*
X125417457Y-82108940D01*
X125539715Y-82141699D01*
X125539718Y-82141699D01*
X125666282Y-82141699D01*
X125666285Y-82141699D01*
X125788543Y-82108940D01*
X125898156Y-82045655D01*
X125987655Y-81956156D01*
X126050940Y-81846543D01*
X126083699Y-81724285D01*
X126083699Y-81597715D01*
X126050940Y-81475457D01*
X125987655Y-81365844D01*
X125987653Y-81365842D01*
X125987651Y-81365839D01*
X125898160Y-81276348D01*
X125898154Y-81276344D01*
X125788544Y-81213060D01*
X125757978Y-81204870D01*
X125666285Y-81180301D01*
X125539715Y-81180301D01*
X125488008Y-81194156D01*
X125417455Y-81213060D01*
X125307845Y-81276344D01*
X125307839Y-81276348D01*
X125218348Y-81365839D01*
X125218344Y-81365845D01*
X125155060Y-81475455D01*
X125140353Y-81530344D01*
X125122301Y-81597715D01*
X124813584Y-81597715D01*
X124813699Y-81597285D01*
X124813699Y-81470715D01*
X124780940Y-81348457D01*
X124717655Y-81238844D01*
X124717653Y-81238842D01*
X124717651Y-81238839D01*
X124628160Y-81149348D01*
X124628154Y-81149344D01*
X124518544Y-81086060D01*
X124487978Y-81077870D01*
X124396285Y-81053301D01*
X124269715Y-81053301D01*
X124196360Y-81072956D01*
X124147455Y-81086060D01*
X124037845Y-81149344D01*
X124037839Y-81149348D01*
X123948348Y-81238839D01*
X123948344Y-81238845D01*
X123885060Y-81348455D01*
X123868680Y-81409586D01*
X123852301Y-81470715D01*
X122880414Y-81470715D01*
X122880414Y-81468484D01*
X122847655Y-81346226D01*
X122846206Y-81343717D01*
X122834280Y-81323060D01*
X122784370Y-81236613D01*
X122784368Y-81236611D01*
X122784366Y-81236608D01*
X122694875Y-81147117D01*
X122694869Y-81147113D01*
X122585259Y-81083829D01*
X122554693Y-81075639D01*
X122463000Y-81051070D01*
X122336430Y-81051070D01*
X122263075Y-81070725D01*
X122214170Y-81083829D01*
X122104560Y-81147113D01*
X122104554Y-81147117D01*
X122015063Y-81236608D01*
X122015059Y-81236614D01*
X121951775Y-81346224D01*
X121946518Y-81365844D01*
X121919016Y-81468484D01*
X117716800Y-81468484D01*
X117716800Y-80835715D01*
X126646301Y-80835715D01*
X126646301Y-80962285D01*
X126662394Y-81022344D01*
X126679060Y-81084544D01*
X126742344Y-81194154D01*
X126742348Y-81194160D01*
X126831839Y-81283651D01*
X126831842Y-81283653D01*
X126831844Y-81283655D01*
X126918291Y-81333565D01*
X126935874Y-81343717D01*
X126941457Y-81346940D01*
X127063715Y-81379699D01*
X127063718Y-81379699D01*
X127190282Y-81379699D01*
X127190285Y-81379699D01*
X127312543Y-81346940D01*
X127318129Y-81343715D01*
X129440301Y-81343715D01*
X129440301Y-81470285D01*
X129456394Y-81530344D01*
X129473060Y-81592544D01*
X129536344Y-81702154D01*
X129536348Y-81702160D01*
X129625839Y-81791651D01*
X129625842Y-81791653D01*
X129625844Y-81791655D01*
X129690798Y-81829156D01*
X129729874Y-81851717D01*
X129735457Y-81854940D01*
X129857715Y-81887699D01*
X129857718Y-81887699D01*
X129984282Y-81887699D01*
X129984285Y-81887699D01*
X130106543Y-81854940D01*
X130112129Y-81851715D01*
X134139301Y-81851715D01*
X134139301Y-81978285D01*
X134157352Y-82045651D01*
X134172060Y-82100544D01*
X134235344Y-82210154D01*
X134235348Y-82210160D01*
X134324839Y-82299651D01*
X134324842Y-82299653D01*
X134324844Y-82299655D01*
X134434457Y-82362940D01*
X134556715Y-82395699D01*
X134556718Y-82395699D01*
X134683282Y-82395699D01*
X134683285Y-82395699D01*
X134805543Y-82362940D01*
X134915156Y-82299655D01*
X135004655Y-82210156D01*
X135067940Y-82100543D01*
X135100699Y-81978285D01*
X135100699Y-81851715D01*
X135067940Y-81729457D01*
X135004655Y-81619844D01*
X135004653Y-81619842D01*
X135004651Y-81619839D01*
X134915160Y-81530348D01*
X134915154Y-81530344D01*
X134805544Y-81467060D01*
X134774978Y-81458870D01*
X134683285Y-81434301D01*
X134556715Y-81434301D01*
X134483360Y-81453956D01*
X134434455Y-81467060D01*
X134324845Y-81530344D01*
X134324839Y-81530348D01*
X134235348Y-81619839D01*
X134235344Y-81619845D01*
X134172060Y-81729455D01*
X134155680Y-81790586D01*
X134139301Y-81851715D01*
X130112129Y-81851715D01*
X130216156Y-81791655D01*
X130305655Y-81702156D01*
X130368940Y-81592543D01*
X130401699Y-81470285D01*
X130401699Y-81343715D01*
X130368940Y-81221457D01*
X130365625Y-81215715D01*
X130772028Y-81215715D01*
X130772028Y-81342285D01*
X130796597Y-81433978D01*
X130804787Y-81464544D01*
X130868071Y-81574154D01*
X130868075Y-81574160D01*
X130957566Y-81663651D01*
X130957569Y-81663653D01*
X130957571Y-81663655D01*
X131024257Y-81702156D01*
X131050509Y-81717313D01*
X131067184Y-81726940D01*
X131189442Y-81759699D01*
X131189445Y-81759699D01*
X131316009Y-81759699D01*
X131316012Y-81759699D01*
X131438270Y-81726940D01*
X131547883Y-81663655D01*
X131637382Y-81574156D01*
X131700667Y-81464543D01*
X131733426Y-81342285D01*
X131733426Y-81215715D01*
X131700667Y-81093457D01*
X131637382Y-80983844D01*
X131637380Y-80983842D01*
X131637378Y-80983839D01*
X131547887Y-80894348D01*
X131547881Y-80894344D01*
X131438271Y-80831060D01*
X131407705Y-80822870D01*
X131316012Y-80798301D01*
X131189442Y-80798301D01*
X131131241Y-80813896D01*
X131067182Y-80831060D01*
X130957572Y-80894344D01*
X130957566Y-80894348D01*
X130868075Y-80983839D01*
X130868071Y-80983845D01*
X130804787Y-81093455D01*
X130799860Y-81111844D01*
X130772028Y-81215715D01*
X130365625Y-81215715D01*
X130305655Y-81111844D01*
X130305653Y-81111842D01*
X130305651Y-81111839D01*
X130216160Y-81022348D01*
X130216154Y-81022344D01*
X130106544Y-80959060D01*
X130075978Y-80950870D01*
X129984285Y-80926301D01*
X129857715Y-80926301D01*
X129784360Y-80945956D01*
X129735455Y-80959060D01*
X129625845Y-81022344D01*
X129625839Y-81022348D01*
X129536348Y-81111839D01*
X129536344Y-81111845D01*
X129473060Y-81221455D01*
X129458353Y-81276344D01*
X129440301Y-81343715D01*
X127318129Y-81343715D01*
X127422156Y-81283655D01*
X127511655Y-81194156D01*
X127574940Y-81084543D01*
X127607699Y-80962285D01*
X127607699Y-80835715D01*
X127574940Y-80713457D01*
X127511655Y-80603844D01*
X127511653Y-80603842D01*
X127511651Y-80603839D01*
X127422160Y-80514348D01*
X127422154Y-80514344D01*
X127418364Y-80512156D01*
X127398990Y-80500970D01*
X127312544Y-80451060D01*
X127266534Y-80438732D01*
X127190285Y-80418301D01*
X127063715Y-80418301D01*
X127012008Y-80432156D01*
X126941455Y-80451060D01*
X126831845Y-80514344D01*
X126831839Y-80514348D01*
X126742348Y-80603839D01*
X126742344Y-80603845D01*
X126679060Y-80713455D01*
X126671532Y-80741551D01*
X126646301Y-80835715D01*
X117716800Y-80835715D01*
X117716800Y-80153717D01*
X129429423Y-80153717D01*
X129429423Y-80280287D01*
X129453992Y-80371980D01*
X129462182Y-80402546D01*
X129525466Y-80512156D01*
X129525470Y-80512162D01*
X129614961Y-80601653D01*
X129614964Y-80601655D01*
X129614966Y-80601657D01*
X129724579Y-80664942D01*
X129846837Y-80697701D01*
X129846840Y-80697701D01*
X129973404Y-80697701D01*
X129973407Y-80697701D01*
X130095665Y-80664942D01*
X130205278Y-80601657D01*
X130294777Y-80512158D01*
X130358062Y-80402545D01*
X130390821Y-80280287D01*
X130390821Y-80153717D01*
X130358062Y-80031459D01*
X130294777Y-79921846D01*
X130294775Y-79921844D01*
X130294773Y-79921841D01*
X130205282Y-79832350D01*
X130205276Y-79832346D01*
X130095666Y-79769062D01*
X130065100Y-79760872D01*
X129973407Y-79736303D01*
X129846837Y-79736303D01*
X129773482Y-79755958D01*
X129724577Y-79769062D01*
X129614967Y-79832346D01*
X129614961Y-79832350D01*
X129525470Y-79921841D01*
X129525466Y-79921847D01*
X129462182Y-80031457D01*
X129450859Y-80073717D01*
X129429423Y-80153717D01*
X117716800Y-80153717D01*
X117716800Y-79565715D01*
X131365301Y-79565715D01*
X131365301Y-79692285D01*
X131389870Y-79783978D01*
X131398060Y-79814544D01*
X131447970Y-79900990D01*
X131460008Y-79921841D01*
X131461344Y-79924154D01*
X131461348Y-79924160D01*
X131550839Y-80013651D01*
X131550842Y-80013653D01*
X131550844Y-80013655D01*
X131637291Y-80063565D01*
X131654874Y-80073717D01*
X131660457Y-80076940D01*
X131782715Y-80109699D01*
X131782718Y-80109699D01*
X131909282Y-80109699D01*
X131909285Y-80109699D01*
X132031543Y-80076940D01*
X132037129Y-80073715D01*
X133885301Y-80073715D01*
X133885301Y-80200285D01*
X133906737Y-80280284D01*
X133918060Y-80322544D01*
X133981344Y-80432154D01*
X133981348Y-80432160D01*
X134070839Y-80521651D01*
X134070842Y-80521653D01*
X134070844Y-80521655D01*
X134180457Y-80584940D01*
X134302715Y-80617699D01*
X134302718Y-80617699D01*
X134429282Y-80617699D01*
X134429285Y-80617699D01*
X134551543Y-80584940D01*
X134661156Y-80521655D01*
X134750655Y-80432156D01*
X134813940Y-80322543D01*
X134846699Y-80200285D01*
X134846699Y-80073715D01*
X134813940Y-79951457D01*
X134750655Y-79841844D01*
X134750653Y-79841842D01*
X134750651Y-79841839D01*
X134661160Y-79752348D01*
X134661154Y-79752344D01*
X134551544Y-79689060D01*
X134520978Y-79680870D01*
X134429285Y-79656301D01*
X134302715Y-79656301D01*
X134229360Y-79675956D01*
X134180455Y-79689060D01*
X134070845Y-79752344D01*
X134070839Y-79752348D01*
X133981348Y-79841839D01*
X133981344Y-79841845D01*
X133918060Y-79951455D01*
X133901680Y-80012586D01*
X133885301Y-80073715D01*
X132037129Y-80073715D01*
X132141156Y-80013655D01*
X132230655Y-79924156D01*
X132293940Y-79814543D01*
X132326699Y-79692285D01*
X132326699Y-79565715D01*
X132293940Y-79443457D01*
X132230655Y-79333844D01*
X132230653Y-79333842D01*
X132230651Y-79333839D01*
X132141160Y-79244348D01*
X132141154Y-79244344D01*
X132031544Y-79181060D01*
X132000978Y-79172870D01*
X131909285Y-79148301D01*
X131782715Y-79148301D01*
X131709360Y-79167956D01*
X131660455Y-79181060D01*
X131550845Y-79244344D01*
X131550839Y-79244348D01*
X131461348Y-79333839D01*
X131461344Y-79333845D01*
X131398060Y-79443455D01*
X131392152Y-79465505D01*
X131365301Y-79565715D01*
X117716800Y-79565715D01*
X117716800Y-77787715D01*
X123725301Y-77787715D01*
X123725301Y-77914285D01*
X123749870Y-78005978D01*
X123758060Y-78036544D01*
X123821344Y-78146154D01*
X123821348Y-78146160D01*
X123910839Y-78235651D01*
X123910842Y-78235653D01*
X123910844Y-78235655D01*
X124020457Y-78298940D01*
X124142715Y-78331699D01*
X124142718Y-78331699D01*
X124269282Y-78331699D01*
X124269285Y-78331699D01*
X124391543Y-78298940D01*
X124501156Y-78235655D01*
X124590655Y-78146156D01*
X124653940Y-78036543D01*
X124686584Y-77914715D01*
X127027301Y-77914715D01*
X127027301Y-78041285D01*
X127051689Y-78132301D01*
X127060060Y-78163544D01*
X127101694Y-78235655D01*
X127117328Y-78262735D01*
X127123344Y-78273154D01*
X127123348Y-78273160D01*
X127212839Y-78362651D01*
X127212842Y-78362653D01*
X127212844Y-78362655D01*
X127299291Y-78412565D01*
X127308316Y-78417776D01*
X127322457Y-78425940D01*
X127444715Y-78458699D01*
X127444718Y-78458699D01*
X127571282Y-78458699D01*
X127571285Y-78458699D01*
X127693543Y-78425940D01*
X127803156Y-78362655D01*
X127832989Y-78332821D01*
X127879608Y-78311082D01*
X127929295Y-78324395D01*
X127958800Y-78366532D01*
X127954318Y-78417776D01*
X127951291Y-78423591D01*
X127949061Y-78427453D01*
X127949060Y-78427457D01*
X127916301Y-78549715D01*
X127916301Y-78676285D01*
X127940870Y-78767978D01*
X127949060Y-78798544D01*
X128012344Y-78908154D01*
X128012348Y-78908160D01*
X128101839Y-78997651D01*
X128101842Y-78997653D01*
X128101844Y-78997655D01*
X128211457Y-79060940D01*
X128333715Y-79093699D01*
X128333718Y-79093699D01*
X128460282Y-79093699D01*
X128460285Y-79093699D01*
X128582543Y-79060940D01*
X128692156Y-78997655D01*
X128781655Y-78908156D01*
X128844940Y-78798543D01*
X128877699Y-78676285D01*
X128877699Y-78549715D01*
X130583301Y-78549715D01*
X130583301Y-78676285D01*
X130607870Y-78767978D01*
X130616060Y-78798544D01*
X130679344Y-78908154D01*
X130679348Y-78908160D01*
X130768839Y-78997651D01*
X130768842Y-78997653D01*
X130768844Y-78997655D01*
X130878457Y-79060940D01*
X131000715Y-79093699D01*
X131000718Y-79093699D01*
X131127282Y-79093699D01*
X131127285Y-79093699D01*
X131249543Y-79060940D01*
X131359156Y-78997655D01*
X131448655Y-78908156D01*
X131511940Y-78798543D01*
X131544699Y-78676285D01*
X131544699Y-78549715D01*
X131511940Y-78427457D01*
X131448655Y-78317844D01*
X131448653Y-78317842D01*
X131448651Y-78317839D01*
X131359160Y-78228348D01*
X131359154Y-78228344D01*
X131352435Y-78224465D01*
X131299241Y-78193753D01*
X131249544Y-78165060D01*
X131218978Y-78156870D01*
X131127285Y-78132301D01*
X131000715Y-78132301D01*
X130949008Y-78146156D01*
X130878455Y-78165060D01*
X130768845Y-78228344D01*
X130768839Y-78228348D01*
X130679348Y-78317839D01*
X130679344Y-78317845D01*
X130616060Y-78427455D01*
X130599680Y-78488586D01*
X130583301Y-78549715D01*
X128877699Y-78549715D01*
X128844940Y-78427457D01*
X128781655Y-78317844D01*
X128781653Y-78317842D01*
X128781651Y-78317839D01*
X128692160Y-78228348D01*
X128692154Y-78228344D01*
X128685435Y-78224465D01*
X128632241Y-78193753D01*
X128582544Y-78165060D01*
X128551978Y-78156870D01*
X128460285Y-78132301D01*
X128333715Y-78132301D01*
X128282008Y-78146156D01*
X128211455Y-78165060D01*
X128101845Y-78228344D01*
X128101843Y-78228345D01*
X128072010Y-78258178D01*
X128025389Y-78279917D01*
X127975702Y-78266603D01*
X127946198Y-78224465D01*
X127950682Y-78173221D01*
X127953706Y-78167412D01*
X127955940Y-78163543D01*
X127988699Y-78041285D01*
X127988699Y-77914715D01*
X127955940Y-77792457D01*
X127949729Y-77781700D01*
X127942565Y-77769291D01*
X127892655Y-77682844D01*
X127892653Y-77682842D01*
X127892651Y-77682839D01*
X127803160Y-77593348D01*
X127803154Y-77593344D01*
X127693544Y-77530060D01*
X127662978Y-77521870D01*
X127571285Y-77497301D01*
X127444715Y-77497301D01*
X127371360Y-77516956D01*
X127322455Y-77530060D01*
X127212845Y-77593344D01*
X127212839Y-77593348D01*
X127123348Y-77682839D01*
X127123344Y-77682845D01*
X127060060Y-77792455D01*
X127052353Y-77821218D01*
X127027301Y-77914715D01*
X124686584Y-77914715D01*
X124686699Y-77914285D01*
X124686699Y-77787715D01*
X124653940Y-77665457D01*
X124590655Y-77555844D01*
X124590653Y-77555842D01*
X124590651Y-77555839D01*
X124501160Y-77466348D01*
X124501154Y-77466344D01*
X124391544Y-77403060D01*
X124360978Y-77394870D01*
X124269285Y-77370301D01*
X124142715Y-77370301D01*
X124069360Y-77389956D01*
X124020455Y-77403060D01*
X123910845Y-77466344D01*
X123910839Y-77466348D01*
X123821348Y-77555839D01*
X123821344Y-77555845D01*
X123758060Y-77665455D01*
X123753402Y-77682839D01*
X123725301Y-77787715D01*
X117716800Y-77787715D01*
X117716800Y-67016345D01*
X117730893Y-66974829D01*
X117730191Y-66974424D01*
X117732230Y-66970891D01*
X117732342Y-66970563D01*
X117732647Y-66970163D01*
X117732655Y-66970156D01*
X117795940Y-66860543D01*
X117828699Y-66738285D01*
X117828699Y-66611715D01*
X117795940Y-66489457D01*
X117732655Y-66379844D01*
X117732653Y-66379842D01*
X117732651Y-66379839D01*
X117643160Y-66290348D01*
X117643154Y-66290344D01*
X117533544Y-66227060D01*
X117502978Y-66218870D01*
X117411285Y-66194301D01*
X117284715Y-66194301D01*
X117211360Y-66213956D01*
X117162455Y-66227060D01*
X117052845Y-66290344D01*
X117052839Y-66290348D01*
X116963348Y-66379839D01*
X116963344Y-66379845D01*
X116900060Y-66489455D01*
X116894529Y-66510099D01*
X116867301Y-66611715D01*
X116038300Y-66611715D01*
X116038299Y-66110000D01*
X116038299Y-65242441D01*
X116038299Y-65242439D01*
X116034157Y-65221616D01*
X116041982Y-65170779D01*
X116080656Y-65136861D01*
X116107973Y-65131748D01*
X136444868Y-65148993D01*
G37*
%TD.AperFunction*%
%TD*%
M02*
