M48
; DRILL file {KiCad 9.0.6} date 2025-12-14T17:15:19-0600
; FORMAT={-:-/ absolute / metric / decimal}
; #@! TF.CreationDate,2025-12-14T17:15:19-06:00
; #@! TF.GenerationSoftware,Kicad,Pcbnew,9.0.6
; #@! TF.FileFunction,Plated,1,4,PTH
FMAT,2
METRIC
; #@! TA.AperFunction,Plated,PTH,ViaDrill
T1C0.300
; #@! TA.AperFunction,Plated,PTH,ComponentDrill
T2C0.600
; #@! TA.AperFunction,Plated,PTH,ComponentDrill
T3C1.000
%
G90
G05
T1
X116.736Y-96.139
X117.221Y-113.665
X117.348Y-66.675
X117.348Y-108.204
X117.602Y-83.693
X117.729Y-65.659
X118.11Y-104.648
X118.237Y-101.219
X119.761Y-96.266
X119.888Y-92.456
X120.015Y-121.285
X120.1Y-78.47
X120.142Y-66.675
X120.269Y-67.564
X120.904Y-124.968
X121.031Y-66.675
X121.031Y-84.455
X121.386Y-96.292
X121.5Y-92.84
X121.793Y-66.675
X122.4Y-81.532
X122.555Y-66.675
X122.682Y-72.644
X122.856Y-82.931
X123.19Y-70.104
X123.317Y-66.675
X123.317Y-117.729
X123.317Y-118.618
X123.467Y-82.296
X123.698Y-97.79
X123.698Y-113.665
X123.825Y-116.332
X123.952Y-75.692
X124.206Y-66.675
X124.206Y-77.851
X124.333Y-81.534
X124.587Y-83.693
X124.841Y-82.55
X124.841Y-115.189
X124.968Y-66.675
X125.158Y-90.614
X125.16Y-88.519
X125.476Y-92.456
X125.476Y-94.361
X125.476Y-99.06
X125.495Y-115.834
X125.603Y-81.661
X125.604Y-121.284
X125.622Y-85.344
X125.857Y-66.675
X125.857Y-69.596
X125.984Y-75.819
X126.106Y-121.821
X126.641Y-121.285
X126.746Y-66.675
X127.127Y-80.899
X127.184Y-121.775
X127.381Y-112.395
X127.508Y-69.596
X127.508Y-77.978
X127.508Y-88.265
X127.635Y-66.675
X127.635Y-75.819
X127.762Y-83.693
X128.27Y-100.076
X128.397Y-66.675
X128.397Y-78.613
X128.54Y-106.96
X128.76Y-119.126
X128.905Y-72.39
X129.286Y-66.675
X129.413Y-82.423
X129.677Y-91.186
X129.91Y-80.217
X129.921Y-81.407
X130.048Y-66.675
X130.302Y-85.471
X130.429Y-93.472
X130.81Y-112.649
X130.937Y-97.917
X130.98Y-66.589
X131.064Y-78.613
X131.19Y-82.424
X131.253Y-81.279
X131.699Y-125.222
X131.826Y-66.548
X131.826Y-68.326
X131.826Y-69.215
X131.826Y-85.471
X131.826Y-120.904
X131.846Y-79.629
X132.08Y-87.757
X132.334Y-95.504
X132.969Y-117.983
X133.063Y-84.283
X133.985Y-90.932
X134.239Y-95.123
X134.366Y-80.137
X134.62Y-81.915
X134.74Y-65.76
X134.926Y-84.963
X135.763Y-113.792
X135.763Y-123.444
X135.89Y-66.04
T3
X115.01Y-66.11
X115.01Y-68.65
X115.01Y-71.19
X115.01Y-73.73
X115.01Y-76.27
X115.01Y-78.81
X115.01Y-81.35
X115.01Y-83.89
X115.01Y-86.43
X115.01Y-88.97
X115.01Y-91.51
X115.01Y-94.05
X115.01Y-96.59
X115.01Y-99.13
X115.01Y-101.67
X115.01Y-104.21
X115.01Y-106.75
X115.01Y-109.29
X115.01Y-111.83
X115.01Y-114.37
X115.01Y-116.91
X115.01Y-119.45
X137.87Y-66.11
X137.87Y-68.65
X137.87Y-71.19
X137.87Y-73.73
X137.87Y-76.27
X137.87Y-78.81
X137.87Y-81.35
X137.87Y-83.89
X137.87Y-86.43
X137.87Y-88.97
X137.87Y-91.51
X137.87Y-94.05
X137.87Y-96.59
X137.87Y-99.13
X137.87Y-101.67
X137.87Y-104.21
X137.87Y-106.75
X137.87Y-109.29
X137.87Y-111.83
X137.87Y-114.37
X137.87Y-116.91
X137.87Y-119.45
T2
X122.04Y-120.15G85X122.04Y-121.25
G05
X122.04Y-124.48G85X122.04Y-125.28
G05
X130.68Y-120.15G85X130.68Y-121.25
G05
X130.68Y-124.48G85X130.68Y-125.28
G05
M30
