%TF.GenerationSoftware,KiCad,Pcbnew,9.0.6*%
%TF.CreationDate,2025-12-14T16:55:08-06:00*%
%TF.ProjectId,PCB,5043422e-6b69-4636-9164-5f7063625858,rev?*%
%TF.SameCoordinates,Original*%
%TF.FileFunction,Copper,L4,Bot*%
%TF.FilePolarity,Positive*%
%FSLAX46Y46*%
G04 Gerber Fmt 4.6, Leading zero omitted, Abs format (unit mm)*
G04 Created by KiCad (PCBNEW 9.0.6) date 2025-12-14 16:55:08*
%MOMM*%
%LPD*%
G01*
G04 APERTURE LIST*
%TA.AperFunction,ComponentPad*%
%ADD10R,1.700000X1.700000*%
%TD*%
%TA.AperFunction,ComponentPad*%
%ADD11C,1.700000*%
%TD*%
%TA.AperFunction,HeatsinkPad*%
%ADD12O,1.000000X2.100000*%
%TD*%
%TA.AperFunction,HeatsinkPad*%
%ADD13O,1.000000X1.800000*%
%TD*%
%TA.AperFunction,ViaPad*%
%ADD14C,0.604799*%
%TD*%
%TA.AperFunction,Conductor*%
%ADD15C,0.152400*%
%TD*%
G04 APERTURE END LIST*
D10*
%TO.P,J1,1,Pin_1*%
%TO.N,/3V3*%
X115010000Y-66110000D03*
D11*
%TO.P,J1,2,Pin_2*%
%TO.N,/GPIO0*%
X115010000Y-68650000D03*
%TO.P,J1,3,Pin_3*%
%TO.N,/GPIO1*%
X115010000Y-71190000D03*
%TO.P,J1,4,Pin_4*%
%TO.N,/GPIO2*%
X115010000Y-73730000D03*
%TO.P,J1,5,Pin_5*%
%TO.N,/GPIO3*%
X115010000Y-76270000D03*
%TO.P,J1,6,Pin_6*%
%TO.N,/GPIO4*%
X115010000Y-78810000D03*
%TO.P,J1,7,Pin_7*%
%TO.N,/GPIO5*%
X115010000Y-81350000D03*
%TO.P,J1,8,Pin_8*%
%TO.N,/GPIO6*%
X115010000Y-83890000D03*
%TO.P,J1,9,Pin_9*%
%TO.N,/GPIO7*%
X115010000Y-86430000D03*
%TO.P,J1,10,Pin_10*%
%TO.N,/GPIO8*%
X115010000Y-88970000D03*
%TO.P,J1,11,Pin_11*%
%TO.N,/GPIO9*%
X115010000Y-91510000D03*
%TO.P,J1,12,Pin_12*%
%TO.N,/GPIO10*%
X115010000Y-94050000D03*
%TO.P,J1,13,Pin_13*%
%TO.N,/GPIO11*%
X115010000Y-96590000D03*
%TO.P,J1,14,Pin_14*%
%TO.N,/GPIO12*%
X115010000Y-99130000D03*
%TO.P,J1,15,Pin_15*%
%TO.N,/GPIO13*%
X115010000Y-101670000D03*
%TO.P,J1,16,Pin_16*%
%TO.N,/GPIO14*%
X115010000Y-104210000D03*
%TO.P,J1,17,Pin_17*%
%TO.N,/GPIO15*%
X115010000Y-106750000D03*
%TO.P,J1,18,Pin_18*%
%TO.N,/GPIO16*%
X115010000Y-109290000D03*
%TO.P,J1,19,Pin_19*%
%TO.N,/I2C_SCL*%
X115010000Y-111830000D03*
%TO.P,J1,20,Pin_20*%
%TO.N,/I2C_SDA*%
X115010000Y-114370000D03*
%TO.P,J1,21,Pin_21*%
%TO.N,/5VUSB*%
X115010000Y-116910000D03*
%TO.P,J1,22,Pin_22*%
%TO.N,GND*%
X115010000Y-119450000D03*
%TD*%
D12*
%TO.P,JUSB1,S1,SHIELD*%
%TO.N,GND*%
X122040000Y-120700000D03*
D13*
X122040000Y-124880000D03*
D12*
X130680000Y-120700000D03*
D13*
X130680000Y-124880000D03*
%TD*%
D10*
%TO.P,J3,1,Pin_1*%
%TO.N,GND*%
X137870000Y-66110000D03*
D11*
%TO.P,J3,2,Pin_2*%
%TO.N,/ESP32_EN*%
X137870000Y-68650000D03*
%TO.P,J3,3,Pin_3*%
%TO.N,/GPIO46*%
X137870000Y-71190000D03*
%TO.P,J3,4,Pin_4*%
%TO.N,/GPIO45*%
X137870000Y-73730000D03*
%TO.P,J3,5,Pin_5*%
%TO.N,/RXD*%
X137870000Y-76270000D03*
%TO.P,J3,6,Pin_6*%
%TO.N,/TXD*%
X137870000Y-78810000D03*
%TO.P,J3,7,Pin_7*%
%TO.N,/GPIO42*%
X137870000Y-81350000D03*
%TO.P,J3,8,Pin_8*%
%TO.N,/GPIO41*%
X137870000Y-83890000D03*
%TO.P,J3,9,Pin_9*%
%TO.N,/GPIO40*%
X137870000Y-86430000D03*
%TO.P,J3,10,Pin_10*%
%TO.N,/GPIO39*%
X137870000Y-88970000D03*
%TO.P,J3,11,Pin_11*%
%TO.N,/GPIO38*%
X137870000Y-91510000D03*
%TO.P,J3,12,Pin_12*%
%TO.N,/GPIO37*%
X137870000Y-94050000D03*
%TO.P,J3,13,Pin_13*%
%TO.N,/GPIO36*%
X137870000Y-96590000D03*
%TO.P,J3,14,Pin_14*%
%TO.N,/GPIO35*%
X137870000Y-99130000D03*
%TO.P,J3,15,Pin_15*%
%TO.N,/GPIO34*%
X137870000Y-101670000D03*
%TO.P,J3,16,Pin_16*%
%TO.N,/GPIO33*%
X137870000Y-104210000D03*
%TO.P,J3,17,Pin_17*%
%TO.N,/GPIO26*%
X137870000Y-106750000D03*
%TO.P,J3,18,Pin_18*%
%TO.N,/GPIO21*%
X137870000Y-109290000D03*
%TO.P,J3,19,Pin_19*%
%TO.N,unconnected-(J3-Pin_19-Pad19)*%
X137870000Y-111830000D03*
%TO.P,J3,20,Pin_20*%
%TO.N,unconnected-(J3-Pin_20-Pad20)*%
X137870000Y-114370000D03*
%TO.P,J3,21,Pin_21*%
%TO.N,/GPIO48*%
X137870000Y-116910000D03*
%TO.P,J3,22,Pin_22*%
%TO.N,/GPIO47*%
X137870000Y-119450000D03*
%TD*%
D14*
%TO.N,GND*%
X131699000Y-125222000D03*
X131826000Y-69215000D03*
X125494838Y-115834299D03*
X129413000Y-82423000D03*
X127635000Y-66675000D03*
X127635000Y-75819000D03*
X123698000Y-113665000D03*
X129286000Y-66675000D03*
X130980094Y-66589335D03*
X131826000Y-66548000D03*
X122682000Y-72644000D03*
X120142000Y-66675000D03*
X131826000Y-85471000D03*
X121031000Y-66675000D03*
X133985000Y-90932000D03*
X117729000Y-65659000D03*
X117221000Y-113665000D03*
X124968000Y-66675000D03*
X122555000Y-66675000D03*
X125158500Y-90614500D03*
X121500000Y-92840000D03*
X120269000Y-67564000D03*
X127508000Y-69596000D03*
X121385600Y-96292401D03*
X128905000Y-72390000D03*
X130810000Y-112649000D03*
X125857000Y-69596000D03*
X134740000Y-65760000D03*
X120015000Y-121285000D03*
X125857000Y-66675000D03*
X135763000Y-113792000D03*
X128397000Y-66675000D03*
X123952000Y-75692000D03*
X132080000Y-87757000D03*
X123317000Y-66675000D03*
X123190000Y-70104000D03*
X135763000Y-123444000D03*
X124206000Y-66675000D03*
X130048000Y-66675000D03*
X131190294Y-82423708D03*
X120100000Y-78470000D03*
X121031000Y-84455000D03*
X130302000Y-85471000D03*
X121793000Y-66675000D03*
X125984000Y-75819000D03*
X131826000Y-68326000D03*
X135890000Y-66040000D03*
X120904000Y-124968000D03*
X131826000Y-120904000D03*
X126746000Y-66675000D03*
%TO.N,/3V3*%
X119888000Y-92456000D03*
X127762000Y-83693000D03*
X124587000Y-83693000D03*
X123698000Y-97790000D03*
X129921000Y-81407000D03*
X134620000Y-81915000D03*
X117602000Y-83693000D03*
X117348000Y-66675000D03*
X127381000Y-112395000D03*
%TO.N,/ESP32_EN*%
X131064000Y-78613000D03*
X132969000Y-117983000D03*
X127127000Y-80899000D03*
X129676639Y-91186000D03*
%TO.N,/GPIO0*%
X123825000Y-116332000D03*
X124206000Y-77851000D03*
%TO.N,/5VUSB*%
X128760000Y-119126000D03*
X123317000Y-117729000D03*
X133063419Y-84283274D03*
X124841000Y-115189000D03*
X123317000Y-118618000D03*
%TO.N,/GPIO48*%
X131846000Y-79629000D03*
X125476000Y-99060000D03*
X125622100Y-85344000D03*
X128540000Y-106960000D03*
X125159501Y-88519000D03*
X125476000Y-94361000D03*
%TO.N,/GPIO16*%
X117348000Y-108204000D03*
X124841000Y-82550000D03*
%TO.N,/GPIO13*%
X122399715Y-81531769D03*
X116735999Y-96139000D03*
%TO.N,/I2C_SDA*%
X125603000Y-81661000D03*
X125476000Y-92456000D03*
%TO.N,/GPIO15*%
X123466999Y-82296000D03*
X118110000Y-104648000D03*
%TO.N,/I2C_SCL*%
X119761000Y-96266000D03*
X124333000Y-81534000D03*
%TO.N,/GPIO14*%
X118237000Y-101219000D03*
X122855999Y-82931000D03*
%TO.N,/GPIO33*%
X132334000Y-95504000D03*
X129910122Y-80217002D03*
%TO.N,/GPIO26*%
X130937000Y-97917000D03*
X128397000Y-78613000D03*
%TO.N,/GPIO21*%
X127508000Y-77978000D03*
X130429000Y-93472000D03*
%TO.N,/GPIO47*%
X128270000Y-100076000D03*
X127508000Y-88265000D03*
%TO.N,/GPIO35*%
X134926368Y-84963000D03*
X134366000Y-80137000D03*
%TO.N,/GPIO34*%
X134239000Y-95123000D03*
X131252727Y-81279000D03*
%TO.N,/USB_N*%
X126640999Y-121285000D03*
X125604401Y-121283765D03*
%TO.N,/USB_P*%
X126106465Y-121821307D03*
X127184401Y-121775149D03*
%TD*%
D15*
%TO.N,/3V3*%
X129921000Y-81407000D02*
X130429000Y-81915000D01*
X130429000Y-81915000D02*
X130946640Y-81915000D01*
X123698000Y-108712000D02*
X123698000Y-97790000D01*
X130659001Y-82202639D02*
X130659001Y-82643362D01*
X131411362Y-82955000D02*
X131723000Y-82643362D01*
X130946640Y-81915000D02*
X130659001Y-82202639D01*
X131723000Y-82202639D02*
X131435361Y-81915000D01*
X131723000Y-82643362D02*
X131723000Y-82202639D01*
X130970639Y-82955000D02*
X131411362Y-82955000D01*
X130659001Y-82643362D02*
X130970639Y-82955000D01*
X131435361Y-81915000D02*
X134620000Y-81915000D01*
X127381000Y-112395000D02*
X123698000Y-108712000D01*
%TO.N,/ESP32_EN*%
X127127000Y-80899000D02*
X129413000Y-78613000D01*
X129676639Y-91186000D02*
X129746002Y-91186000D01*
X129897001Y-94251828D02*
X132969000Y-97323827D01*
X129413000Y-78613000D02*
X131064000Y-78613000D01*
X129897001Y-91336999D02*
X129897001Y-94251828D01*
X132969000Y-97323827D02*
X132969000Y-117983000D01*
X129746002Y-91186000D02*
X129897001Y-91336999D01*
%TO.N,/GPIO0*%
X126008000Y-118515000D02*
X123825000Y-116332000D01*
X136375200Y-115329162D02*
X133189362Y-118515000D01*
X124610999Y-77446001D02*
X133724763Y-77446001D01*
X133724763Y-77446001D02*
X136375200Y-80096438D01*
X136375200Y-80096438D02*
X136375200Y-115329162D01*
X133189362Y-118515000D02*
X126008000Y-118515000D01*
X124206000Y-77851000D02*
X124610999Y-77446001D01*
%TO.N,/5VUSB*%
X128760000Y-119108000D02*
X128651000Y-118999000D01*
X128760000Y-119126000D02*
X128760000Y-119108000D01*
%TO.N,/GPIO48*%
X128540000Y-106960000D02*
X128540000Y-106950000D01*
X125603000Y-104013000D02*
X125476000Y-99060000D01*
X128540000Y-106950000D02*
X125603000Y-104013000D01*
X131675001Y-80748001D02*
X131699000Y-80772000D01*
X125622100Y-85344000D02*
X125622100Y-84826540D01*
X125476000Y-94361000D02*
X124626501Y-93511501D01*
X125622100Y-84826540D02*
X129700639Y-80748001D01*
X124626501Y-89052000D02*
X125159501Y-88519000D01*
X131846000Y-80625000D02*
X131846000Y-79629000D01*
X131699000Y-80772000D02*
X131846000Y-80625000D01*
X129700639Y-80748001D02*
X131675001Y-80748001D01*
X124626501Y-93511501D02*
X124626501Y-89052000D01*
%TO.N,/GPIO16*%
X124553362Y-81002001D02*
X125071001Y-81519640D01*
X117348000Y-86943533D02*
X121666333Y-82625200D01*
X122385439Y-82625200D02*
X124008638Y-81002001D01*
X117348000Y-108204000D02*
X117348000Y-86943533D01*
X121666333Y-82625200D02*
X122385439Y-82625200D01*
X125071001Y-82319999D02*
X124841000Y-82550000D01*
X124008638Y-81002001D02*
X124553362Y-81002001D01*
X125071001Y-81519640D02*
X125071001Y-82319999D01*
%TO.N,/GPIO13*%
X120652231Y-81531769D02*
X116735999Y-85448001D01*
X116735999Y-85448001D02*
X116735999Y-96139000D01*
X122399715Y-81531769D02*
X120652231Y-81531769D01*
%TO.N,/I2C_SDA*%
X125603000Y-83429362D02*
X125603000Y-81661000D01*
X125476000Y-92456000D02*
X125690500Y-92241500D01*
X125690500Y-86164761D02*
X125090101Y-85564362D01*
X125690500Y-92241500D02*
X125690500Y-86164761D01*
X125090101Y-85564362D02*
X125090101Y-83942261D01*
X125090101Y-83942261D02*
X125603000Y-83429362D01*
%TO.N,/GPIO15*%
X118110000Y-104648000D02*
X118769000Y-103989000D01*
X118769000Y-103989000D02*
X118769000Y-87987000D01*
X118769000Y-87987000D02*
X123466999Y-83289001D01*
X123466999Y-83289001D02*
X123466999Y-82296000D01*
%TO.N,/I2C_SCL*%
X124055001Y-91971999D02*
X119761000Y-96266000D01*
X124333000Y-81534000D02*
X124055001Y-81811999D01*
X124055001Y-81811999D02*
X124055001Y-91971999D01*
%TO.N,/GPIO14*%
X118237000Y-86487000D02*
X121793000Y-82931000D01*
X118237000Y-101219000D02*
X118237000Y-86487000D01*
X121793000Y-82931000D02*
X122855999Y-82931000D01*
%TO.N,/GPIO33*%
X132782692Y-80217002D02*
X133700493Y-79299201D01*
X131540200Y-80217002D02*
X131540200Y-80075561D01*
X132151800Y-80075562D02*
X132151800Y-80217002D01*
X135763600Y-94858762D02*
X135763600Y-80349772D01*
X132151800Y-80217002D02*
X132782692Y-80217002D01*
X134713028Y-79299201D02*
X133858000Y-79299201D01*
X133858000Y-79299201D02*
X133806799Y-79299201D01*
X131314001Y-79408639D02*
X131625639Y-79097001D01*
X132378000Y-79849362D02*
X132151800Y-80075562D01*
X135763600Y-80349772D02*
X134713028Y-79299201D01*
X131314001Y-79849362D02*
X131314001Y-79408639D01*
X131625639Y-79097001D02*
X132066362Y-79097001D01*
X132066362Y-79097001D02*
X132378000Y-79408639D01*
X131540200Y-80075561D02*
X131314001Y-79849362D01*
X134459362Y-96163000D02*
X135763600Y-94858762D01*
X133700493Y-79299201D02*
X133858000Y-79299201D01*
X132993000Y-96163000D02*
X134459362Y-96163000D01*
X129910122Y-80217002D02*
X131540200Y-80217002D01*
X132378000Y-79408639D02*
X132378000Y-79849362D01*
X132334000Y-95504000D02*
X132993000Y-96163000D01*
%TO.N,/GPIO26*%
X129818000Y-96798000D02*
X119540639Y-96798000D01*
X116204000Y-84338640D02*
X121929640Y-78613000D01*
X121929640Y-78613000D02*
X128397000Y-78613000D01*
X117127639Y-108736000D02*
X116204000Y-107812361D01*
X117568362Y-108736000D02*
X117127639Y-108736000D01*
X119540639Y-106763723D02*
X117568362Y-108736000D01*
X130937000Y-97917000D02*
X129818000Y-96798000D01*
X119540639Y-96798000D02*
X119540639Y-106763723D01*
X116204000Y-107812361D02*
X116204000Y-84338640D01*
%TO.N,/GPIO21*%
X130429000Y-94351361D02*
X132546439Y-96468800D01*
X134586029Y-96468800D02*
X136069400Y-94985428D01*
X130429000Y-93472000D02*
X130429000Y-94351361D01*
X136069400Y-94985428D02*
X136069400Y-80223105D01*
X132546439Y-96468800D02*
X134586029Y-96468800D01*
X136069400Y-80223105D02*
X133824295Y-77978000D01*
X133824295Y-77978000D02*
X127508000Y-77978000D01*
%TO.N,/GPIO47*%
X127508000Y-93735639D02*
X127508000Y-88265000D01*
X131469000Y-97696639D02*
X127508000Y-93735639D01*
X131469000Y-100018295D02*
X131469000Y-97696639D01*
X131411295Y-100076000D02*
X131469000Y-100018295D01*
X128270000Y-100076000D02*
X131411295Y-100076000D01*
%TO.N,/GPIO35*%
X135152000Y-80923000D02*
X134366000Y-80137000D01*
X135152000Y-84737368D02*
X135152000Y-80923000D01*
X134926368Y-84963000D02*
X135152000Y-84737368D01*
%TO.N,/GPIO34*%
X132366639Y-81384001D02*
X134145639Y-79605001D01*
X131357728Y-81384001D02*
X132366639Y-81384001D01*
X134145639Y-79605001D02*
X134586362Y-79605001D01*
X135457800Y-80476439D02*
X135457800Y-91364200D01*
X134239000Y-92583000D02*
X134239000Y-95123000D01*
X135457800Y-91364200D02*
X134239000Y-92583000D01*
X134586362Y-79605001D02*
X135457800Y-80476439D01*
X131252727Y-81279000D02*
X131357728Y-81384001D01*
%TO.N,/USB_N*%
X125605636Y-121285000D02*
X126640999Y-121285000D01*
X125604401Y-121283765D02*
X125605636Y-121285000D01*
%TO.N,/USB_P*%
X127166550Y-121793000D02*
X126885361Y-121793000D01*
X126717693Y-121821307D02*
X126106465Y-121821307D01*
X126885361Y-121793000D02*
X126861361Y-121817000D01*
X126861361Y-121817000D02*
X126722000Y-121817000D01*
X127184401Y-121775149D02*
X127166550Y-121793000D01*
X126722000Y-121817000D02*
X126717693Y-121821307D01*
%TD*%
M02*
